<svg width="944" height="180" viewBox="0 0 944 180" fill="none" xmlns="http://www.w3.org/2000/svg">
<path d="M155.552 171.974C155.552 170.418 156.814 169.157 158.371 169.157H329.634C331.191 169.157 332.453 170.418 332.453 171.974C332.453 173.53 331.191 174.791 329.634 174.791H158.371C156.814 174.791 155.552 173.53 155.552 171.974Z" fill="#000428"/>
<path d="M350.328 179.949C349.618 179.949 349.068 179.738 348.679 179.315C348.29 178.893 348.096 178.284 348.096 177.49V169.478C348.096 168.684 348.29 168.075 348.679 167.653C349.068 167.23 349.618 167.019 350.328 167.019C351.056 167.019 351.614 167.23 352.003 167.653C352.409 168.075 352.612 168.684 352.612 169.478V177.49C352.612 178.284 352.417 178.893 352.028 179.315C351.639 179.738 351.073 179.949 350.328 179.949ZM350.328 165.219C349.533 165.219 348.916 165.033 348.476 164.661C348.053 164.289 347.842 163.748 347.842 163.038C347.842 162.345 348.053 161.813 348.476 161.441C348.916 161.069 349.533 160.883 350.328 160.883C351.157 160.883 351.783 161.069 352.206 161.441C352.629 161.813 352.84 162.345 352.84 163.038C352.84 163.748 352.629 164.289 352.206 164.661C351.783 165.033 351.157 165.219 350.328 165.219Z" fill="#000428"/>
<path d="M359.443 180C358.699 180 357.938 179.941 357.16 179.823C356.399 179.721 355.705 179.527 355.079 179.239C354.656 179.07 354.352 178.842 354.166 178.555C353.997 178.267 353.912 177.963 353.912 177.642C353.929 177.321 354.022 177.034 354.191 176.78C354.377 176.51 354.614 176.324 354.902 176.222C355.206 176.104 355.545 176.112 355.917 176.248C356.627 176.501 357.261 176.687 357.82 176.805C358.395 176.907 358.944 176.958 359.469 176.958C360.095 176.958 360.543 176.873 360.813 176.704C361.084 176.518 361.219 176.281 361.219 175.994C361.219 175.741 361.126 175.546 360.94 175.411C360.771 175.276 360.526 175.183 360.205 175.132L357.388 174.676C356.34 174.49 355.528 174.109 354.953 173.535C354.377 172.943 354.09 172.174 354.09 171.227C354.09 170.349 354.335 169.596 354.826 168.971C355.333 168.329 356.018 167.838 356.881 167.5C357.76 167.145 358.767 166.968 359.9 166.968C360.661 166.968 361.355 167.027 361.981 167.145C362.606 167.247 363.215 167.441 363.807 167.729C364.18 167.881 364.442 168.1 364.594 168.388C364.746 168.675 364.805 168.979 364.772 169.301C364.738 169.605 364.628 169.892 364.442 170.163C364.273 170.416 364.036 170.594 363.731 170.695C363.427 170.78 363.072 170.754 362.666 170.619C362.107 170.399 361.608 170.239 361.169 170.137C360.746 170.036 360.348 169.985 359.976 169.985C359.283 169.985 358.792 170.078 358.505 170.264C358.217 170.45 358.073 170.687 358.073 170.974C358.073 171.194 358.149 171.38 358.302 171.532C358.454 171.667 358.691 171.76 359.012 171.811L361.828 172.292C362.911 172.461 363.74 172.833 364.315 173.408C364.907 173.966 365.203 174.726 365.203 175.69C365.203 177.059 364.679 178.124 363.63 178.884C362.581 179.628 361.186 180 359.443 180Z" fill="#000428"/>
<path d="M368.529 179.949C367.819 179.949 367.269 179.738 366.88 179.315C366.491 178.893 366.296 178.284 366.296 177.49V169.478C366.296 168.684 366.491 168.075 366.88 167.653C367.269 167.23 367.819 167.019 368.529 167.019C369.256 167.019 369.815 167.23 370.204 167.653C370.61 168.075 370.812 168.684 370.812 169.478V177.49C370.812 178.284 370.618 178.893 370.229 179.315C369.84 179.738 369.273 179.949 368.529 179.949ZM368.529 165.219C367.734 165.219 367.117 165.033 366.677 164.661C366.254 164.289 366.043 163.748 366.043 163.038C366.043 162.345 366.254 161.813 366.677 161.441C367.117 161.069 367.734 160.883 368.529 160.883C369.358 160.883 369.984 161.069 370.407 161.441C370.829 161.813 371.041 162.345 371.041 163.038C371.041 163.748 370.829 164.289 370.407 164.661C369.984 165.033 369.358 165.219 368.529 165.219Z" fill="#000428"/>
<path d="M374.955 179.949C374.244 179.949 373.694 179.755 373.305 179.366C372.916 178.977 372.722 178.411 372.722 177.667V169.275C372.722 168.548 372.908 167.991 373.28 167.602C373.669 167.213 374.219 167.019 374.929 167.019C375.64 167.019 376.181 167.213 376.553 167.602C376.925 167.991 377.111 168.548 377.111 169.275V170.67L376.832 169.427C377.187 168.684 377.712 168.092 378.405 167.653C379.116 167.196 379.953 166.968 380.917 166.968C381.83 166.968 382.608 167.188 383.251 167.627C383.911 168.067 384.384 168.734 384.672 169.63H384.317C384.706 168.802 385.289 168.151 386.068 167.678C386.846 167.205 387.708 166.968 388.656 166.968C389.637 166.968 390.44 167.162 391.066 167.551C391.692 167.923 392.157 168.515 392.461 169.326C392.783 170.12 392.943 171.126 392.943 172.343V177.667C392.943 178.411 392.74 178.977 392.334 179.366C391.945 179.755 391.387 179.949 390.66 179.949C389.949 179.949 389.4 179.755 389.011 179.366C388.622 178.977 388.427 178.411 388.427 177.667V172.47C388.427 171.743 388.317 171.219 388.097 170.898C387.877 170.577 387.514 170.416 387.006 170.416C386.38 170.416 385.898 170.636 385.56 171.075C385.239 171.515 385.078 172.14 385.078 172.952V177.667C385.078 178.411 384.884 178.977 384.494 179.366C384.105 179.755 383.547 179.949 382.82 179.949C382.093 179.949 381.534 179.755 381.145 179.366C380.756 178.977 380.562 178.411 380.562 177.667V172.47C380.562 171.743 380.452 171.219 380.232 170.898C380.012 170.577 379.648 170.416 379.141 170.416C378.532 170.416 378.058 170.636 377.72 171.075C377.399 171.515 377.238 172.14 377.238 172.952V177.667C377.238 179.189 376.477 179.949 374.955 179.949Z" fill="#000428"/>
<path d="M408.57 171.974C408.57 170.418 409.832 169.157 411.389 169.157H582.651C584.208 169.157 585.47 170.418 585.47 171.974C585.47 173.53 584.208 174.791 582.651 174.791H411.389C409.832 174.791 408.57 173.53 408.57 171.974Z" fill="#000428"/>
<path d="M155.552 154.367C155.552 152.811 156.814 151.55 158.371 151.55C159.928 151.55 161.191 152.811 161.191 154.367V171.27C161.191 172.826 159.928 174.087 158.371 174.087C156.814 174.087 155.552 172.826 155.552 171.27V154.367Z" fill="#000428"/>
<path d="M579.832 154.367C579.832 152.811 581.094 151.55 582.651 151.55C584.208 151.55 585.47 152.811 585.47 154.367V171.27C585.47 172.826 584.208 174.087 582.651 174.087C581.094 174.087 579.832 172.826 579.832 171.27V154.367Z" fill="#000428"/>
<path d="M791.267 171.974C791.267 170.418 792.529 169.157 794.086 169.157H833.554C835.111 169.157 836.373 170.418 836.373 171.974C836.373 173.53 835.111 174.791 833.554 174.791H794.086C792.529 174.791 791.267 173.53 791.267 171.974Z" fill="#000428"/>
<path d="M854.342 179.949C853.598 179.949 853.022 179.755 852.617 179.366C852.227 178.977 852.033 178.411 852.033 177.667V169.275C852.033 168.548 852.219 167.991 852.591 167.602C852.98 167.213 853.53 167.019 854.24 167.019C854.951 167.019 855.492 167.213 855.864 167.602C856.236 167.991 856.422 168.548 856.422 169.275V170.315H856.169C856.338 169.301 856.769 168.498 857.463 167.906C858.173 167.314 859.053 167.002 860.101 166.968C860.592 166.951 860.956 167.078 861.192 167.348C861.446 167.602 861.581 168.084 861.598 168.793C861.598 169.402 861.471 169.884 861.218 170.239C860.964 170.594 860.482 170.805 859.771 170.873L859.188 170.923C858.291 171.008 857.64 171.261 857.234 171.684C856.828 172.09 856.625 172.698 856.625 173.509V177.667C856.625 178.411 856.431 178.977 856.042 179.366C855.653 179.755 855.086 179.949 854.342 179.949Z" fill="#000428"/>
<path d="M868.368 180C866.981 180 865.771 179.738 864.739 179.214C863.708 178.69 862.904 177.938 862.329 176.958C861.754 175.977 861.466 174.819 861.466 173.484C861.466 172.47 861.627 171.566 861.949 170.771C862.27 169.96 862.735 169.275 863.344 168.717C863.953 168.143 864.68 167.712 865.526 167.424C866.372 167.12 867.319 166.968 868.368 166.968C869.755 166.968 870.964 167.23 871.996 167.754C873.028 168.278 873.823 169.03 874.381 170.01C874.956 170.974 875.244 172.132 875.244 173.484C875.244 174.481 875.083 175.386 874.761 176.197C874.44 177.008 873.975 177.701 873.366 178.276C872.774 178.834 872.047 179.265 871.184 179.569C870.338 179.856 869.4 180 868.368 180ZM868.368 176.679C868.824 176.679 869.23 176.569 869.586 176.349C869.941 176.112 870.211 175.766 870.397 175.309C870.6 174.836 870.702 174.228 870.702 173.484C870.702 172.352 870.482 171.54 870.042 171.05C869.602 170.543 869.044 170.289 868.368 170.289C867.911 170.289 867.505 170.399 867.15 170.619C866.795 170.839 866.516 171.185 866.313 171.659C866.11 172.115 866.008 172.723 866.008 173.484C866.008 174.6 866.228 175.411 866.668 175.918C867.107 176.425 867.674 176.679 868.368 176.679Z" fill="#000428"/>
<path d="M881.296 180C879.673 180 878.472 179.569 877.694 178.707C876.932 177.828 876.552 176.51 876.552 174.752V163.9C876.552 163.156 876.746 162.59 877.135 162.201C877.524 161.813 878.074 161.618 878.785 161.618C879.512 161.618 880.07 161.813 880.459 162.201C880.865 162.59 881.068 163.156 881.068 163.9V174.6C881.068 175.225 881.186 175.681 881.423 175.969C881.677 176.256 881.998 176.4 882.387 176.4C882.506 176.4 882.624 176.391 882.743 176.374C882.878 176.341 883.022 176.315 883.174 176.298C883.461 176.298 883.673 176.408 883.808 176.628C883.961 176.848 884.037 177.296 884.037 177.972C884.037 178.563 883.918 179.011 883.681 179.315C883.445 179.603 883.081 179.789 882.59 179.873C882.455 179.89 882.26 179.915 882.007 179.949C881.753 179.983 881.516 180 881.296 180Z" fill="#000428"/>
<path d="M898.394 171.974C898.394 170.418 899.656 169.157 901.213 169.157H940.681C942.238 169.157 943.5 170.418 943.5 171.974C943.5 173.53 942.238 174.791 940.681 174.791H901.213C899.656 174.791 898.394 173.53 898.394 171.974Z" fill="#000428"/>
<path d="M791.267 154.367C791.267 152.811 792.529 151.55 794.086 151.55C795.643 151.55 796.905 152.811 796.905 154.367V171.27C796.905 172.826 795.643 174.087 794.086 174.087C792.529 174.087 791.267 172.826 791.267 171.27V154.367Z" fill="#000428"/>
<path d="M937.862 154.367C937.862 152.811 939.124 151.55 940.681 151.55C942.238 151.55 943.5 152.811 943.5 154.367V171.27C943.5 172.826 942.238 174.087 940.681 174.087C939.124 174.087 937.862 172.826 937.862 171.27V154.367Z" fill="#000428"/>
<path d="M426.189 38.1607C426.189 36.6049 427.451 35.3436 429.008 35.3436H622.119C623.676 35.3436 624.938 36.6049 624.938 38.1607C624.938 39.7166 623.676 40.9779 622.119 40.9779H429.008C427.451 40.9779 426.189 39.7166 426.189 38.1607Z" fill="#000428"/>
<path d="M645.883 46.136C645.308 46.136 644.809 46.0008 644.386 45.7303C643.963 45.443 643.625 45.0035 643.371 44.4119L639.921 36.0704C639.701 35.5464 639.624 35.0732 639.692 34.6506C639.76 34.2111 639.963 33.8646 640.301 33.6111C640.656 33.3406 641.138 33.2054 641.747 33.2054C642.272 33.2054 642.703 33.3322 643.041 33.5857C643.38 33.8224 643.684 34.2956 643.955 35.0056L646.39 41.3948H645.858L648.42 34.5238C648.589 34.0675 648.818 33.7379 649.105 33.535C649.41 33.3153 649.79 33.2054 650.247 33.2054C650.737 33.2054 651.127 33.3153 651.414 33.535C651.702 33.7548 651.93 34.0844 652.099 34.5238L654.662 41.3948H654.205L656.666 34.8534C656.903 34.2111 657.207 33.7801 657.58 33.5604C657.952 33.3237 658.349 33.2054 658.772 33.2054C659.347 33.2054 659.787 33.3406 660.091 33.6111C660.396 33.8815 660.565 34.2365 660.599 34.676C660.65 35.1154 660.565 35.5887 660.345 36.0958L656.92 44.3866C656.683 44.9782 656.353 45.4176 655.93 45.705C655.508 45.9923 655.008 46.136 654.433 46.136C653.841 46.136 653.334 45.9923 652.911 45.705C652.505 45.4176 652.175 44.9782 651.922 44.3866L649.131 37.4142H650.983L648.344 44.3359C648.107 44.9444 647.786 45.4007 647.38 45.705C646.974 45.9923 646.475 46.136 645.883 46.136Z" fill="#000428"/>
<path d="M668.197 46.1867C666.675 46.1867 665.355 45.9247 664.239 45.4007C663.14 44.8598 662.294 44.0992 661.702 43.1189C661.11 42.1385 660.814 40.9807 660.814 39.6454C660.814 38.3607 661.093 37.2367 661.651 36.2733C662.226 35.2929 663.004 34.5323 663.985 33.9914C664.983 33.4336 666.117 33.1547 667.385 33.1547C668.315 33.1547 669.161 33.3068 669.922 33.6111C670.683 33.8984 671.335 34.3294 671.876 34.9041C672.417 35.4619 672.823 36.138 673.094 36.9325C673.381 37.7269 673.525 38.6143 673.525 39.5946C673.525 39.9327 673.432 40.1862 673.246 40.3553C673.06 40.5074 672.764 40.5835 672.358 40.5835H664.594V38.4537H670.227L669.821 38.7833C669.821 38.1579 669.736 37.6508 669.567 37.2621C669.398 36.8733 669.144 36.5775 668.806 36.3747C668.485 36.1718 668.079 36.0704 667.588 36.0704C667.064 36.0704 666.607 36.1972 666.218 36.4507C665.846 36.6874 665.558 37.0423 665.355 37.5156C665.152 37.9889 665.051 38.5805 665.051 39.2904V39.5186C665.051 40.7187 665.313 41.5807 665.837 42.1047C666.379 42.6118 667.207 42.8653 668.324 42.8653C668.696 42.8653 669.119 42.8231 669.592 42.7386C670.083 42.6371 670.548 42.5019 670.988 42.3329C671.428 42.1639 671.808 42.1385 672.13 42.2568C672.451 42.3582 672.696 42.5442 672.866 42.8146C673.052 43.0682 673.153 43.364 673.17 43.702C673.187 44.0232 673.111 44.3443 672.942 44.6655C672.772 44.9697 672.493 45.2064 672.104 45.3754C671.512 45.6458 670.878 45.8487 670.201 45.9839C669.542 46.1191 668.874 46.1867 668.197 46.1867Z" fill="#000428"/>
<path d="M682.93 46.1867C681.966 46.1867 681.104 45.9585 680.342 45.5022C679.598 45.0289 679.108 44.4119 678.871 43.6513L679.15 42.6118V43.8541C679.15 44.5979 678.955 45.1641 678.566 45.5529C678.194 45.9416 677.653 46.136 676.943 46.136C676.215 46.136 675.657 45.9416 675.268 45.5529C674.896 45.1641 674.71 44.5979 674.71 43.8541V30.0869C674.71 29.3431 674.904 28.7769 675.293 28.3881C675.682 27.9994 676.232 27.805 676.943 27.805C677.67 27.805 678.228 27.9994 678.617 28.3881C679.023 28.7769 679.226 29.3431 679.226 30.0869V35.5126H678.922C679.175 34.8196 679.674 34.2534 680.418 33.8139C681.163 33.3744 682 33.1547 682.93 33.1547C684.013 33.1547 684.96 33.4167 685.772 33.9407C686.601 34.4647 687.244 35.2084 687.7 36.1718C688.157 37.1353 688.385 38.3016 688.385 39.6707C688.385 41.006 688.157 42.1639 687.7 43.1442C687.244 44.1246 686.601 44.8768 685.772 45.4007C684.96 45.9247 684.013 46.1867 682.93 46.1867ZM681.509 42.8653C681.966 42.8653 682.364 42.7555 682.702 42.5357C683.057 42.2991 683.336 41.9526 683.539 41.4962C683.742 41.0229 683.844 40.4144 683.844 39.6707C683.844 38.5382 683.624 37.7269 683.184 37.2367C682.744 36.7296 682.186 36.4761 681.509 36.4761C681.053 36.4761 680.647 36.586 680.292 36.8057C679.936 37.0254 679.657 37.3719 679.454 37.8452C679.251 38.3016 679.15 38.9101 679.15 39.6707C679.15 40.7863 679.37 41.5976 679.81 42.1047C680.249 42.6118 680.816 42.8653 681.509 42.8653Z" fill="#000428"/>
<path d="M694.655 46.1867C693.911 46.1867 693.15 46.1276 692.372 46.0092C691.611 45.9078 690.917 45.7134 690.291 45.4261C689.868 45.2571 689.564 45.0289 689.378 44.7415C689.209 44.4542 689.124 44.1499 689.124 43.8288C689.141 43.5076 689.234 43.2203 689.403 42.9667C689.589 42.6963 689.826 42.5104 690.114 42.409C690.418 42.2906 690.756 42.2991 691.129 42.4343C691.839 42.6878 692.473 42.8738 693.031 42.9921C693.607 43.0935 694.156 43.1442 694.681 43.1442C695.306 43.1442 695.755 43.0597 696.025 42.8907C696.296 42.7048 696.431 42.4681 696.431 42.1808C696.431 41.9272 696.338 41.7328 696.152 41.5976C695.983 41.4624 695.738 41.3694 695.416 41.3187L692.6 40.8624C691.551 40.6764 690.74 40.2961 690.164 39.7214C689.589 39.1298 689.302 38.3607 689.302 37.4142C689.302 36.5353 689.547 35.7831 690.037 35.1577C690.545 34.5154 691.23 34.0252 692.093 33.6871C692.972 33.3322 693.979 33.1547 695.112 33.1547C695.873 33.1547 696.567 33.2139 697.193 33.3322C697.818 33.4336 698.427 33.628 699.019 33.9153C699.391 34.0675 699.654 34.2872 699.806 34.5745C699.958 34.8619 700.017 35.1661 699.983 35.4873C699.95 35.7915 699.84 36.0789 699.654 36.3493C699.484 36.6029 699.248 36.7803 698.943 36.8818C698.639 36.9663 698.284 36.9409 697.878 36.8057C697.319 36.586 696.82 36.4254 696.381 36.324C695.958 36.2226 695.56 36.1718 695.188 36.1718C694.495 36.1718 694.004 36.2648 693.716 36.4507C693.429 36.6367 693.285 36.8733 693.285 37.1607C693.285 37.3804 693.361 37.5663 693.513 37.7184C693.666 37.8537 693.903 37.9466 694.224 37.9973L697.04 38.4791C698.123 38.6481 698.952 39.02 699.527 39.5946C700.119 40.1524 700.415 40.9131 700.415 41.8765C700.415 43.2456 699.89 44.3105 698.842 45.0711C697.793 45.8149 696.397 46.1867 694.655 46.1867Z" fill="#000428"/>
<path d="M703.741 46.136C703.03 46.136 702.481 45.9247 702.092 45.5022C701.703 45.0796 701.508 44.4711 701.508 43.6767V35.6648C701.508 34.8703 701.703 34.2618 702.092 33.8393C702.481 33.4167 703.03 33.2054 703.741 33.2054C704.468 33.2054 705.026 33.4167 705.415 33.8393C705.821 34.2618 706.024 34.8703 706.024 35.6648V43.6767C706.024 44.4711 705.83 45.0796 705.441 45.5022C705.052 45.9247 704.485 46.136 703.741 46.136ZM703.741 31.4053C702.946 31.4053 702.328 31.2193 701.889 30.8475C701.466 30.4756 701.254 29.9347 701.254 29.2248C701.254 28.5318 701.466 27.9994 701.889 27.6275C702.328 27.2557 702.946 27.0697 703.741 27.0697C704.57 27.0697 705.196 27.2557 705.618 27.6275C706.041 27.9994 706.253 28.5318 706.253 29.2248C706.253 29.9347 706.041 30.4756 705.618 30.8475C705.196 31.2193 704.57 31.4053 703.741 31.4053Z" fill="#000428"/>
<path d="M714.429 46.1867C713.16 46.1867 712.112 45.9923 711.283 45.6036C710.471 45.2148 709.862 44.6317 709.456 43.8541C709.05 43.0597 708.847 42.0709 708.847 40.8877V36.755H707.984C707.443 36.755 707.02 36.6113 706.716 36.324C706.428 36.0366 706.284 35.6225 706.284 35.0816C706.284 34.5407 706.428 34.1351 706.716 33.8646C707.02 33.5773 707.443 33.4336 707.984 33.4336H708.847V31.8616C708.847 31.1179 709.042 30.5517 709.431 30.1629C709.82 29.7742 710.378 29.5798 711.105 29.5798C711.833 29.5798 712.391 29.7742 712.78 30.1629C713.169 30.5517 713.363 31.1179 713.363 31.8616V33.4336H715.444C716.002 33.4336 716.425 33.5773 716.712 33.8646C717.017 34.1351 717.169 34.5407 717.169 35.0816C717.169 35.6225 717.017 36.0366 716.712 36.324C716.425 36.6113 716.002 36.755 715.444 36.755H713.363V40.7356C713.363 41.361 713.507 41.8258 713.795 42.1301C714.099 42.4174 714.573 42.5611 715.215 42.5611C715.452 42.5611 715.681 42.5357 715.901 42.485C716.12 42.4343 716.323 42.409 716.509 42.409C716.78 42.3921 717 42.4766 717.169 42.6625C717.338 42.8315 717.423 43.2287 717.423 43.8541C717.423 44.3612 717.347 44.7922 717.195 45.1472C717.042 45.4852 716.772 45.7303 716.383 45.8825C716.146 45.967 715.824 46.0346 715.418 46.0853C715.012 46.1529 714.683 46.1867 714.429 46.1867Z" fill="#000428"/>
<path d="M724.601 46.1867C723.078 46.1867 721.759 45.9247 720.643 45.4007C719.543 44.8598 718.697 44.0992 718.105 43.1189C717.513 42.1385 717.217 40.9807 717.217 39.6454C717.217 38.3607 717.496 37.2367 718.055 36.2733C718.63 35.2929 719.408 34.5323 720.389 33.9914C721.387 33.4336 722.52 33.1547 723.789 33.1547C724.719 33.1547 725.565 33.3068 726.326 33.6111C727.087 33.8984 727.738 34.3294 728.28 34.9041C728.821 35.4619 729.227 36.138 729.497 36.9325C729.785 37.7269 729.929 38.6143 729.929 39.5946C729.929 39.9327 729.836 40.1862 729.65 40.3553C729.464 40.5074 729.168 40.5835 728.762 40.5835H720.998V38.4537H726.63L726.224 38.7833C726.224 38.1579 726.14 37.6508 725.971 37.2621C725.802 36.8733 725.548 36.5775 725.21 36.3747C724.888 36.1718 724.482 36.0704 723.992 36.0704C723.467 36.0704 723.011 36.1972 722.622 36.4507C722.249 36.6874 721.962 37.0423 721.759 37.5156C721.556 37.9889 721.454 38.5805 721.454 39.2904V39.5186C721.454 40.7187 721.717 41.5807 722.241 42.1047C722.782 42.6118 723.611 42.8653 724.727 42.8653C725.1 42.8653 725.522 42.8231 725.996 42.7386C726.487 42.6371 726.952 42.5019 727.392 42.3329C727.831 42.1639 728.212 42.1385 728.533 42.2568C728.855 42.3582 729.1 42.5442 729.269 42.8146C729.455 43.0682 729.557 43.364 729.573 43.702C729.59 44.0232 729.514 44.3443 729.345 44.6655C729.176 44.9697 728.897 45.2064 728.508 45.3754C727.916 45.6458 727.282 45.8487 726.605 45.9839C725.945 46.1191 725.277 46.1867 724.601 46.1867Z" fill="#000428"/>
<path d="M744.751 38.1607C744.751 36.6049 746.013 35.3436 747.57 35.3436H940.681C942.238 35.3436 943.5 36.6049 943.5 38.1607C943.5 39.7166 942.238 40.9779 940.681 40.9779H747.57C746.013 40.9779 744.751 39.7166 744.751 38.1607Z" fill="#000428"/>
<path d="M426.189 38.865C426.189 37.3092 427.451 36.0479 429.008 36.0479C430.565 36.0479 431.827 37.3092 431.827 38.865V55.7677C431.827 57.3236 430.565 58.5849 429.008 58.5849C427.451 58.5849 426.189 57.3236 426.189 55.7677V38.865Z" fill="#000428"/>
<path d="M937.862 38.865C937.862 37.3092 939.124 36.0479 940.681 36.0479C942.238 36.0479 943.5 37.3092 943.5 38.865V55.7677C943.5 57.3236 942.238 58.5849 940.681 58.5849C939.124 58.5849 937.862 57.3236 937.862 55.7677V38.865Z" fill="#000428"/>
<path d="M0.5 8.58095C0.5 7.0251 1.76217 5.76383 3.31913 5.76383H409.979C411.536 5.76383 412.798 7.0251 412.798 8.58095C412.798 10.1368 411.536 11.3981 409.979 11.3981H3.31913C1.76217 11.3981 0.5 10.1368 0.5 8.58095Z" fill="#000428"/>
<path d="M435.201 16.6069C433.679 16.6069 432.36 16.3449 431.243 15.821C430.144 15.2801 429.298 14.5194 428.706 13.5391C428.114 12.5587 427.818 11.4009 427.818 10.0656C427.818 8.78097 428.097 7.65694 428.655 6.69348C429.23 5.71312 430.009 4.9525 430.99 4.41161C431.988 3.85382 433.121 3.57493 434.389 3.57493C435.32 3.57493 436.166 3.72705 436.927 4.0313C437.688 4.31865 438.339 4.74967 438.88 5.32436C439.422 5.88215 439.828 6.55826 440.098 7.35269C440.386 8.14712 440.53 9.03451 440.53 10.0149C440.53 10.3529 440.437 10.6065 440.25 10.7755C440.064 10.9276 439.768 11.0037 439.362 11.0037H431.599V8.87393H437.231L436.825 9.20354C436.825 8.57814 436.741 8.07105 436.571 7.68229C436.402 7.29353 436.149 6.99773 435.81 6.7949C435.489 6.59207 435.083 6.49065 434.592 6.49065C434.068 6.49065 433.611 6.61742 433.222 6.87096C432.85 7.1076 432.563 7.46256 432.36 7.93583C432.157 8.40911 432.055 9.00071 432.055 9.71062V9.93881C432.055 11.1389 432.317 12.0009 432.842 12.5249C433.383 13.032 434.212 13.2855 435.328 13.2855C435.7 13.2855 436.123 13.2433 436.597 13.1588C437.087 13.0574 437.553 12.9221 437.992 12.7531C438.432 12.5841 438.813 12.5587 439.134 12.677C439.455 12.7785 439.701 12.9644 439.87 13.2348C440.056 13.4884 440.157 13.7842 440.174 14.1222C440.191 14.4434 440.115 14.7645 439.946 15.0857C439.777 15.3899 439.498 15.6266 439.109 15.7956C438.517 16.066 437.882 16.2689 437.206 16.4041C436.546 16.5393 435.878 16.6069 435.201 16.6069Z" fill="#000428"/>
<path d="M443.888 11.2826C443.38 11.2826 442.957 11.1135 442.619 10.7755C442.281 10.4374 442.112 10.0149 442.112 9.50779C442.112 9.0007 442.281 8.58659 442.619 8.26544C442.957 7.92738 443.38 7.75835 443.888 7.75835H448.911C449.419 7.75835 449.842 7.92738 450.18 8.26544C450.518 8.58659 450.688 9.0007 450.688 9.50779C450.688 10.0149 450.518 10.4374 450.18 10.7755C449.842 11.1135 449.419 11.2826 448.911 11.2826H443.888Z" fill="#000428"/>
<path d="M454.831 21.12C454.121 21.12 453.571 20.9256 453.182 20.5368C452.793 20.1481 452.598 19.5818 452.598 18.8381V5.88215C452.598 5.15533 452.784 4.59754 453.157 4.20878C453.546 3.82002 454.095 3.62564 454.806 3.62564C455.533 3.62564 456.083 3.82002 456.455 4.20878C456.844 4.59754 457.039 5.15533 457.039 5.88215V7.35269L456.759 6.11034C456.996 5.34971 457.487 4.74122 458.231 4.28484C458.992 3.81157 459.855 3.57493 460.819 3.57493C461.902 3.57493 462.849 3.83692 463.661 4.36091C464.49 4.88489 465.132 5.62861 465.589 6.59207C466.046 7.55552 466.274 8.72181 466.274 10.0909C466.274 11.4262 466.046 12.5841 465.589 13.5644C465.132 14.5448 464.49 15.297 463.661 15.821C462.849 16.3449 461.902 16.6069 460.819 16.6069C459.889 16.6069 459.051 16.3872 458.307 15.9477C457.563 15.5083 457.064 14.9336 456.81 14.2236H457.115V18.8381C457.115 19.5818 456.912 20.1481 456.506 20.5368C456.117 20.9256 455.558 21.12 454.831 21.12ZM459.398 13.2855C459.855 13.2855 460.252 13.1757 460.591 12.9559C460.946 12.7193 461.225 12.3728 461.428 11.9164C461.631 11.4431 461.732 10.8347 461.732 10.0909C461.732 8.95845 461.513 8.14712 461.073 7.65694C460.633 7.14986 460.075 6.89632 459.398 6.89632C458.941 6.89632 458.535 7.00618 458.18 7.22592C457.825 7.44565 457.546 7.79216 457.343 8.26544C457.14 8.72181 457.039 9.33031 457.039 10.0909C457.039 11.2065 457.258 12.0178 457.698 12.5249C458.138 13.032 458.705 13.2855 459.398 13.2855Z" fill="#000428"/>
<path d="M473.889 16.6069C472.502 16.6069 471.292 16.3449 470.26 15.821C469.229 15.297 468.425 14.5448 467.85 13.5644C467.275 12.5841 466.987 11.4262 466.987 10.0909C466.987 9.07677 467.148 8.17247 467.47 7.37804C467.791 6.56671 468.256 5.88215 468.865 5.32436C469.474 4.74967 470.201 4.31865 471.047 4.0313C471.893 3.72705 472.84 3.57493 473.889 3.57493C475.276 3.57493 476.485 3.83692 477.517 4.36091C478.549 4.88489 479.344 5.63706 479.902 6.61742C480.477 7.58088 480.764 8.73871 480.764 10.0909C480.764 11.0882 480.604 11.9925 480.282 12.8038C479.961 13.6152 479.496 14.3082 478.887 14.8829C478.295 15.4406 477.568 15.8717 476.705 16.1759C475.859 16.4633 474.92 16.6069 473.889 16.6069ZM473.889 13.2855C474.345 13.2855 474.751 13.1757 475.107 12.9559C475.462 12.7193 475.732 12.3728 475.918 11.9164C476.121 11.4431 476.223 10.8347 476.223 10.0909C476.223 8.95845 476.003 8.14712 475.563 7.65694C475.123 7.14986 474.565 6.89632 473.889 6.89632C473.432 6.89632 473.026 7.00618 472.671 7.22592C472.316 7.44565 472.036 7.79216 471.833 8.26544C471.63 8.72181 471.529 9.33031 471.529 10.0909C471.529 11.2065 471.749 12.0178 472.189 12.5249C472.629 13.032 473.195 13.2855 473.889 13.2855Z" fill="#000428"/>
<path d="M487.046 16.6069C486.301 16.6069 485.54 16.5478 484.762 16.4295C484.001 16.328 483.308 16.1337 482.682 15.8463C482.259 15.6773 481.954 15.4491 481.768 15.1618C481.599 14.8744 481.515 14.5702 481.515 14.249C481.531 13.9279 481.625 13.6405 481.794 13.387C481.98 13.1165 482.217 12.9306 482.504 12.8292C482.809 12.7109 483.147 12.7193 483.519 12.8545C484.229 13.1081 484.864 13.294 485.422 13.4123C485.997 13.5137 486.547 13.5644 487.071 13.5644C487.697 13.5644 488.145 13.4799 488.416 13.3109C488.686 13.125 488.822 12.8883 488.822 12.601C488.822 12.3474 488.729 12.1531 488.543 12.0178C488.374 11.8826 488.128 11.7897 487.807 11.7389L484.991 11.2826C483.942 11.0966 483.13 10.7163 482.555 10.1416C481.98 9.55004 481.692 8.78097 481.692 7.83442C481.692 6.95547 481.937 6.2033 482.428 5.5779C482.935 4.9356 483.62 4.44542 484.483 4.10736C485.363 3.75241 486.369 3.57493 487.502 3.57493C488.264 3.57493 488.957 3.63409 489.583 3.75241C490.209 3.85382 490.818 4.0482 491.41 4.33555C491.782 4.48768 492.044 4.70741 492.196 4.99476C492.349 5.2821 492.408 5.58635 492.374 5.90751C492.34 6.21175 492.23 6.4991 492.044 6.76954C491.875 7.02309 491.638 7.20056 491.334 7.30198C491.029 7.38649 490.674 7.36114 490.268 7.22592C489.71 7.00618 489.211 6.84561 488.771 6.74419C488.348 6.64277 487.951 6.59207 487.579 6.59207C486.885 6.59207 486.395 6.68503 486.107 6.87096C485.819 7.05689 485.676 7.29353 485.676 7.58088C485.676 7.80061 485.752 7.98654 485.904 8.13867C486.056 8.27389 486.293 8.36685 486.614 8.41756L489.431 8.89929C490.513 9.06832 491.342 9.44018 491.917 10.0149C492.509 10.5727 492.805 11.3333 492.805 12.2967C492.805 13.6659 492.281 14.7307 491.232 15.4914C490.183 16.2351 488.788 16.6069 487.046 16.6069Z" fill="#000428"/>
<path d="M500.321 16.6069C499.052 16.6069 498.003 16.4126 497.175 16.0238C496.363 15.635 495.754 15.0519 495.348 14.2744C494.942 13.4799 494.739 12.4911 494.739 11.3079V7.17521H493.876C493.335 7.17521 492.912 7.03154 492.608 6.74419C492.32 6.45684 492.176 6.04273 492.176 5.50184C492.176 4.96095 492.32 4.55529 492.608 4.28484C492.912 3.9975 493.335 3.85382 493.876 3.85382H494.739V2.28187C494.739 1.53815 494.933 0.971907 495.322 0.583144C495.711 0.194381 496.27 0 496.997 0C497.724 0 498.282 0.194381 498.672 0.583144C499.061 0.971907 499.255 1.53815 499.255 2.28187V3.85382H501.336C501.894 3.85382 502.317 3.9975 502.604 4.28484C502.909 4.55529 503.061 4.96095 503.061 5.50184C503.061 6.04273 502.909 6.45684 502.604 6.74419C502.317 7.03154 501.894 7.17521 501.336 7.17521H499.255V11.1558C499.255 11.7812 499.399 12.246 499.686 12.5503C499.991 12.8376 500.464 12.9813 501.107 12.9813C501.344 12.9813 501.572 12.9559 501.792 12.9052C502.012 12.8545 502.215 12.8292 502.401 12.8292C502.672 12.8123 502.892 12.8968 503.061 13.0827C503.23 13.2517 503.315 13.649 503.315 14.2744C503.315 14.7814 503.239 15.2125 503.086 15.5674C502.934 15.9055 502.663 16.1506 502.274 16.3027C502.038 16.3872 501.716 16.4548 501.31 16.5055C500.904 16.5731 500.574 16.6069 500.321 16.6069Z" fill="#000428"/>
<path d="M508.155 16.6069C507.191 16.6069 506.337 16.4295 505.593 16.0745C504.865 15.7195 504.29 15.2378 503.867 14.6293C503.461 14.0039 503.258 13.294 503.258 12.4996C503.258 11.5868 503.495 10.8685 503.969 10.3445C504.442 9.82049 505.204 9.44863 506.252 9.22889C507.301 8.99225 508.696 8.87393 510.439 8.87393H511.834V11.0037H510.439C509.779 11.0037 509.229 11.0544 508.789 11.1558C508.367 11.2403 508.054 11.384 507.851 11.5868C507.648 11.7728 507.546 12.0178 507.546 12.3221C507.546 12.7109 507.682 13.032 507.952 13.2855C508.24 13.5391 508.646 13.6659 509.17 13.6659C509.593 13.6659 509.965 13.5729 510.286 13.387C510.625 13.201 510.895 12.9475 511.098 12.6263C511.301 12.2883 511.403 11.8995 511.403 11.4601V8.51898C511.403 7.91048 511.242 7.47946 510.921 7.22592C510.616 6.97238 510.083 6.84561 509.322 6.84561C508.916 6.84561 508.46 6.89632 507.952 6.99773C507.445 7.08224 506.878 7.24282 506.252 7.47946C505.796 7.64849 505.407 7.67384 505.085 7.55552C504.764 7.4372 504.51 7.23437 504.324 6.94702C504.155 6.65968 504.07 6.34698 504.07 6.00892C504.087 5.67087 504.197 5.34972 504.4 5.04547C504.62 4.74122 504.95 4.50458 505.39 4.33555C506.202 4.0313 506.946 3.82847 507.622 3.72705C508.316 3.62564 508.95 3.57493 509.525 3.57493C510.912 3.57493 512.054 3.77776 512.951 4.18343C513.864 4.57219 514.541 5.18069 514.98 6.00892C515.437 6.82025 515.665 7.86822 515.665 9.15283V14.2744C515.665 15.0181 515.488 15.5843 515.133 15.9731C514.777 16.3618 514.261 16.5562 513.585 16.5562C512.891 16.5562 512.359 16.3618 511.986 15.9731C511.631 15.5843 511.454 15.0181 511.454 14.2744V13.6151L511.606 13.9701C511.521 14.511 511.327 14.9758 511.022 15.3646C510.718 15.7533 510.32 16.0576 509.83 16.2773C509.339 16.4971 508.781 16.6069 508.155 16.6069Z" fill="#000428"/>
<path d="M531.202 8.58095C531.202 7.0251 532.464 5.76383 534.021 5.76383H940.681C942.238 5.76383 943.5 7.0251 943.5 8.58095C943.5 10.1368 942.238 11.3981 940.681 11.3981H534.021C532.464 11.3981 531.202 10.1368 531.202 8.58095Z" fill="#000428"/>
<path d="M0.5 9.28523C0.5 7.72938 1.76217 6.46811 3.31913 6.46811C4.8761 6.46811 6.13827 7.72938 6.13827 9.28523V26.188C6.13827 27.7438 4.8761 29.0051 3.31913 29.0051C1.76217 29.0051 0.5 27.7438 0.5 26.188V9.28523Z" fill="#000428"/>
<path d="M937.862 9.28523C937.862 7.72938 939.124 6.46811 940.681 6.46811C942.238 6.46811 943.5 7.72938 943.5 9.28523V26.188C943.5 27.7438 942.238 29.0051 940.681 29.0051C939.124 29.0051 937.862 27.7438 937.862 26.188V9.28523Z" fill="#000428"/>
<path d="M13.8934 138.276C11.3674 138.276 9.41282 137.584 8.02956 136.202C6.64631 134.82 5.95468 132.807 5.95468 130.162V100.323C5.95468 97.7391 6.61624 95.7558 7.93935 94.3736C9.32261 92.9913 11.2772 92.3002 13.8031 92.3002C16.3291 92.3002 18.2536 92.9913 19.5767 94.3736C20.8998 95.7558 21.5614 97.7391 21.5614 100.323V105.281L20.5691 100.864C21.832 98.2199 23.6964 96.1164 26.1622 94.5539C28.6882 92.9312 31.6652 92.1199 35.0932 92.1199C38.3409 92.1199 41.1074 92.9012 43.3928 94.4637C45.7383 96.0263 47.4222 98.4002 48.4447 101.585H47.1817C48.5649 98.6406 50.6398 96.3268 53.4063 94.644C56.1728 92.9613 59.2401 92.1199 62.608 92.1199C66.0962 92.1199 68.9529 92.811 71.1781 94.1933C73.4034 95.5154 75.0573 97.6189 76.1398 100.504C77.2825 103.328 77.8539 106.904 77.8539 111.231V130.162C77.8539 132.807 77.1322 134.82 75.6888 136.202C74.3055 137.584 72.3208 138.276 69.7347 138.276C67.2088 138.276 65.2542 137.584 63.871 136.202C62.4877 134.82 61.7961 132.807 61.7961 130.162V111.682C61.7961 109.098 61.4052 107.235 60.6233 106.093C59.8415 104.951 58.5484 104.38 56.7442 104.38C54.5189 104.38 52.8049 105.161 51.6021 106.724C50.4594 108.286 49.8881 110.51 49.8881 113.395V130.162C49.8881 132.807 49.1964 134.82 47.8132 136.202C46.4299 137.584 44.4452 138.276 41.8592 138.276C39.2731 138.276 37.2884 137.584 35.9052 136.202C34.5219 134.82 33.8303 132.807 33.8303 130.162V111.682C33.8303 109.098 33.4394 107.235 32.6575 106.093C31.8757 104.951 30.5826 104.38 28.7784 104.38C26.6133 104.38 24.9293 105.161 23.7265 106.724C22.5838 108.286 22.0125 110.51 22.0125 113.395V130.162C22.0125 135.571 19.3061 138.276 13.8934 138.276Z" fill="#000428"/>
<path d="M108.647 138.456C103.235 138.456 98.5435 137.524 94.5741 135.661C90.6649 133.738 87.6579 131.034 85.5529 127.548C83.448 124.062 82.3955 119.946 82.3955 115.198C82.3955 110.63 83.3878 106.634 85.3725 103.208C87.4173 99.7224 90.1838 97.0179 93.672 95.0948C97.2204 93.1115 101.25 92.1199 105.76 92.1199C109.068 92.1199 112.075 92.6608 114.782 93.7425C117.488 94.7642 119.803 96.2967 121.728 98.3401C123.653 100.323 125.096 102.727 126.058 105.552C127.081 108.377 127.592 111.532 127.592 115.017C127.592 116.219 127.261 117.121 126.599 117.722C125.938 118.263 124.885 118.533 123.442 118.533H95.8371V110.961H115.864L114.421 112.133C114.421 109.909 114.12 108.106 113.519 106.724C112.917 105.342 112.015 104.29 110.812 103.569C109.67 102.847 108.226 102.487 106.482 102.487C104.618 102.487 102.994 102.938 101.611 103.839C100.288 104.68 99.2652 105.943 98.5435 107.625C97.8218 109.308 97.4609 111.412 97.4609 113.936V114.747C97.4609 119.014 98.3931 122.079 100.257 123.942C102.182 125.745 105.129 126.647 109.098 126.647C110.421 126.647 111.925 126.496 113.609 126.196C115.353 125.835 117.007 125.354 118.571 124.753C120.134 124.152 121.487 124.062 122.63 124.483C123.773 124.844 124.645 125.505 125.246 126.466C125.908 127.368 126.269 128.419 126.329 129.621C126.389 130.763 126.118 131.905 125.517 133.047C124.916 134.129 123.923 134.97 122.54 135.571C120.435 136.533 118.18 137.254 115.774 137.735C113.428 138.216 111.053 138.456 108.647 138.456Z" fill="#000428"/>
<path d="M139.742 138.276C137.216 138.276 135.262 137.584 133.878 136.202C132.495 134.82 131.804 132.807 131.804 130.162V81.212C131.804 78.5676 132.495 76.5543 133.878 75.1721C135.262 73.7898 137.216 73.0987 139.742 73.0987C142.328 73.0987 144.313 73.7898 145.696 75.1721C147.14 76.5543 147.861 78.5676 147.861 81.212V100.864H146.418C147.861 98.0396 149.906 95.876 152.552 94.3736C155.259 92.8711 158.326 92.1199 161.754 92.1199C165.302 92.1199 168.219 92.811 170.505 94.1933C172.79 95.5154 174.504 97.6189 175.647 100.504C176.789 103.328 177.361 106.904 177.361 111.231V130.162C177.361 132.807 176.669 134.82 175.286 136.202C173.903 137.584 171.918 138.276 169.332 138.276C166.746 138.276 164.761 137.584 163.378 136.202C161.995 134.82 161.303 132.807 161.303 130.162V111.862C161.303 109.158 160.822 107.235 159.86 106.093C158.958 104.951 157.604 104.38 155.8 104.38C153.394 104.38 151.47 105.161 150.026 106.724C148.583 108.226 147.861 110.27 147.861 112.854V130.162C147.861 135.571 145.155 138.276 139.742 138.276Z" fill="#000428"/>
<path d="M191.925 138.276C189.399 138.276 187.445 137.584 186.061 136.202C184.678 134.82 183.986 132.807 183.986 130.162V100.323C183.986 97.7391 184.648 95.7558 185.971 94.3736C187.354 92.9913 189.309 92.3002 191.835 92.3002C194.361 92.3002 196.285 92.9913 197.609 94.3736C198.932 95.7558 199.593 97.7391 199.593 100.323V105.281L198.601 100.864C199.864 98.2199 201.728 96.1164 204.194 94.5539C206.72 92.9312 209.697 92.1199 213.125 92.1199C216.373 92.1199 219.139 92.9012 221.425 94.4637C223.77 96.0263 225.454 98.4002 226.476 101.585H225.213C226.597 98.6406 228.672 96.3268 231.438 94.644C234.205 92.9613 237.272 92.1199 240.64 92.1199C244.128 92.1199 246.985 92.811 249.21 94.1933C251.435 95.5154 253.089 97.6189 254.172 100.504C255.314 103.328 255.886 106.904 255.886 111.231V130.162C255.886 132.807 255.164 134.82 253.721 136.202C252.337 137.584 250.353 138.276 247.767 138.276C245.241 138.276 243.286 137.584 241.903 136.202C240.519 134.82 239.828 132.807 239.828 130.162V111.682C239.828 109.098 239.437 107.235 238.655 106.093C237.873 104.951 236.58 104.38 234.776 104.38C232.551 104.38 230.837 105.161 229.634 106.724C228.491 108.286 227.92 110.51 227.92 113.395V130.162C227.92 132.807 227.228 134.82 225.845 136.202C224.462 137.584 222.477 138.276 219.891 138.276C217.305 138.276 215.32 137.584 213.937 136.202C212.554 134.82 211.862 132.807 211.862 130.162V111.682C211.862 109.098 211.471 107.235 210.689 106.093C209.907 104.951 208.614 104.38 206.81 104.38C204.645 104.38 202.961 105.161 201.758 106.724C200.616 108.286 200.044 110.51 200.044 113.395V130.162C200.044 135.571 197.338 138.276 191.925 138.276Z" fill="#000428"/>
<path d="M286.679 138.456C281.266 138.456 276.575 137.524 272.606 135.661C268.697 133.738 265.69 131.034 263.585 127.548C261.48 124.062 260.427 119.946 260.427 115.198C260.427 110.63 261.42 106.634 263.404 103.208C265.449 99.7224 268.216 97.0179 271.704 95.0948C275.252 93.1115 279.282 92.1199 283.792 92.1199C287.1 92.1199 290.107 92.6608 292.813 93.7425C295.52 94.7642 297.835 96.2967 299.76 98.3401C301.684 100.323 303.128 102.727 304.09 105.552C305.112 108.377 305.624 111.532 305.624 115.017C305.624 116.219 305.293 117.121 304.631 117.722C303.97 118.263 302.917 118.533 301.474 118.533H273.869V110.961H293.896L292.453 112.133C292.453 109.909 292.152 108.106 291.551 106.724C290.949 105.342 290.047 104.29 288.844 103.569C287.701 102.847 286.258 102.487 284.514 102.487C282.65 102.487 281.026 102.938 279.642 103.839C278.319 104.68 277.297 105.943 276.575 107.625C275.854 109.308 275.493 111.412 275.493 113.936V114.747C275.493 119.014 276.425 122.079 278.289 123.942C280.214 125.745 283.161 126.647 287.13 126.647C288.453 126.647 289.957 126.496 291.641 126.196C293.385 125.835 295.039 125.354 296.602 124.753C298.166 124.152 299.519 124.062 300.662 124.483C301.805 124.844 302.677 125.505 303.278 126.466C303.94 127.368 304.3 128.419 304.361 129.621C304.421 130.763 304.15 131.905 303.549 133.047C302.947 134.129 301.955 134.97 300.572 135.571C298.467 136.533 296.211 137.254 293.806 137.735C291.46 138.216 289.085 138.456 286.679 138.456Z" fill="#000428"/>
<path d="M332.758 138.456C328.247 138.456 324.518 137.765 321.571 136.382C318.685 135 316.52 132.927 315.076 130.162C313.633 127.338 312.911 123.822 312.911 119.615V104.921H309.844C307.919 104.921 306.416 104.41 305.333 103.388C304.311 102.367 303.8 100.894 303.8 98.9711C303.8 97.048 304.311 95.6056 305.333 94.644C306.416 93.6223 307.919 93.1115 309.844 93.1115H312.911V87.5223C312.911 84.878 313.603 82.8647 314.986 81.4824C316.369 80.1002 318.354 79.409 320.94 79.409C323.526 79.409 325.511 80.1002 326.894 81.4824C328.277 82.8647 328.969 84.878 328.969 87.5223V93.1115H336.366C338.351 93.1115 339.854 93.6223 340.877 94.644C341.959 95.6056 342.501 97.048 342.501 98.9711C342.501 100.894 341.959 102.367 340.877 103.388C339.854 104.41 338.351 104.921 336.366 104.921H328.969V119.074C328.969 121.298 329.48 122.95 330.502 124.032C331.585 125.054 333.269 125.565 335.554 125.565C336.396 125.565 337.208 125.475 337.99 125.294C338.772 125.114 339.494 125.024 340.155 125.024C341.117 124.964 341.899 125.264 342.501 125.925C343.102 126.526 343.403 127.939 343.403 130.162C343.403 131.965 343.132 133.498 342.591 134.76C342.05 135.962 341.087 136.833 339.704 137.374C338.862 137.675 337.719 137.915 336.276 138.095C334.833 138.336 333.66 138.456 332.758 138.456Z" fill="#000428"/>
<path d="M384.43 152.519C378.596 152.519 373.243 151.587 368.372 149.724C363.5 147.861 359.29 145.217 355.742 141.791C352.194 138.366 349.457 134.309 347.533 129.621C345.608 124.874 344.646 119.615 344.646 113.846C344.646 107.655 345.608 102.066 347.533 97.078C349.517 92.0297 352.344 87.7026 356.013 84.0967C359.742 80.4908 364.162 77.7263 369.274 75.8031C374.386 73.88 380.069 72.9184 386.324 72.9184C393.661 72.9184 400.006 74.3307 405.359 77.1553C410.772 79.9199 414.982 83.8563 417.989 88.9647C420.996 94.013 422.499 99.9928 422.499 106.904C422.499 112.073 421.747 116.55 420.244 120.336C418.74 124.122 416.635 127.067 413.929 129.171C411.283 131.214 408.155 132.236 404.547 132.236C400.818 132.236 397.811 131.274 395.526 129.351C393.3 127.368 391.917 124.543 391.376 120.877L395.436 118.263C393.992 122.95 391.887 126.466 389.121 128.81C386.354 131.094 383.227 132.236 379.739 132.236C374.687 132.236 370.778 130.673 368.011 127.548C365.305 124.363 363.951 120.096 363.951 114.747C363.951 110.36 364.763 106.483 366.387 103.118C368.071 99.6923 370.326 97.0179 373.153 95.0948C376.04 93.1115 379.348 92.1199 383.076 92.1199C386.204 92.1199 388.73 92.9012 390.654 94.4637C392.639 95.9662 394.052 98.31 394.894 101.495H392.729L393.361 98.0696C394.022 94.7041 396.127 93.0214 399.675 93.0214C401.6 93.0214 403.013 93.5622 403.915 94.644C404.818 95.6657 405.058 97.1682 404.637 99.1514L402.201 112.854C402.021 114.056 401.871 115.138 401.75 116.099C401.63 117.001 401.57 117.812 401.57 118.533C401.57 120.216 401.871 121.448 402.472 122.229C403.134 122.95 404.096 123.311 405.359 123.311C406.862 123.311 408.216 122.65 409.418 121.328C410.621 119.946 411.553 118.022 412.215 115.558C412.877 113.034 413.207 110.149 413.207 106.904C413.207 101.495 412.155 96.9578 410.05 93.2918C407.945 89.5657 404.878 86.7711 400.848 84.9081C396.879 82.9849 392.038 82.0233 386.324 82.0233C379.949 82.0233 374.416 83.3154 369.725 85.8997C365.034 88.4839 361.395 92.1499 358.809 96.8977C356.283 101.646 355.02 107.295 355.02 113.846C355.02 119.976 356.223 125.264 358.629 129.712C361.095 134.099 364.523 137.464 368.913 139.808C373.303 142.212 378.476 143.414 384.43 143.414C387.858 143.414 391.045 143.053 393.992 142.332C396.999 141.611 399.766 140.559 402.292 139.177C403.795 138.336 405.088 138.155 406.171 138.636C407.313 139.117 408.065 139.898 408.426 140.98C408.847 142.122 408.847 143.324 408.426 144.586C408.005 145.848 407.073 146.87 405.629 147.651C402.983 149.153 399.856 150.325 396.247 151.167C392.639 152.068 388.7 152.519 384.43 152.519ZM382.265 122.68C384.129 122.68 385.723 122.109 387.046 120.967C388.429 119.825 389.512 118.233 390.293 116.189C391.075 114.086 391.466 111.622 391.466 108.797C391.466 106.513 390.955 104.771 389.933 103.569C388.97 102.307 387.467 101.676 385.422 101.676C383.558 101.676 381.904 102.216 380.46 103.298C379.077 104.38 377.994 105.882 377.213 107.806C376.431 109.729 376.04 111.982 376.04 114.567C376.04 117.271 376.581 119.314 377.664 120.697C378.746 122.019 380.28 122.68 382.265 122.68Z" fill="#000428"/>
<path d="M436.491 138.276C433.965 138.276 432.011 137.584 430.627 136.202C429.244 134.82 428.553 132.807 428.553 130.162V81.212C428.553 78.5676 429.244 76.5543 430.627 75.1721C432.011 73.7898 433.965 73.0987 436.491 73.0987C439.077 73.0987 441.062 73.7898 442.445 75.1721C443.889 76.5543 444.61 78.5676 444.61 81.212V110.961H444.791L455.797 97.6189C457.3 95.8159 458.684 94.4938 459.946 93.6524C461.27 92.7509 463.044 92.3002 465.269 92.3002C467.494 92.3002 469.208 92.8411 470.411 93.9228C471.614 95.0046 472.245 96.3568 472.306 97.9795C472.366 99.6021 471.704 101.225 470.321 102.847L458.413 116.911V111.321L471.764 128.089C473.087 129.772 473.629 131.424 473.388 133.047C473.147 134.61 472.366 135.872 471.043 136.833C469.78 137.795 468.156 138.276 466.171 138.276C463.765 138.276 461.841 137.855 460.398 137.014C458.954 136.112 457.511 134.73 456.067 132.867L444.791 118.984H444.61V130.162C444.61 135.571 441.904 138.276 436.491 138.276Z" fill="#000428"/>
<path d="M500.023 138.456C495.091 138.456 490.791 137.524 487.122 135.661C483.454 133.798 480.597 131.124 478.552 127.638C476.507 124.152 475.485 120.036 475.485 115.288C475.485 111.682 476.056 108.467 477.199 105.642C478.342 102.757 479.995 100.323 482.161 98.3401C484.326 96.2967 486.912 94.7642 489.919 93.7425C492.926 92.6608 496.294 92.1199 500.023 92.1199C504.954 92.1199 509.254 93.0514 512.923 94.9145C516.592 96.7775 519.418 99.4519 521.403 102.938C523.448 106.363 524.47 110.48 524.47 115.288C524.47 118.834 523.899 122.049 522.756 124.934C521.613 127.818 519.959 130.282 517.794 132.326C515.689 134.309 513.103 135.842 510.036 136.923C507.029 137.945 503.691 138.456 500.023 138.456ZM500.023 126.647C501.646 126.647 503.09 126.256 504.353 125.475C505.616 124.633 506.578 123.401 507.24 121.779C507.961 120.096 508.322 117.932 508.322 115.288C508.322 111.261 507.54 108.377 505.977 106.634C504.413 104.831 502.428 103.929 500.023 103.929C498.399 103.929 496.955 104.32 495.692 105.101C494.429 105.882 493.437 107.114 492.715 108.797C491.994 110.42 491.633 112.583 491.633 115.288C491.633 119.254 492.415 122.139 493.978 123.942C495.542 125.745 497.557 126.647 500.023 126.647Z" fill="#000428"/>
<path d="M537.06 138.276C534.534 138.276 532.58 137.584 531.197 136.202C529.813 134.82 529.122 132.807 529.122 130.162V100.323C529.122 97.7391 529.783 95.7558 531.106 94.3736C532.49 92.9913 534.444 92.3002 536.97 92.3002C539.496 92.3002 541.421 92.9913 542.744 94.3736C544.067 95.7558 544.728 97.7391 544.728 100.323V104.56L543.736 100.864C545.179 98.0396 547.224 95.876 549.87 94.3736C552.577 92.8711 555.644 92.1199 559.072 92.1199C562.62 92.1199 565.537 92.811 567.823 94.1933C570.108 95.5154 571.822 97.6189 572.965 100.504C574.107 103.328 574.679 106.904 574.679 111.231V130.162C574.679 132.807 573.987 134.82 572.604 136.202C571.221 137.584 569.236 138.276 566.65 138.276C564.064 138.276 562.079 137.584 560.696 136.202C559.313 134.82 558.621 132.807 558.621 130.162V111.862C558.621 109.158 558.14 107.235 557.178 106.093C556.276 104.951 554.922 104.38 553.118 104.38C550.712 104.38 548.788 105.161 547.345 106.724C545.901 108.226 545.179 110.27 545.179 112.854V130.162C545.179 135.571 542.473 138.276 537.06 138.276Z" fill="#000428"/>
<path d="M597.723 138.456C593.874 138.456 590.717 137.765 588.251 136.382C585.785 134.94 583.921 132.807 582.658 129.982C581.455 127.157 580.853 123.581 580.853 119.254V100.323C580.853 97.679 581.545 95.6957 582.928 94.3736C584.312 92.9913 586.296 92.3002 588.882 92.3002C591.468 92.3002 593.453 92.9913 594.836 94.3736C596.22 95.6957 596.911 97.679 596.911 100.323V119.705C596.911 121.869 597.362 123.491 598.264 124.573C599.167 125.655 600.58 126.196 602.504 126.196C604.669 126.196 606.444 125.415 607.827 123.852C609.21 122.289 609.902 120.216 609.902 117.632V100.323C609.902 97.679 610.593 95.6957 611.977 94.3736C613.36 92.9913 615.345 92.3002 617.931 92.3002C620.517 92.3002 622.501 92.9913 623.885 94.3736C625.268 95.6957 625.96 97.679 625.96 100.323V130.162C625.96 135.571 623.373 138.276 618.201 138.276C615.675 138.276 613.721 137.584 612.338 136.202C610.954 134.82 610.263 132.807 610.263 130.162V124.934L611.706 129.351C610.383 132.296 608.518 134.549 606.113 136.112C603.767 137.675 600.971 138.456 597.723 138.456Z" fill="#000428"/>
<path d="M640.537 138.276C638.011 138.276 636.056 137.584 634.673 136.202C633.29 134.82 632.598 132.807 632.598 130.162V81.212C632.598 78.5676 633.29 76.5543 634.673 75.1721C636.056 73.7898 638.011 73.0987 640.537 73.0987C643.123 73.0987 645.107 73.7898 646.491 75.1721C647.934 76.5543 648.656 78.5676 648.656 81.212V110.961H648.836L659.842 97.6189C661.346 95.8159 662.729 94.4938 663.992 93.6524C665.315 92.7509 667.089 92.3002 669.314 92.3002C671.54 92.3002 673.254 92.8411 674.456 93.9228C675.659 95.0046 676.291 96.3568 676.351 97.9795C676.411 99.6021 675.749 101.225 674.366 102.847L662.458 116.911V111.321L675.81 128.089C677.133 129.772 677.674 131.424 677.433 133.047C677.193 134.61 676.411 135.872 675.088 136.833C673.825 137.795 672.201 138.276 670.216 138.276C667.811 138.276 665.886 137.855 664.443 137.014C662.999 136.112 661.556 134.73 660.113 132.867L648.836 118.984H648.656V130.162C648.656 135.571 645.949 138.276 640.537 138.276Z" fill="#000428"/>
<path d="M704.248 138.456C699.257 138.456 694.896 137.524 691.167 135.661C687.499 133.798 684.642 131.124 682.597 127.638C680.553 124.092 679.53 119.946 679.53 115.198C679.53 111.592 680.101 108.377 681.244 105.552C682.387 102.667 684.041 100.233 686.206 98.2499C688.431 96.2667 691.047 94.7642 694.054 93.7425C697.122 92.6608 700.52 92.1199 704.248 92.1199C705.992 92.1199 707.827 92.3002 709.751 92.6608C711.676 92.9613 713.66 93.5622 715.705 94.4637C717.149 95.0046 718.141 95.846 718.682 96.9879C719.284 98.0696 719.524 99.2416 719.404 100.504C719.344 101.766 718.983 102.908 718.321 103.929C717.72 104.951 716.848 105.642 715.705 106.003C714.623 106.363 713.39 106.213 712.007 105.552C711.044 105.071 710.022 104.741 708.939 104.56C707.917 104.32 706.925 104.2 705.962 104.2C704.339 104.2 702.895 104.44 701.632 104.921C700.429 105.402 699.407 106.123 698.565 107.084C697.723 107.986 697.061 109.128 696.58 110.51C696.159 111.892 695.949 113.455 695.949 115.198C695.949 118.683 696.821 121.418 698.565 123.401C700.309 125.384 702.775 126.376 705.962 126.376C706.925 126.376 707.917 126.286 708.939 126.106C709.962 125.865 710.984 125.505 712.007 125.024C713.39 124.363 714.623 124.243 715.705 124.663C716.788 125.024 717.66 125.715 718.321 126.737C718.983 127.758 719.344 128.9 719.404 130.162C719.464 131.364 719.193 132.536 718.592 133.678C717.991 134.76 716.968 135.571 715.525 136.112C713.54 137.014 711.586 137.615 709.661 137.915C707.797 138.276 705.992 138.456 704.248 138.456Z" fill="#000428"/>
<path d="M739.194 138.456C735.345 138.456 732.188 137.765 729.722 136.382C727.256 134.94 725.392 132.807 724.129 129.982C722.926 127.157 722.325 123.581 722.325 119.254V100.323C722.325 97.679 723.016 95.6957 724.399 94.3736C725.783 92.9913 727.767 92.3002 730.353 92.3002C732.94 92.3002 734.924 92.9913 736.307 94.3736C737.691 95.6957 738.382 97.679 738.382 100.323V119.705C738.382 121.869 738.833 123.491 739.736 124.573C740.638 125.655 742.051 126.196 743.976 126.196C746.141 126.196 747.915 125.415 749.298 123.852C750.681 122.289 751.373 120.216 751.373 117.632V100.323C751.373 97.679 752.065 95.6957 753.448 94.3736C754.831 92.9913 756.816 92.3002 759.402 92.3002C761.988 92.3002 763.973 92.9913 765.356 94.3736C766.739 95.6957 767.431 97.679 767.431 100.323V130.162C767.431 135.571 764.845 138.276 759.672 138.276C757.146 138.276 755.192 137.584 753.809 136.202C752.425 134.82 751.734 132.807 751.734 130.162V124.934L753.177 129.351C751.854 132.296 749.99 134.549 747.584 136.112C745.239 137.675 742.442 138.456 739.194 138.456Z" fill="#000428"/>
<path d="M781.647 138.005C778.94 138.005 776.775 137.194 775.152 135.571C773.588 133.949 772.806 131.815 772.806 129.171C772.806 126.586 773.588 124.513 775.152 122.95C776.775 121.328 778.94 120.516 781.647 120.516C784.474 120.516 786.639 121.328 788.142 122.95C789.706 124.513 790.488 126.586 790.488 129.171C790.488 131.815 789.706 133.949 788.142 135.571C786.639 137.194 784.474 138.005 781.647 138.005Z" fill="#000428"/>
<path d="M812.029 138.456C808.241 138.456 804.873 137.524 801.926 135.661C799.039 133.798 796.753 131.124 795.069 127.638C793.446 124.152 792.634 120.036 792.634 115.288C792.634 110.42 793.446 106.273 795.069 102.847C796.753 99.4219 799.039 96.7775 801.926 94.9145C804.873 93.0514 808.241 92.1199 812.029 92.1199C815.337 92.1199 818.314 92.9012 820.96 94.4637C823.607 96.0263 825.381 98.0396 826.283 100.504H825.291V81.212C825.291 78.5676 825.982 76.5543 827.365 75.1721C828.749 73.7898 830.733 73.0987 833.319 73.0987C835.845 73.0987 837.8 73.7898 839.183 75.1721C840.627 76.5543 841.348 78.5676 841.348 81.212V130.162C841.348 132.807 840.657 134.82 839.273 136.202C837.95 137.584 835.996 138.276 833.41 138.276C830.884 138.276 828.929 137.584 827.546 136.202C826.163 134.82 825.471 132.807 825.471 130.162V125.024L826.463 129.441C825.621 132.146 823.847 134.339 821.141 136.022C818.495 137.645 815.458 138.456 812.029 138.456ZM817.171 126.647C818.795 126.647 820.239 126.256 821.502 125.475C822.765 124.633 823.727 123.401 824.388 121.779C825.11 120.096 825.471 117.932 825.471 115.288C825.471 111.261 824.689 108.377 823.125 106.634C821.562 104.831 819.577 103.929 817.171 103.929C815.548 103.929 814.104 104.32 812.841 105.101C811.578 105.882 810.586 107.114 809.864 108.797C809.143 110.42 808.782 112.583 808.782 115.288C808.782 119.254 809.564 122.139 811.127 123.942C812.691 125.745 814.706 126.647 817.171 126.647Z" fill="#000428"/>
<path d="M872.121 138.456C866.709 138.456 862.018 137.524 858.048 135.661C854.139 133.738 851.132 131.034 849.027 127.548C846.922 124.062 845.87 119.946 845.87 115.198C845.87 110.63 846.862 106.634 848.847 103.208C850.891 99.7224 853.658 97.0179 857.146 95.0948C860.695 93.1115 864.724 92.1199 869.235 92.1199C872.542 92.1199 875.549 92.6608 878.256 93.7425C880.962 94.7642 883.278 96.2967 885.202 98.3401C887.127 100.323 888.57 102.727 889.532 105.552C890.555 108.377 891.066 111.532 891.066 115.017C891.066 116.219 890.735 117.121 890.074 117.722C889.412 118.263 888.36 118.533 886.916 118.533H859.311V110.961H879.338L877.895 112.133C877.895 109.909 877.594 108.106 876.993 106.724C876.391 105.342 875.489 104.29 874.286 103.569C873.144 102.847 871.7 102.487 869.956 102.487C868.092 102.487 866.468 102.938 865.085 103.839C863.762 104.68 862.739 105.943 862.018 107.625C861.296 109.308 860.935 111.412 860.935 113.936V114.747C860.935 119.014 861.867 122.079 863.732 123.942C865.656 125.745 868.603 126.647 872.572 126.647C873.896 126.647 875.399 126.496 877.083 126.196C878.827 125.835 880.481 125.354 882.045 124.753C883.608 124.152 884.962 124.062 886.104 124.483C887.247 124.844 888.119 125.505 888.72 126.466C889.382 127.368 889.743 128.419 889.803 129.621C889.863 130.763 889.592 131.905 888.991 133.047C888.39 134.129 887.397 134.97 886.014 135.571C883.909 136.533 881.654 137.254 879.248 137.735C876.903 138.216 874.527 138.456 872.121 138.456Z" fill="#000428"/>
<path d="M914.151 138.276C912.046 138.276 910.242 137.765 908.738 136.743C907.295 135.661 906.092 134.069 905.13 131.965L892.229 102.487C891.508 100.684 891.267 99.0012 891.508 97.4386C891.748 95.876 892.5 94.644 893.763 93.7425C895.086 92.781 896.89 92.3002 899.176 92.3002C901.1 92.3002 902.634 92.7509 903.777 93.6524C904.979 94.4938 906.062 96.1765 907.024 98.7007L916.136 122.139H913.069L922.631 98.6105C923.593 96.1465 924.676 94.4938 925.879 93.6524C927.081 92.7509 928.735 92.3002 930.84 92.3002C932.645 92.3002 934.088 92.781 935.171 93.7425C936.313 94.644 937.005 95.876 937.245 97.4386C937.486 99.0012 937.185 100.684 936.343 102.487L923.172 132.055C922.27 134.159 921.067 135.721 919.564 136.743C918.12 137.765 916.316 138.276 914.151 138.276Z" fill="#000428"/>
</svg>
