<svg width="400" height="400" viewBox="0 0 400 400" fill="none" xmlns="http://www.w3.org/2000/svg">
<path opacity="0.7" d="M54.344 133.672C54.344 133.672 32.04 191.272 63.384 249.272C94.728 307.272 159.288 337.912 210.96 364.112C262.632 390.312 316.288 377.552 341.784 334.64C367.28 291.728 332.312 261.096 332.264 199.904C332.216 138.712 341.424 122.512 308.264 70.816C275.104 19.12 193.816 7.67196 132.344 46.016C70.872 84.36 54.344 133.672 54.344 133.672Z" fill="white"/>
<path d="M55.2 345.328H224.152C224.832 344.24 225.52 343.152 226.224 342.088C244.4 314.424 273.504 294.696 305.288 285.44C319.528 281.296 334.952 278.832 346.392 269.392C358.168 259.688 363.576 244.2 365.912 229.12C368.752 210.864 367.216 190.392 354.824 176.688C340.272 160.6 315.888 158.792 296.928 148.248C264.296 130.088 251.648 88.736 221.96 66.08C203.2 51.768 177.888 46.224 155.2 49.36C123.048 53.816 92.8 75.36 83.72 106.96C81.1097 116.164 80.1775 125.762 80.968 135.296C82.416 154.136 86.472 173.216 82.648 191.72C78.432 212.112 65.168 229.32 57.24 248.592C47.368 272.592 46.04 299.472 50.224 325.056C51.3439 331.934 53.0077 338.713 55.2 345.328Z" fill="#92E3A9"/>
<path opacity="0.7" d="M55.2 345.328H224.152C224.832 344.24 225.52 343.152 226.224 342.088C244.4 314.424 273.504 294.696 305.288 285.44C319.528 281.296 334.952 278.832 346.392 269.392C358.168 259.688 363.576 244.2 365.912 229.12C368.752 210.864 367.216 190.392 354.824 176.688C340.272 160.6 315.888 158.792 296.928 148.248C264.296 130.088 251.648 88.736 221.96 66.08C203.2 51.768 177.888 46.224 155.2 49.36C123.048 53.816 92.8 75.36 83.72 106.96C81.1097 116.164 80.1775 125.762 80.968 135.296C82.416 154.136 86.472 173.216 82.648 191.72C78.432 212.112 65.168 229.32 57.24 248.592C47.368 272.592 46.04 299.472 50.224 325.056C51.3439 331.934 53.0077 338.713 55.2 345.328Z" fill="white"/>
<path d="M33.592 345.328H368.248" stroke="#263238" stroke-linecap="round" stroke-linejoin="round"/>
<path d="M223.2 90.712V78.152L213.792 77.352C213.242 75.3877 212.463 73.4948 211.472 71.712L217.544 64.512L208.664 55.632L201.464 61.704C199.696 60.7089 197.816 59.9274 195.864 59.376L195.064 49.968H182.4L181.6 59.376C179.648 59.9274 177.768 60.7089 176 61.704L168.8 55.632L159.92 64.512L165.992 71.712C165.001 73.4948 164.222 75.3877 163.672 77.352L154.264 78.152V90.712L163.672 91.512C164.225 93.4626 165.004 95.3419 165.992 97.112L159.92 104.312L168.8 113.192L176 107.12C177.768 108.115 179.648 108.897 181.6 109.448L182.4 118.856H194.96L195.76 109.448C197.725 108.897 199.619 108.116 201.4 107.12L208.6 113.192L217.48 104.312L211.408 97.112C212.397 95.3419 213.175 93.4626 213.728 91.512L223.2 90.712ZM188.72 99.024C185.834 99.024 183.013 98.1682 180.613 96.5648C178.213 94.9614 176.343 92.6825 175.239 90.0161C174.134 87.3498 173.845 84.4158 174.408 81.5853C174.971 78.7547 176.361 76.1546 178.402 74.1139C180.443 72.0732 183.043 70.6834 185.873 70.1204C188.704 69.5574 191.638 69.8463 194.304 70.9508C196.97 72.0552 199.249 73.9255 200.853 76.3251C202.456 78.7248 203.312 81.546 203.312 84.432C203.311 86.3507 202.932 88.2503 202.196 90.0223C201.46 91.7943 200.383 93.4039 199.024 94.7591C197.666 96.1143 196.054 97.1885 194.281 97.9203C192.507 98.6521 190.607 99.0272 188.688 99.024H188.72Z" stroke="#263238" stroke-linecap="round" stroke-linejoin="round"/>
<path d="M358.152 213.472V207.456L353.64 207.064C353.374 206.123 353.001 205.216 352.528 204.36L355.44 200.896L351.2 196.64L347.744 199.552C346.89 199.075 345.982 198.702 345.04 198.44L344.648 193.928H338.624L338.24 198.44C337.297 198.701 336.389 199.074 335.536 199.552L332.072 196.64L327.816 200.896L330.728 204.36C330.249 205.214 329.873 206.121 329.608 207.064L325.096 207.456V213.472L329.608 213.864C329.873 214.806 330.249 215.714 330.728 216.568L327.792 220L332.048 224.256L335.512 221.344C336.365 221.822 337.273 222.195 338.216 222.456L338.6 226.968H344.624L345.016 222.456C345.958 222.194 346.866 221.821 347.72 221.344L351.176 224.256L355.44 220L352.528 216.536C353.001 215.68 353.374 214.773 353.64 213.832L358.152 213.472ZM341.616 217.472C340.231 217.474 338.877 217.064 337.725 216.296C336.573 215.528 335.674 214.435 335.143 213.156C334.612 211.877 334.472 210.47 334.742 209.111C335.011 207.753 335.677 206.505 336.655 205.525C337.634 204.545 338.881 203.878 340.239 203.607C341.597 203.336 343.005 203.474 344.285 204.004C345.564 204.534 346.658 205.431 347.428 206.582C348.197 207.733 348.608 209.087 348.608 210.472C348.607 211.391 348.425 212.301 348.072 213.15C347.719 213.999 347.203 214.77 346.552 215.419C345.901 216.069 345.129 216.583 344.279 216.934C343.43 217.285 342.519 217.465 341.6 217.464L341.616 217.472Z" stroke="#263238" stroke-linecap="round" stroke-linejoin="round"/>
<path d="M353.6 103.84C354.239 101.075 354.15 98.192 353.343 95.4716C352.536 92.7511 351.038 90.2862 348.995 88.317C346.951 86.3479 344.433 84.9418 341.684 84.2357C338.936 83.5296 336.051 83.5476 333.312 84.2881C331.643 81.3286 329.062 78.9878 325.955 77.6144C322.847 76.2411 319.379 75.9088 316.067 76.667C312.755 77.4253 309.777 79.2335 307.577 81.8222C305.376 84.4108 304.071 87.6413 303.856 91.0321C302.115 90.699 300.323 90.7296 298.594 91.1217C296.865 91.5139 295.236 92.2592 293.809 93.3108C292.382 94.3625 291.187 95.6979 290.3 97.2331C289.414 98.7683 288.854 100.47 288.656 102.232C286.873 102.42 285.224 103.266 284.032 104.605C282.839 105.944 282.19 107.68 282.21 109.473C282.23 111.266 282.918 112.987 284.14 114.299C285.362 115.611 287.029 116.42 288.816 116.568H349.04C350.515 116.557 351.951 116.094 353.153 115.24C354.356 114.387 355.268 113.185 355.765 111.797C356.263 110.408 356.322 108.901 355.934 107.478C355.547 106.055 354.732 104.785 353.6 103.84Z" stroke="#263238" stroke-linecap="round" stroke-linejoin="round"/>
<path d="M320.504 111.064V127.664" stroke="#263238" stroke-linecap="round" stroke-linejoin="round"/>
<path d="M320.504 101.112V107.744" stroke="#263238" stroke-linecap="round" stroke-linejoin="round"/>
<path d="M320.504 94.9041V98.4561" stroke="#263238" stroke-linecap="round" stroke-linejoin="round"/>
<path d="M317.368 125.728L320.504 129.608L323.64 125.728" stroke="#263238" stroke-linecap="round" stroke-linejoin="round"/>
<path d="M170.112 298.52C170.749 295.755 170.659 292.872 169.851 290.151C169.042 287.431 167.543 284.967 165.499 282.998C163.456 281.029 160.937 279.623 158.189 278.917C155.44 278.211 152.556 278.228 149.816 278.968C148.149 276.006 145.568 273.664 142.46 272.289C139.352 270.915 135.882 270.582 132.569 271.342C129.257 272.102 126.279 273.912 124.08 276.503C121.88 279.095 120.579 282.328 120.368 285.72C119.577 285.569 118.773 285.491 117.968 285.488C114.803 285.486 111.748 286.649 109.387 288.757C107.026 290.864 105.524 293.767 105.168 296.912C103.385 297.099 101.735 297.944 100.543 299.282C99.3497 300.621 98.6992 302.356 98.7182 304.149C98.7372 305.942 99.4244 307.663 100.645 308.976C101.866 310.289 103.533 311.099 105.32 311.248H165.6C167.073 311.232 168.505 310.765 169.704 309.91C170.903 309.055 171.811 307.853 172.306 306.465C172.8 305.078 172.857 303.573 172.469 302.152C172.081 300.731 171.267 299.464 170.136 298.52H170.112Z" stroke="#263238" stroke-linecap="round" stroke-linejoin="round"/>
<path d="M136.992 308.12V291.528" stroke="#263238" stroke-linecap="round" stroke-linejoin="round"/>
<path d="M136.992 318.08V311.44" stroke="#263238" stroke-linecap="round" stroke-linejoin="round"/>
<path d="M136.992 324.288V320.736" stroke="#263238" stroke-linecap="round" stroke-linejoin="round"/>
<path d="M140.128 293.464L136.992 289.584L133.856 293.464" stroke="#263238" stroke-linecap="round" stroke-linejoin="round"/>
<path d="M42.784 87.92H243.944C244.844 87.92 245.706 88.2774 246.343 88.9135C246.979 89.5497 247.336 90.4124 247.336 91.312V100.8H39.392V91.312C39.392 90.4124 39.7494 89.5497 40.3855 88.9135C41.0216 88.2774 41.8844 87.92 42.784 87.92Z" fill="#92E3A9" stroke="#263238" stroke-linecap="round" stroke-linejoin="round"/>
<path d="M258.664 103.176H48.496V251.072H258.664V103.176Z" fill="white" stroke="#263238" stroke-linecap="round" stroke-linejoin="round"/>
<path d="M261.88 94.3521C261.88 94.985 261.692 95.6037 261.341 96.1299C260.989 96.6562 260.489 97.0663 259.905 97.3085C259.32 97.5507 258.676 97.6141 258.056 97.4906C257.435 97.3671 256.865 97.0624 256.417 96.6148C255.97 96.1673 255.665 95.5971 255.541 94.9764C255.418 94.3556 255.481 93.7122 255.724 93.1275C255.966 92.5428 256.376 92.043 256.902 91.6914C257.428 91.3398 258.047 91.1521 258.68 91.1521C259.529 91.1521 260.343 91.4892 260.943 92.0894C261.543 92.6895 261.88 93.5034 261.88 94.3521Z" fill="white" stroke="#263238" stroke-linecap="round" stroke-linejoin="round"/>
<path d="M250.552 94.3521C250.552 94.985 250.364 95.6037 250.013 96.1299C249.661 96.6562 249.161 97.0663 248.577 97.3085C247.992 97.5507 247.348 97.6141 246.728 97.4906C246.107 97.3671 245.537 97.0624 245.089 96.6148C244.642 96.1673 244.337 95.5971 244.213 94.9764C244.09 94.3556 244.153 93.7122 244.396 93.1275C244.638 92.5428 245.048 92.043 245.574 91.6914C246.1 91.3398 246.719 91.1521 247.352 91.1521C248.201 91.1521 249.015 91.4892 249.615 92.0894C250.215 92.6895 250.552 93.5034 250.552 94.3521Z" fill="white" stroke="#263238" stroke-linecap="round" stroke-linejoin="round"/>
<path d="M239.2 94.3521C239.2 94.985 239.012 95.6037 238.661 96.1299C238.309 96.6562 237.809 97.0663 237.225 97.3085C236.64 97.5507 235.996 97.6141 235.376 97.4906C234.755 97.3671 234.185 97.0624 233.737 96.6148C233.29 96.1673 232.985 95.5971 232.861 94.9764C232.738 94.3556 232.801 93.7122 233.044 93.1275C233.286 92.5428 233.696 92.043 234.222 91.6914C234.748 91.3398 235.367 91.1521 236 91.1521C236.849 91.1521 237.663 91.4892 238.263 92.0894C238.863 92.6895 239.2 93.5034 239.2 94.3521Z" fill="white" stroke="#263238" stroke-linecap="round" stroke-linejoin="round"/>
<path d="M252.296 109.52H243.976" stroke="#263238" stroke-width="2" stroke-linecap="round" stroke-linejoin="round"/>
<path d="M252.296 112.896H243.976" stroke="#263238" stroke-width="2" stroke-linecap="round" stroke-linejoin="round"/>
<path d="M252.296 116.272H243.976" stroke="#263238" stroke-width="2" stroke-linecap="round" stroke-linejoin="round"/>
<path d="M63.048 196.784H126.032" stroke="#263238" stroke-width="2" stroke-linecap="round" stroke-linejoin="round"/>
<path d="M63.048 201.752H126.032" stroke="#263238" stroke-width="2" stroke-linecap="round" stroke-linejoin="round"/>
<path d="M63.048 206.808H112.712" stroke="#263238" stroke-width="2" stroke-linecap="round" stroke-linejoin="round"/>
<path d="M196.608 104.84V105.241" stroke="#263238" stroke-linecap="round" stroke-linejoin="round"/>
<path d="M196.608 107.64V247.024" stroke="#263238" stroke-linecap="round" stroke-linejoin="round" stroke-dasharray="1 3"/>
<path d="M196.608 248.224V248.625" stroke="#263238" stroke-linecap="round" stroke-linejoin="round"/>
<path d="M51.024 217.904H51.425" stroke="#263238" stroke-linecap="round" stroke-linejoin="round"/>
<path d="M53.816 217.904H253.848" stroke="#263238" stroke-linecap="round" stroke-linejoin="round" stroke-dasharray="1 2.99"/>
<path d="M255.048 217.904H255.449" stroke="#263238" stroke-linecap="round" stroke-linejoin="round"/>
<path d="M197.992 216.52H195.232V219.28H197.992V216.52Z" fill="white" stroke="#263238" stroke-linecap="round" stroke-linejoin="round"/>
<path d="M185.592 191.392H148.744" stroke="#263238" stroke-linecap="round" stroke-linejoin="round"/>
<path d="M186.304 208.432C186.304 208.432 186.304 191.304 167.168 191.304C148.032 191.304 148 208.432 148 208.432" stroke="#263238" stroke-linecap="round" stroke-linejoin="round"/>
<path d="M186.304 210.048C187.196 210.048 187.92 209.325 187.92 208.432C187.92 207.54 187.196 206.816 186.304 206.816C185.412 206.816 184.688 207.54 184.688 208.432C184.688 209.325 185.412 210.048 186.304 210.048Z" fill="#92E3A9" stroke="#263238" stroke-linecap="round" stroke-linejoin="round"/>
<path d="M146.4 208.432C146.4 208.116 146.494 207.806 146.67 207.543C146.845 207.28 147.095 207.075 147.388 206.954C147.68 206.833 148.002 206.801 148.312 206.863C148.623 206.925 148.908 207.077 149.131 207.301C149.355 207.524 149.508 207.81 149.569 208.12C149.631 208.43 149.599 208.752 149.478 209.044C149.357 209.337 149.152 209.587 148.889 209.762C148.626 209.938 148.316 210.032 148 210.032C147.576 210.032 147.169 209.863 146.869 209.563C146.569 209.263 146.4 208.856 146.4 208.432Z" fill="#92E3A9" stroke="#263238" stroke-linecap="round" stroke-linejoin="round"/>
<path d="M184.888 192.72H187.72V189.888H184.888V192.72Z" fill="#92E3A9" stroke="#263238" stroke-linecap="round" stroke-linejoin="round"/>
<path d="M165.752 192.72H168.584V189.888H165.752V192.72Z" fill="#92E3A9" stroke="#263238" stroke-linecap="round" stroke-linejoin="round"/>
<path d="M146.616 192.72H149.448V189.888H146.616V192.72Z" fill="#92E3A9" stroke="#263238" stroke-linecap="round" stroke-linejoin="round"/>
<path d="M85.944 139.896V134.232L81.712 133.872C81.4608 132.987 81.1091 132.133 80.664 131.328L83.4 128.08L79.4 124.08L76.144 126.816C75.3415 126.365 74.4873 126.013 73.6 125.768L73.232 121.528H67.584L67.216 125.768C66.3309 126.012 65.4792 126.364 64.68 126.816L61.424 124.08L57.424 128.08L60.16 131.328C59.7115 132.132 59.3597 132.986 59.112 133.872L54.872 134.232V139.896L59.112 140.256C59.3611 141.142 59.7129 141.996 60.16 142.8L57.424 146.048L61.424 150.048L64.68 147.312C65.4741 147.763 66.3204 148.115 67.2 148.36L67.568 152.6H73.224L73.592 148.36C74.4765 148.114 75.328 147.762 76.128 147.312L79.384 150.048L83.384 146.048L80.648 142.8C81.0918 141.994 81.4433 141.141 81.696 140.256L85.944 139.896ZM70.4 143.64C69.0994 143.64 67.828 143.254 66.7466 142.532C65.6652 141.809 64.8223 140.782 64.3246 139.581C63.8268 138.379 63.6966 137.057 63.9504 135.781C64.2041 134.506 64.8304 133.334 65.7501 132.414C66.6697 131.494 67.8415 130.868 69.1171 130.614C70.3927 130.361 71.7149 130.491 72.9165 130.989C74.1181 131.486 75.1452 132.329 75.8677 133.411C76.5903 134.492 76.976 135.763 76.976 137.064C76.976 138.808 76.2832 140.481 75.0499 141.714C73.8167 142.947 72.1441 143.64 70.4 143.64Z" fill="#92E3A9" stroke="#263238" stroke-linecap="round" stroke-linejoin="round"/>
<path d="M105.176 152.584V148.712L102.272 148.456C102.105 147.851 101.866 147.268 101.56 146.72L103.432 144.496L100.688 141.76L98.464 143.632C97.9146 143.327 97.3321 143.085 96.728 142.912L96.48 140H92.608L92.352 142.904C91.7479 143.077 91.1654 143.319 90.616 143.624L88.392 141.752L85.648 144.488L87.528 146.712C87.2162 147.258 86.9743 147.841 86.808 148.448L83.904 148.704V152.576L86.808 152.824C86.9728 153.431 87.2148 154.014 87.528 154.56L85.648 156.8L88.392 159.536L90.616 157.664C91.1654 157.969 91.7479 158.211 92.352 158.384L92.608 161.28H96.48L96.728 158.384C97.3321 158.211 97.9146 157.969 98.464 157.664L100.688 159.536L103.432 156.8L101.6 154.568C101.907 154.021 102.146 153.438 102.312 152.832L105.176 152.584ZM94.544 155.144C93.6525 155.146 92.7806 154.883 92.0387 154.388C91.2968 153.894 90.7183 153.191 90.3764 152.367C90.0345 151.544 89.9446 150.638 90.1182 149.763C90.2917 148.889 90.7208 148.086 91.3512 147.455C91.9816 146.825 92.7848 146.396 93.6593 146.222C94.5337 146.049 95.44 146.138 96.2633 146.48C97.0866 146.822 97.79 147.401 98.2843 148.143C98.7786 148.885 99.0416 149.757 99.04 150.648C99.0379 151.84 98.5635 152.982 97.7208 153.825C96.8781 154.668 95.7358 155.142 94.544 155.144Z" fill="#92E3A9" stroke="#263238" stroke-linecap="round" stroke-linejoin="round"/>
<path d="M204.512 227.312H235.496" stroke="#263238" stroke-width="2" stroke-linecap="round" stroke-linejoin="round"/>
<path d="M204.512 232.28H235.496" stroke="#263238" stroke-width="2" stroke-linecap="round" stroke-linejoin="round"/>
<path d="M204.512 237.336H222.176" stroke="#263238" stroke-width="2" stroke-linecap="round" stroke-linejoin="round"/>
<path d="M163.688 239.4H147.376C146.315 239.4 145.298 238.979 144.548 238.228C143.797 237.478 143.376 236.461 143.376 235.4C143.376 234.339 143.797 233.322 144.548 232.572C145.298 231.821 146.315 231.4 147.376 231.4H163.688C164.749 231.4 165.766 231.821 166.516 232.572C167.267 233.322 167.688 234.339 167.688 235.4C167.688 236.461 167.267 237.478 166.516 238.228C165.766 238.979 164.749 239.4 163.688 239.4Z" fill="#92E3A9" stroke="#263238" stroke-linecap="round" stroke-linejoin="round"/>
<path d="M194.088 239.4H177.776C176.715 239.4 175.698 238.979 174.948 238.228C174.197 237.478 173.776 236.461 173.776 235.4C173.776 234.339 174.197 233.322 174.948 232.572C175.698 231.821 176.715 231.4 177.776 231.4H194.088C195.149 231.4 196.166 231.821 196.916 232.572C197.667 233.322 198.088 234.339 198.088 235.4C198.088 236.461 197.667 237.478 196.916 238.228C196.166 238.979 195.149 239.4 194.088 239.4Z" fill="#92E3A9" stroke="#263238" stroke-linecap="round" stroke-linejoin="round"/>
<path d="M241.368 153.576H206.776V188.168H241.368V153.576Z" fill="white" stroke="#263238" stroke-linecap="round" stroke-linejoin="round"/>
<path d="M206.776 153.576L241.368 188.168" stroke="#263238" stroke-linecap="round" stroke-linejoin="round"/>
<path d="M241.368 153.576L206.776 188.168" stroke="#263238" stroke-linecap="round" stroke-linejoin="round"/>
<path d="M220.344 114.304V122.376L216.784 125.936H208.712V114.304H220.344Z" fill="white" stroke="#263238" stroke-linecap="round" stroke-linejoin="round"/>
<path d="M220.344 122.376L216.784 125.936V122.376H220.344Z" fill="white" stroke="#263238" stroke-linecap="round" stroke-linejoin="round"/>
<path d="M96.64 176.728V184.8L93.08 188.368H85.008V176.728H96.64Z" fill="white" stroke="#263238" stroke-linecap="round" stroke-linejoin="round"/>
<path d="M96.64 184.8L93.08 188.368V184.8H96.64Z" fill="white" stroke="#263238" stroke-linecap="round" stroke-linejoin="round"/>
<path d="M52.688 226.464V234.536L49.128 238.096H41.048V226.464H52.688Z" fill="white" stroke="#263238" stroke-linecap="round" stroke-linejoin="round"/>
<path d="M52.688 234.536L49.128 238.096V234.536H52.688Z" fill="white" stroke="#263238" stroke-linecap="round" stroke-linejoin="round"/>
<path d="M278.936 133.024H236.008V159.928H278.936V133.024Z" fill="#263238" stroke="#263238" stroke-linecap="round" stroke-linejoin="round"/>
<path d="M278.936 133.024H236.008V137.112H278.936V133.024Z" fill="#92E3A9" stroke="#263238" stroke-linecap="round" stroke-linejoin="round"/>
<path d="M240.384 140.56H251.36" stroke="white" stroke-linecap="round" stroke-linejoin="round"/>
<path d="M245.872 143.624H264.864" stroke="white" stroke-linecap="round" stroke-linejoin="round"/>
<path d="M243.448 146.48H249.04" stroke="white" stroke-linecap="round" stroke-linejoin="round"/>
<path d="M245.872 149.848H258.664" stroke="white" stroke-linecap="round" stroke-linejoin="round"/>
<path d="M240.384 152.904H251.36" stroke="white" stroke-linecap="round" stroke-linejoin="round"/>
<path d="M117.488 241.272H74.56V268.176H117.488V241.272Z" fill="#263238" stroke="#263238" stroke-linecap="round" stroke-linejoin="round"/>
<path d="M117.488 241.272H74.56V245.36H117.488V241.272Z" fill="#92E3A9" stroke="#263238" stroke-linecap="round" stroke-linejoin="round"/>
<path d="M78.944 248.816H89.912" stroke="white" stroke-linecap="round" stroke-linejoin="round"/>
<path d="M84.424 251.872H103.416" stroke="white" stroke-linecap="round" stroke-linejoin="round"/>
<path d="M82 254.728H87.592" stroke="white" stroke-linecap="round" stroke-linejoin="round"/>
<path d="M84.424 258.096H97.216" stroke="white" stroke-linecap="round" stroke-linejoin="round"/>
<path d="M78.944 261.16H89.912" stroke="white" stroke-linecap="round" stroke-linejoin="round"/>
<path d="M133.6 46.4H94.16C93.6981 46.4021 93.2557 46.5865 92.9291 46.9132C92.6025 47.2398 92.4181 47.6821 92.416 48.144V66.544C92.4181 67.0052 92.6028 67.4467 92.9296 67.7721C93.2565 68.0974 93.6988 68.28 94.16 68.28H111.84L113.856 75.48L115.88 68.28H133.6C134.061 68.28 134.504 68.0974 134.83 67.7721C135.157 67.4467 135.342 67.0052 135.344 66.544V48.144C135.342 47.6821 135.157 47.2398 134.831 46.9132C134.504 46.5865 134.062 46.4021 133.6 46.4Z" fill="#92E3A9" stroke="#263238" stroke-linecap="round" stroke-linejoin="round"/>
<path d="M98.96 51.6641H128.76" stroke="#263238" stroke-width="2" stroke-linecap="round" stroke-linejoin="round"/>
<path d="M98.96 55.4401H128.76" stroke="#263238" stroke-width="2" stroke-linecap="round" stroke-linejoin="round"/>
<path d="M98.96 59.2161H128.76" stroke="#263238" stroke-width="2" stroke-linecap="round" stroke-linejoin="round"/>
<path d="M98.96 62.9921H121.416" stroke="#263238" stroke-width="2" stroke-linecap="round" stroke-linejoin="round"/>
<path d="M198.296 177.264C194.064 177.624 188.696 172.568 188.696 172.568C188.593 172.674 188.467 172.755 188.327 172.804C188.188 172.853 188.039 172.869 187.892 172.85C187.745 172.832 187.605 172.779 187.482 172.697C187.359 172.614 187.257 172.505 187.184 172.376C186.496 171.384 183.512 169.088 183.344 167.104C183.176 165.12 186.696 161.904 186.696 161.904C183.984 162.64 183.696 161.048 183.696 161.048C183.696 161.048 188.264 157.28 189.864 157.176C190.488 157.136 193.208 158.704 195.84 160.816C198.592 163.032 203.76 170.832 203.76 170.832C203.76 170.832 221.24 183.528 225.656 186.776C231.488 191.064 238.4 198.672 238.4 198.672C238.4 198.672 261.6 209.136 268 214.888L259.344 235.384C259.344 235.384 238.248 221.248 236.144 217.664C234.04 214.08 231.928 216.232 229.816 213.888C227.704 211.544 225.68 208.864 225.68 208.864C221.924 207.05 218.515 204.592 215.608 201.6C210.68 196.536 206.336 188.8 203.608 184.144C202.196 181.595 200.405 179.275 198.296 177.264Z" fill="white" stroke="#263238" stroke-linecap="round" stroke-linejoin="round"/>
<path d="M199.584 174.272C199.584 174.272 193.288 172.744 192.744 168.592C192.504 167.539 192.043 166.55 191.392 165.688C191.392 165.688 185.52 165.4 185.888 163.008L193.728 162.312C196.582 163.408 198.985 165.431 200.552 168.056" fill="white"/>
<path d="M199.584 174.272C199.584 174.272 193.288 172.744 192.744 168.592C192.504 167.539 192.043 166.55 191.392 165.688C191.392 165.688 185.52 165.4 185.888 163.008L193.728 162.312C196.582 163.408 198.985 165.431 200.552 168.056" stroke="#263238" stroke-linecap="round" stroke-linejoin="round"/>
<path d="M188.688 172.568C188.967 172.049 189.06 171.451 188.952 170.872C188.952 170.872 190.68 170.552 190.488 169.024C190.488 169.024 193.048 168.712 191.392 165.688" stroke="#263238" stroke-linecap="round" stroke-linejoin="round"/>
<path d="M190.488 169.024C190.488 169.024 187.04 166.472 186.656 165.304" stroke="#263238" stroke-linecap="round" stroke-linejoin="round"/>
<path d="M188.952 170.872C188.952 170.872 185.28 168.632 185.216 167.328" stroke="#263238" stroke-linecap="round" stroke-linejoin="round"/>
<path d="M189.792 159.368C189.792 159.368 188.624 161.464 186.688 161.904" stroke="#263238" stroke-linecap="round" stroke-linejoin="round"/>
<path d="M189.208 160.184C189.822 160.505 190.401 160.888 190.936 161.328" stroke="#263238" stroke-linecap="round" stroke-linejoin="round"/>
<path d="M323.296 231.04C314.243 227.209 304.906 224.09 295.368 221.712C281.32 218.424 258.568 215.488 258.568 215.488C258.568 215.488 264.824 279.328 263.176 283.168C261.528 287.008 251.64 299.904 251.64 299.904C251.64 299.904 305.152 320.768 314.48 322.544C323.808 324.32 318.944 291.944 318.944 291.944C318.944 291.944 328.8 250.792 323.296 231.04Z" fill="#263238"/>
<path d="M304.088 224.184C304.088 224.184 305.36 226.584 302.016 227.84C293.352 231.04 284.12 228.216 285.104 224.824C285.48 223.528 287.624 224.824 287.504 220.024C287.445 219.284 287.247 218.562 286.92 217.896C286.309 216.598 285.572 215.363 284.72 214.208C283.795 212.923 282.805 211.687 281.752 210.504C281.752 210.504 295.504 201.704 305.704 210.504C305.688 210.464 301.896 212.384 304.088 224.184Z" fill="white" stroke="#263238" stroke-linecap="round" stroke-linejoin="round"/>
<path d="M321.128 337.888C315.712 346.688 288.232 350.856 273.232 350.464C258.232 350.072 215.072 329.664 212.144 325.312C209.432 321.312 202.768 308.056 213.04 300.048C213.912 299.375 214.837 298.776 215.808 298.256C222.84 294.448 269.608 306.456 269.608 306.456C269.608 306.456 272.504 304.624 273.568 304.76C276.832 305.176 279.168 307.816 285.76 309.696C290.376 311.016 302.976 305.944 311.024 310.304C311.917 310.781 312.741 311.379 313.472 312.08C320.992 319.264 326.536 329.064 321.128 337.888Z" fill="#92E3A9"/>
<mask id="mask0_13_680" style="mask-type:luminance" maskUnits="userSpaceOnUse" x="207" y="297" width="117" height="54">
<path d="M321.128 337.888C315.712 346.688 288.232 350.856 273.232 350.464C258.232 350.072 215.072 329.664 212.144 325.312C209.432 321.312 202.768 308.056 213.04 300.048C213.912 299.375 214.837 298.776 215.808 298.256C222.84 294.448 269.608 306.456 269.608 306.456C269.608 306.456 272.504 304.624 273.568 304.76C276.832 305.176 279.168 307.816 285.76 309.696C290.376 311.016 302.976 305.944 311.024 310.304C311.917 310.781 312.741 311.379 313.472 312.08C320.992 319.264 326.536 329.064 321.128 337.888Z" fill="white"/>
</mask>
<g mask="url(#mask0_13_680)">
<path opacity="0.3" d="M311.024 310.304C302.776 309.752 295.424 311.48 290.288 314.512C284.2 318.112 255.448 331.96 255.448 331.96C255.512 330.472 257.112 327.472 257.112 327.472C254.408 325.072 247.336 323.192 247.336 323.192C241.856 318.512 220.136 304.552 213.04 300.048C213.912 299.375 214.837 298.776 215.808 298.256C222.84 294.448 269.608 306.456 269.608 306.456C269.608 306.456 272.504 304.624 273.568 304.76C276.832 305.176 279.168 307.816 285.76 309.696C290.4 311.016 302.976 305.944 311.024 310.304Z" fill="black" fill-opacity="0.7"/>
</g>
<path d="M321.128 337.888C315.712 346.688 288.232 350.856 273.232 350.464C258.232 350.072 215.072 329.664 212.144 325.312C209.432 321.312 202.768 308.056 213.04 300.048C213.912 299.375 214.837 298.776 215.808 298.256C222.84 294.448 269.608 306.456 269.608 306.456C269.608 306.456 272.504 304.624 273.568 304.76C276.832 305.176 279.168 307.816 285.76 309.696C290.376 311.016 302.976 305.944 311.024 310.304C311.917 310.781 312.741 311.379 313.472 312.08C320.992 319.264 326.536 329.064 321.128 337.888Z" stroke="#263238" stroke-linecap="round" stroke-linejoin="round"/>
<path d="M312.696 345.856L313.384 348.872C313.384 348.872 311.544 354.088 303.456 354.944C295.368 355.8 290.576 357.584 286.656 357.816C284.607 357.978 282.547 357.945 280.504 357.72L279.704 356.536L312.696 345.856Z" fill="white" stroke="#263238" stroke-linecap="round" stroke-linejoin="round"/>
<path d="M265.728 345.536L279.744 356.536C286.499 355.959 293.212 354.954 299.84 353.528C306.48 351.992 312.28 349.792 312.592 346.768C313.08 342.176 308.168 340.92 302.336 341.096C301.248 341.096 300.128 341.208 299 341.32C289.664 342.32 277.792 337.168 277.792 337.168L265.728 345.536Z" fill="#263238"/>
<mask id="mask1_13_680" style="mask-type:luminance" maskUnits="userSpaceOnUse" x="265" y="337" width="48" height="20">
<path d="M265.728 345.536L279.744 356.536C286.499 355.959 293.212 354.954 299.84 353.528C306.48 351.992 312.28 349.792 312.592 346.768C313.08 342.176 308.168 340.92 302.336 341.096C301.248 341.096 300.128 341.208 299 341.32C289.664 342.32 277.792 337.168 277.792 337.168L265.728 345.536Z" fill="white"/>
</mask>
<g mask="url(#mask1_13_680)">
<path opacity="0.3" d="M312.6 346.656C309.879 347.668 307.268 348.955 304.808 350.496C304.808 350.496 291.792 357.192 271.784 350.296L265.728 345.536L277.792 337.16C277.792 337.16 289.656 342.32 299 341.312C300.128 341.192 301.248 341.112 302.336 341.088C308.128 340.912 313 342.144 312.6 346.656Z" fill="black" fill-opacity="0.7"/>
</g>
<path d="M265.728 345.536L279.744 356.536C286.499 355.959 293.212 354.954 299.84 353.528C306.48 351.992 312.28 349.792 312.592 346.768C313.08 342.176 308.168 340.92 302.336 341.096C301.248 341.096 300.128 341.208 299 341.32C289.664 342.32 277.792 337.168 277.792 337.168L265.728 345.536Z" stroke="#263238" stroke-linecap="round" stroke-linejoin="round"/>
<path d="M278.792 349.872C276.264 350.28 279.04 355.472 282.464 353.872C285.888 352.272 281.32 349.456 278.792 349.872Z" fill="white"/>
<mask id="mask2_13_680" style="mask-type:luminance" maskUnits="userSpaceOnUse" x="277" y="349" width="7" height="6">
<path d="M278.792 349.872C276.264 350.28 279.04 355.472 282.464 353.872C285.888 352.272 281.32 349.456 278.792 349.872Z" fill="white"/>
</mask>
<g mask="url(#mask2_13_680)">
<path opacity="0.2" d="M283.536 353.048C281.705 352.825 279.886 352.507 278.088 352.096C277.608 351.08 277.72 350.04 278.792 349.872C280.912 349.52 284.48 351.48 283.536 353.048Z" fill="black" fill-opacity="0.7"/>
</g>
<path d="M278.792 349.872C276.264 350.28 279.04 355.472 282.464 353.872C285.888 352.272 281.32 349.456 278.792 349.872Z" stroke="#263238" stroke-linecap="round" stroke-linejoin="round"/>
<path d="M299.84 353.52C306.48 351.984 312.28 349.784 312.592 346.76C313.08 342.168 308.168 340.912 302.336 341.088C302.08 341.336 296.424 346.8 299.84 353.52Z" fill="white"/>
<mask id="mask3_13_680" style="mask-type:luminance" maskUnits="userSpaceOnUse" x="298" y="341" width="15" height="13">
<path d="M299.84 353.52C306.48 351.984 312.28 349.784 312.592 346.76C313.08 342.168 308.168 340.912 302.336 341.088C302.08 341.336 296.424 346.8 299.84 353.52Z" fill="white"/>
</mask>
<g mask="url(#mask3_13_680)">
<path opacity="0.3" d="M312.6 346.656C309.879 347.668 307.268 348.955 304.808 350.496C303.054 351.307 301.217 351.921 299.328 352.328C297.088 346.168 302.096 341.32 302.336 341.088C308.128 340.912 313 342.144 312.6 346.656Z" fill="black" fill-opacity="0.7"/>
</g>
<path d="M299.84 353.52C306.48 351.984 312.28 349.784 312.592 346.76C313.08 342.168 308.168 340.912 302.336 341.088C302.08 341.336 296.424 346.8 299.84 353.52Z" stroke="#263238" stroke-linecap="round" stroke-linejoin="round"/>
<path d="M295.104 347.816H295.144C295.235 347.82 295.326 347.806 295.412 347.775C295.497 347.744 295.576 347.696 295.643 347.634C295.71 347.573 295.764 347.498 295.802 347.415C295.84 347.332 295.861 347.243 295.864 347.152C296.091 345.186 296.93 343.342 298.264 341.88C298.328 341.816 298.379 341.74 298.414 341.656C298.449 341.572 298.467 341.483 298.467 341.392C298.467 341.301 298.449 341.211 298.414 341.128C298.379 341.044 298.328 340.968 298.264 340.904C298.134 340.776 297.959 340.704 297.776 340.704C297.593 340.704 297.418 340.776 297.288 340.904C295.719 342.605 294.745 344.77 294.512 347.072C294.496 347.248 294.549 347.424 294.659 347.563C294.769 347.701 294.929 347.792 295.104 347.816Z" fill="white" stroke="#263238" stroke-linecap="round" stroke-linejoin="round"/>
<path d="M292.328 348H292.384C292.475 348.002 292.566 347.986 292.65 347.953C292.735 347.92 292.813 347.87 292.878 347.807C292.943 347.744 292.996 347.668 293.032 347.585C293.068 347.501 293.087 347.411 293.088 347.32C293.247 345.322 293.986 343.415 295.216 341.832C295.283 341.763 295.336 341.681 295.369 341.59C295.403 341.5 295.418 341.404 295.413 341.308C295.407 341.211 295.382 341.117 295.338 341.031C295.295 340.945 295.234 340.869 295.159 340.808C295.085 340.747 294.998 340.702 294.906 340.676C294.813 340.65 294.715 340.644 294.62 340.657C294.525 340.671 294.433 340.704 294.351 340.755C294.269 340.805 294.199 340.873 294.144 340.952C292.716 342.773 291.866 344.98 291.704 347.288C291.697 347.464 291.758 347.636 291.874 347.768C291.99 347.901 292.153 347.984 292.328 348Z" fill="white" stroke="#263238" stroke-linecap="round" stroke-linejoin="round"/>
<path d="M289.008 347.632C289.098 347.641 289.19 347.632 289.277 347.605C289.363 347.578 289.444 347.535 289.514 347.477C289.584 347.419 289.642 347.347 289.684 347.267C289.726 347.187 289.752 347.099 289.76 347.008C289.976 344.608 292.04 341.464 292.064 341.408C292.165 341.254 292.202 341.066 292.166 340.885C292.13 340.704 292.024 340.544 291.872 340.44C291.719 340.339 291.532 340.303 291.353 340.339C291.173 340.375 291.014 340.48 290.912 340.632C290.816 340.768 288.624 344.064 288.376 346.848C288.364 346.941 288.371 347.036 288.396 347.127C288.422 347.217 288.465 347.302 288.524 347.375C288.583 347.449 288.657 347.509 288.74 347.553C288.823 347.597 288.914 347.624 289.008 347.632Z" fill="white" stroke="#263238" stroke-linecap="round" stroke-linejoin="round"/>
<path d="M285.872 347.304C285.933 347.312 285.995 347.312 286.056 347.304C286.146 347.29 286.233 347.257 286.31 347.209C286.388 347.161 286.455 347.098 286.508 347.023C286.561 346.949 286.598 346.864 286.618 346.775C286.638 346.686 286.64 346.594 286.624 346.504C286.136 343.56 288.872 341.04 288.896 341.016C288.987 340.888 289.031 340.733 289.023 340.577C289.015 340.42 288.954 340.271 288.85 340.154C288.746 340.036 288.606 339.957 288.452 339.929C288.297 339.901 288.138 339.926 288 340C287.864 340.12 284.672 343.048 285.288 346.752C285.317 346.893 285.389 347.021 285.494 347.12C285.598 347.218 285.73 347.283 285.872 347.304Z" fill="white" stroke="#263238" stroke-linecap="round" stroke-linejoin="round"/>
<path d="M282.464 346.48C282.538 346.492 282.614 346.492 282.688 346.48C282.86 346.438 283.01 346.332 283.107 346.183C283.203 346.034 283.24 345.854 283.208 345.68C282.608 343.056 285.192 340.08 285.224 340.08C285.344 339.941 285.404 339.761 285.392 339.579C285.38 339.396 285.297 339.225 285.16 339.104C285.092 339.043 285.014 338.996 284.928 338.966C284.842 338.936 284.751 338.923 284.66 338.928C284.57 338.934 284.481 338.957 284.399 338.996C284.317 339.036 284.244 339.092 284.184 339.16C284.056 339.304 281.096 342.688 281.856 346.016C281.9 346.145 281.981 346.258 282.09 346.34C282.198 346.423 282.328 346.471 282.464 346.48Z" fill="white" stroke="#263238" stroke-linecap="round" stroke-linejoin="round"/>
<path d="M210.4 341.344L209.4 344.272C209.4 344.272 210.68 349.656 218.632 351.352C226.584 353.048 231.16 355.352 235 355.976C237.021 356.348 239.073 356.53 241.128 356.52L242.048 355.424L210.4 341.344Z" fill="white" stroke="#263238" stroke-linecap="round" stroke-linejoin="round"/>
<path d="M257.112 345.96L242.024 355.424C235.366 354.141 228.795 352.439 222.352 350.328C215.912 348.104 210.352 345.304 210.352 342.264C210.352 337.64 215.368 336.912 221.152 337.696C222.232 337.84 223.336 338.04 224.448 338.272C233.624 340.248 245.968 336.368 245.968 336.368L257.112 345.96Z" fill="#263238"/>
<mask id="mask4_13_680" style="mask-type:luminance" maskUnits="userSpaceOnUse" x="210" y="336" width="48" height="20">
<path d="M257.112 345.96L242.024 355.424C235.366 354.141 228.795 352.439 222.352 350.328C215.912 348.104 210.352 345.304 210.352 342.264C210.352 337.64 215.368 336.912 221.152 337.696C222.232 337.84 223.336 338.04 224.448 338.272C233.624 340.248 245.968 336.368 245.968 336.368L257.112 345.96Z" fill="white"/>
</mask>
<g mask="url(#mask4_13_680)">
<path opacity="0.3" d="M257.112 345.96L248.24 351.56C241.046 349.326 234.737 344.884 230.208 338.864C235.556 338.747 240.864 337.915 245.992 336.392L257.112 345.96Z" fill="black" fill-opacity="0.7"/>
</g>
<path d="M257.112 345.96L242.024 355.424C235.366 354.141 228.795 352.439 222.352 350.328C215.912 348.104 210.352 345.304 210.352 342.264C210.352 337.64 215.368 336.912 221.152 337.696C222.232 337.84 223.336 338.04 224.448 338.272C233.624 340.248 245.968 336.368 245.968 336.368L257.112 345.96Z" stroke="#263238" stroke-linecap="round" stroke-linejoin="round"/>
<path d="M222.352 350.32C215.912 348.096 210.352 345.296 210.352 342.256C210.352 337.632 215.368 336.904 221.152 337.688C221.408 337.96 226.456 344 222.352 350.32Z" fill="white" stroke="#263238" stroke-linecap="round" stroke-linejoin="round"/>
<path d="M227.664 345.144H227.624C227.44 345.132 227.268 345.048 227.146 344.91C227.023 344.772 226.959 344.592 226.968 344.408C226.955 342.433 226.32 340.513 225.152 338.92C225.084 338.85 225.031 338.767 224.998 338.675C224.964 338.583 224.95 338.486 224.957 338.389C224.963 338.291 224.99 338.196 225.035 338.11C225.081 338.024 225.144 337.948 225.221 337.888C225.297 337.827 225.386 337.784 225.48 337.76C225.575 337.736 225.673 337.732 225.77 337.749C225.866 337.766 225.957 337.802 226.038 337.856C226.119 337.911 226.188 337.981 226.24 338.064C227.62 339.911 228.362 342.158 228.352 344.464C228.35 344.645 228.276 344.818 228.148 344.945C228.019 345.073 227.845 345.144 227.664 345.144Z" fill="white" stroke="#263238" stroke-linecap="round" stroke-linejoin="round"/>
<path d="M230.4 345.6H230.336C230.153 345.584 229.983 345.495 229.865 345.354C229.746 345.214 229.688 345.031 229.704 344.848C229.761 342.848 229.23 340.876 228.176 339.176C228.123 339.1 228.086 339.015 228.067 338.925C228.047 338.835 228.046 338.742 228.062 338.652C228.078 338.561 228.112 338.474 228.162 338.397C228.212 338.319 228.276 338.253 228.352 338.2C228.428 338.147 228.513 338.11 228.603 338.091C228.693 338.071 228.786 338.069 228.876 338.086C228.967 338.102 229.054 338.136 229.131 338.186C229.209 338.236 229.275 338.3 229.328 338.376C230.564 340.335 231.177 342.622 231.088 344.936C231.08 345.114 231.004 345.281 230.876 345.405C230.748 345.528 230.578 345.598 230.4 345.6Z" fill="white" stroke="#263238" stroke-linecap="round" stroke-linejoin="round"/>
<path d="M233.744 345.6C233.56 345.596 233.385 345.52 233.257 345.388C233.128 345.257 233.056 345.08 233.056 344.896C233.104 342.456 231.376 339.152 231.352 339.12C231.267 338.955 231.251 338.764 231.306 338.587C231.362 338.41 231.484 338.263 231.648 338.176C231.811 338.092 232.002 338.075 232.177 338.131C232.352 338.186 232.499 338.309 232.584 338.472C232.664 338.616 234.496 342.12 234.448 344.92C234.444 345.103 234.368 345.277 234.236 345.405C234.104 345.532 233.927 345.602 233.744 345.6Z" fill="white" stroke="#263238" stroke-linecap="round" stroke-linejoin="round"/>
<path d="M236.896 345.6H236.712C236.535 345.55 236.385 345.431 236.295 345.271C236.206 345.111 236.183 344.921 236.232 344.744C237.032 341.872 234.576 339.072 234.552 339.048C234.483 338.982 234.428 338.902 234.39 338.814C234.353 338.725 234.335 338.63 234.336 338.534C234.338 338.438 234.359 338.344 234.399 338.256C234.438 338.169 234.496 338.091 234.567 338.027C234.638 337.962 234.722 337.914 234.813 337.884C234.904 337.853 235 337.842 235.096 337.851C235.191 337.86 235.284 337.888 235.368 337.935C235.452 337.981 235.526 338.044 235.584 338.12C235.704 338.256 238.576 341.504 237.568 345.12C237.521 345.261 237.43 345.383 237.31 345.469C237.189 345.555 237.044 345.601 236.896 345.6Z" fill="white" stroke="#263238" stroke-linecap="round" stroke-linejoin="round"/>
<path d="M240.376 345.144C240.299 345.147 240.223 345.133 240.152 345.104C240.065 345.076 239.984 345.031 239.915 344.971C239.846 344.911 239.789 344.838 239.749 344.756C239.708 344.674 239.685 344.584 239.68 344.493C239.675 344.402 239.689 344.31 239.72 344.224C240.592 341.68 238.328 338.456 238.312 338.424C238.246 338.351 238.197 338.265 238.167 338.172C238.137 338.078 238.127 337.979 238.138 337.882C238.149 337.784 238.181 337.69 238.23 337.606C238.28 337.521 238.347 337.448 238.427 337.391C238.507 337.335 238.599 337.296 238.695 337.276C238.791 337.257 238.89 337.259 238.986 337.281C239.081 337.303 239.171 337.345 239.25 337.404C239.328 337.463 239.393 337.538 239.44 337.624C239.552 337.776 242.136 341.456 241.04 344.688C240.989 344.823 240.898 344.939 240.78 345.02C240.661 345.102 240.52 345.145 240.376 345.144Z" fill="white" stroke="#263238" stroke-linecap="round" stroke-linejoin="round"/>
<path d="M243.664 348.896C246.136 349.576 242.864 354.416 239.592 352.496C236.32 350.576 241.2 348.224 243.664 348.896Z" fill="white" stroke="#263238" stroke-linecap="round" stroke-linejoin="round"/>
<path d="M215.136 323.2C218.84 328.392 229.824 334.128 240.736 338.856C242.688 342.088 244.989 345.096 247.6 347.824C254.336 354.752 257.08 350.872 257.08 350.872C257.08 350.872 261.336 350.392 267.616 349.536C267.877 350.145 268.333 350.65 268.912 350.973C269.491 351.296 270.16 351.418 270.816 351.32C271.616 351.192 273.216 350.024 274.984 348.48C290.848 346.08 312.376 342.08 318.184 337.424" fill="#92E3A9"/>
<path d="M215.136 323.2C218.84 328.392 229.824 334.128 240.736 338.856C242.688 342.088 244.989 345.096 247.6 347.824C254.336 354.752 257.08 350.872 257.08 350.872C257.08 350.872 261.336 350.392 267.616 349.536C267.877 350.145 268.333 350.65 268.912 350.973C269.491 351.296 270.16 351.418 270.816 351.32C271.616 351.192 273.216 350.024 274.984 348.48C290.848 346.08 312.376 342.08 318.184 337.424" stroke="#263238" stroke-linecap="round" stroke-linejoin="round"/>
<path d="M312 313.312C309.256 310.296 306.512 310.16 300.752 310.568C300.752 310.568 285.72 315.368 275.232 321.68C264.744 327.992 249.448 334.688 249.448 334.688C249.448 334.688 244.784 333.336 241.536 334.688C241.536 334.688 239.256 334.864 240.784 338.848" stroke="#263238" stroke-linecap="round" stroke-linejoin="round"/>
<path d="M318.976 331.336C318.976 331.336 319.056 335.984 312.464 339.2" stroke="#263238" stroke-linecap="round" stroke-linejoin="round"/>
<path d="M246.272 311.944C246.272 311.944 256.672 319.464 258.76 324.424C260.804 325.285 262.778 326.304 264.664 327.472" stroke="#263238" stroke-linecap="round" stroke-linejoin="round"/>
<path d="M259.512 318.192C260.275 320.353 260.402 322.688 259.88 324.92" stroke="#263238" stroke-linecap="round" stroke-linejoin="round"/>
<path d="M257.112 313.312C257.679 314.136 258.176 315.006 258.6 315.912" stroke="#263238" stroke-linecap="round" stroke-linejoin="round"/>
<path d="M271.928 312.624C271.928 312.624 275.408 317.28 276.272 321.056" stroke="#263238" stroke-linecap="round" stroke-linejoin="round"/>
<path d="M291.312 340.752C292.606 340.676 293.894 340.516 295.168 340.272" stroke="#263238" stroke-linecap="round" stroke-linejoin="round"/>
<path d="M258.664 337.416C268.525 339.369 278.529 340.517 288.576 340.848" stroke="#263238" stroke-linecap="round" stroke-linejoin="round"/>
<path d="M329.056 266.872C329.056 266.872 327.176 299.672 324.96 301.552C322.744 303.432 319.248 304.016 312.632 304.568C306.016 305.12 276.752 306.912 276.752 306.912L273.6 297.512C273.6 297.512 289.16 295.912 296.064 293.392C301.269 291.612 306.595 290.206 312 289.184C312 289.184 310.688 280.936 310.688 277.384V260.68" fill="white"/>
<path d="M329.056 266.872C329.056 266.872 327.176 299.672 324.96 301.552C322.744 303.432 319.248 304.016 312.632 304.568C306.016 305.12 276.752 306.912 276.752 306.912L273.6 297.512C273.6 297.512 289.16 295.912 296.064 293.392C301.269 291.612 306.595 290.206 312 289.184C312 289.184 310.688 280.936 310.688 277.384V260.68" stroke="#263238" stroke-linecap="round" stroke-linejoin="round"/>
<path d="M323.296 231.04C330.424 235.432 332.528 245.584 330.064 267.256C330.064 267.256 332.168 269.816 329.056 271.096C329.056 271.096 317.4 266.736 311.984 269.744C306.568 272.752 307.984 265.592 307.984 265.592C307.984 265.592 305.752 245.656 310.688 242.048" fill="#263238"/>
<path d="M310.032 239C310.032 239 303.176 246.128 309.232 264.144C308.85 265.614 308.582 267.112 308.432 268.624C308.432 269.832 310.088 270.456 310.088 270.456" stroke="white" stroke-linecap="round" stroke-linejoin="round"/>
<path d="M302.016 251.072C302.016 251.072 302.512 259.872 307.968 263.688" stroke="white" stroke-linecap="round" stroke-linejoin="round"/>
<path d="M303.776 230.64C303.776 230.64 293.144 234.712 284.688 230.2C279.672 227.528 281.736 223.232 281.736 223.232" stroke="white" stroke-linecap="round" stroke-linejoin="round"/>
<path d="M227.32 313.328H285.192C286.499 313.328 287.801 313.159 289.064 312.824L300.48 309.832C300.638 309.791 300.778 309.699 300.878 309.57C300.978 309.441 301.032 309.283 301.032 309.12C301.032 308.923 300.954 308.733 300.814 308.594C300.675 308.454 300.485 308.376 300.288 308.376H224.928C224.732 308.378 224.545 308.457 224.407 308.597C224.269 308.736 224.192 308.924 224.192 309.12V310.2C224.192 311.03 224.522 311.825 225.108 312.412C225.695 312.998 226.49 313.328 227.32 313.328Z" fill="#757575" stroke="#263238" stroke-linecap="round" stroke-linejoin="round"/>
<path d="M221.6 310.448H279.632C279.859 310.458 280.086 310.412 280.291 310.314C280.496 310.215 280.673 310.068 280.807 309.884C280.941 309.7 281.027 309.485 281.058 309.26C281.089 309.035 281.064 308.805 280.984 308.592L270.224 266.728C270.08 266.214 269.779 265.758 269.363 265.424C268.947 265.09 268.437 264.894 267.904 264.864H209.856C209.628 264.855 209.402 264.902 209.197 265.002C208.992 265.101 208.815 265.25 208.681 265.434C208.548 265.619 208.461 265.833 208.431 266.059C208.4 266.285 208.425 266.514 208.504 266.728L219.272 308.592C219.416 309.107 219.718 309.563 220.136 309.896C220.554 310.229 221.066 310.422 221.6 310.448Z" fill="#999999" stroke="#263238" stroke-linecap="round" stroke-linejoin="round"/>
<path d="M211.904 266.352H210.808" stroke="#263238" stroke-linecap="round" stroke-linejoin="round"/>
<path d="M220.408 266.352H214.744" stroke="#263238" stroke-linecap="round" stroke-linejoin="round"/>
<path d="M278.224 305.16L268.72 268.216C268.577 267.703 268.278 267.247 267.863 266.913C267.448 266.579 266.94 266.383 266.408 266.352H221.688" stroke="#263238" stroke-linecap="round" stroke-linejoin="round"/>
<path d="M279.049 308.376L278.808 307.456" stroke="#263238" stroke-linecap="round" stroke-linejoin="round"/>
<path d="M239.048 288.712C239.087 289.051 239.157 289.386 239.256 289.712C239.992 292.232 242.352 293.768 244.52 293.128C246.688 292.488 247.848 289.928 247.112 287.408C246.376 284.888 244 283.352 241.832 283.992C241.579 284.07 241.335 284.174 241.104 284.304C241.223 285.159 241.093 286.03 240.728 286.812C240.363 287.594 239.78 288.254 239.048 288.712Z" fill="white" stroke="#263238" stroke-linecap="round" stroke-linejoin="round"/>
<path d="M264.664 210.256C259.64 209.712 256.904 204.936 253.88 204.192C252.193 203.788 250.54 203.253 248.936 202.592C248.936 202.592 247.896 198.96 246.336 200.192C244.776 201.424 242.728 228.592 244.736 227.736C246.744 226.88 246.752 230.088 246.752 230.088L265.4 246.52L281.032 218.84C281.032 218.84 269.688 210.808 264.664 210.256Z" fill="#263238"/>
<path d="M112.704 113.513V113.112H113.105" stroke="#263238" stroke-linecap="round" stroke-linejoin="round"/>
<path d="M115.456 113.112H183.136" stroke="#263238" stroke-linecap="round" stroke-linejoin="round" stroke-dasharray="0.98 2.93"/>
<path d="M184.304 113.112H184.705V113.513" stroke="#263238" stroke-linecap="round" stroke-linejoin="round"/>
<path d="M184.712 115.912V159.512" stroke="#263238" stroke-linecap="round" stroke-linejoin="round" stroke-dasharray="1 3"/>
<path d="M184.705 160.712V161.113H184.304" stroke="#263238" stroke-linecap="round" stroke-linejoin="round"/>
<path d="M181.96 161.112H114.28" stroke="#263238" stroke-linecap="round" stroke-linejoin="round" stroke-dasharray="0.98 2.93"/>
<path d="M113.105 161.113H112.704V160.712" stroke="#263238" stroke-linecap="round" stroke-linejoin="round"/>
<path d="M112.712 158.312V114.712" stroke="#263238" stroke-linecap="round" stroke-linejoin="round" stroke-dasharray="1 3"/>
<path d="M148.712 114.296C149.366 114.296 149.896 113.766 149.896 113.112C149.896 112.458 149.366 111.928 148.712 111.928C148.058 111.928 147.528 112.458 147.528 113.112C147.528 113.766 148.058 114.296 148.712 114.296Z" fill="#92E3A9" stroke="#263238" stroke-linecap="round" stroke-linejoin="round"/>
<path d="M112.712 138.296C113.366 138.296 113.896 137.766 113.896 137.112C113.896 136.458 113.366 135.928 112.712 135.928C112.058 135.928 111.528 136.458 111.528 137.112C111.528 137.766 112.058 138.296 112.712 138.296Z" fill="#92E3A9" stroke="#263238" stroke-linecap="round" stroke-linejoin="round"/>
<path d="M148.712 162.296C149.366 162.296 149.896 161.766 149.896 161.112C149.896 160.458 149.366 159.928 148.712 159.928C148.058 159.928 147.528 160.458 147.528 161.112C147.528 161.766 148.058 162.296 148.712 162.296Z" fill="#92E3A9" stroke="#263238" stroke-linecap="round" stroke-linejoin="round"/>
<path d="M184.712 138.296C185.366 138.296 185.896 137.766 185.896 137.112C185.896 136.458 185.366 135.928 184.712 135.928C184.058 135.928 183.528 136.458 183.528 137.112C183.528 137.766 184.058 138.296 184.712 138.296Z" fill="#92E3A9" stroke="#263238" stroke-linecap="round" stroke-linejoin="round"/>
<path d="M186.088 159.736H183.328V162.496H186.088V159.736Z" fill="#92E3A9" stroke="#263238" stroke-linecap="round" stroke-linejoin="round"/>
<path d="M186.088 111.736H183.328V114.496H186.088V111.736Z" fill="#92E3A9" stroke="#263238" stroke-linecap="round" stroke-linejoin="round"/>
<path d="M114.088 159.736H111.328V162.496H114.088V159.736Z" fill="#92E3A9" stroke="#263238" stroke-linecap="round" stroke-linejoin="round"/>
<path d="M114.088 111.736H111.328V114.496H114.088V111.736Z" fill="#92E3A9" stroke="#263238" stroke-linecap="round" stroke-linejoin="round"/>
<path d="M180.152 117.36H117.488V157.176H180.152V117.36Z" fill="white" stroke="#263238" stroke-linecap="round" stroke-linejoin="round"/>
<path d="M180.152 145.416L173.184 152.384L154.336 133.536L146.408 141.464L133.768 128.824L117.488 145.096V157.176H180.152V145.416Z" fill="#92E3A9" stroke="#263238" stroke-linecap="round" stroke-linejoin="round"/>
<path d="M167.168 133.088C169.611 133.088 171.592 131.107 171.592 128.664C171.592 126.221 169.611 124.24 167.168 124.24C164.725 124.24 162.744 126.221 162.744 128.664C162.744 131.107 164.725 133.088 167.168 133.088Z" fill="#92E3A9" stroke="#263238" stroke-linecap="round" stroke-linejoin="round"/>
<path d="M268 217.6C268 217.6 263.2 226.536 262.632 240.208" stroke="white" stroke-linecap="round" stroke-linejoin="round"/>
<path d="M253.888 223.784C253.888 223.784 255.32 231.384 259.488 236.888" stroke="white" stroke-linecap="round" stroke-linejoin="round"/>
<path d="M273.6 255.144C273.6 255.144 280.8 278.792 296.44 285.752" stroke="white" stroke-linecap="round" stroke-linejoin="round"/>
<path d="M292.544 212.336C292.544 212.336 291.864 217.496 286.904 217.856C286.293 216.558 285.556 215.322 284.704 214.168C287.28 213.406 289.897 212.794 292.544 212.336Z" fill="#263238"/>
<path d="M303.112 212.696C303.112 212.696 311.408 213.712 314.88 202.576C318.352 191.44 315.624 183.048 301.896 179.008C294.28 176.768 286.696 178.568 283.92 184.336C281.568 189.272 282.68 193.376 282.144 195.032C281.536 196.888 275.92 198.464 275.92 199.736C275.92 200.784 279.032 202.576 279.032 202.576L278.12 205.344L278.976 205.8C278.976 205.8 277.376 212.032 278.12 214.232C278.648 215.832 292.704 216.504 293.8 212.52" fill="white"/>
<path d="M303.112 212.696C303.112 212.696 311.408 213.712 314.88 202.576C318.352 191.44 315.624 183.048 301.896 179.008C294.28 176.768 286.696 178.568 283.92 184.336C281.568 189.272 282.68 193.376 282.144 195.032C281.536 196.888 275.92 198.464 275.92 199.736C275.92 200.784 279.032 202.576 279.032 202.576L278.12 205.344L278.976 205.8C278.976 205.8 277.376 212.032 278.12 214.232C278.648 215.832 292.704 216.504 293.8 212.52" stroke="#263238" stroke-linecap="round" stroke-linejoin="round"/>
<path d="M284 188.376C284 188.376 286.744 189.064 287.496 190.504" stroke="#263238" stroke-linecap="round" stroke-linejoin="round"/>
<path d="M284.48 194.704C284.36 195.504 284.544 196.2 284.896 196.248C285.248 196.296 285.616 195.688 285.736 194.88C285.856 194.072 285.664 193.384 285.32 193.336C284.976 193.288 284.6 193.896 284.48 194.704Z" fill="#263238"/>
<path d="M278.976 205.8C278.976 205.8 283.44 207.512 285.104 206.48" stroke="#263238" stroke-linecap="round" stroke-linejoin="round"/>
<path d="M280.544 194.064C280.216 195.856 280.616 197.424 281.44 197.576C282.264 197.728 283.208 196.408 283.536 194.624C283.864 192.84 283.472 191.256 282.64 191.104C281.808 190.952 280.88 192.28 280.544 194.064Z" stroke="#263238" stroke-linecap="round" stroke-linejoin="round"/>
<path d="M315.248 184.952C314.58 181.71 312.718 178.838 310.032 176.904C307.038 174.801 303.609 173.399 300 172.8C300 172.8 302.648 173.96 303.656 175.488C303.656 175.488 296.8 170.336 288.656 173.72C280.512 177.104 281.528 185.896 281.528 185.896L282.712 183.592C282.712 183.592 282.576 186.336 284.016 187.344C284.448 186 285.036 184.711 285.768 183.504C285.768 183.504 287.928 189.992 293.872 192.192C293.468 191.169 293.434 190.037 293.776 188.992C293.776 188.992 297.072 196.12 296.112 199.6L297.16 201.424C297.16 201.424 300.944 197.592 304.024 200.784C305.792 202.624 300.64 209.584 299.904 209.584L303.016 214.152C303.016 214.152 310.792 215.264 315.272 206.84C319.752 198.416 318.656 194.84 318.656 194.84C318.656 194.84 320.12 196.888 320.256 198.04C320.272 198.024 321.6 188.976 315.248 184.952Z" fill="#263238"/>
<path d="M296.952 202.232C296.952 202.232 299.352 194.168 304.456 197.008C309.56 199.848 305.92 204.152 304.088 205.808C302.256 207.464 300.888 210.472 299.696 210.472C298.504 210.472 298.24 209.008 298.24 209.008" fill="white"/>
<path d="M296.952 202.232C296.952 202.232 299.352 194.168 304.456 197.008C309.56 199.848 305.92 204.152 304.088 205.808C302.256 207.464 300.888 210.472 299.696 210.472C298.504 210.472 298.24 209.008 298.24 209.008" stroke="#263238" stroke-linecap="round" stroke-linejoin="round"/>
<path d="M283.536 194.624L297.776 197.576" stroke="#263238" stroke-linecap="round" stroke-linejoin="round"/>
</svg>
