<svg width="193" height="64" viewBox="0 0 193 64" fill="none" xmlns="http://www.w3.org/2000/svg">
<path d="M9.1474 7.22018V56.8202H17.5509V44.3402L30.6991 41.5002V56.5002H39.1026V35.0202L17.6074 39.5256L17.5107 18.1402L30.7393 15.1802V30.2602H39.1026V8.78018L17.5509 13.0202V7.18018L9.1474 7.22018Z" fill="white" stroke="white"/>
<g clip-path="url(#clip0_3_689)">
<path d="M96.3712 21.8884L83.9466 7.52002L72.2613 21.0116L59.8366 7.85943L48.3787 21.945L55.1739 23.5572L60.3484 17.3629L68.6789 26.2159V56.4801H76.4407V25.8482L84.0888 17.0801L90.031 23.6138L96.3712 21.8884Z" fill="white" stroke="white"/>
</g>
<path d="M105.165 58.2402V7.40021L113.448 6.32021L127.4 20.6002V5.72021H136.085V38.6802L113.93 16.9202V58.2802L105.165 58.2402Z" fill="white" stroke="white"/>
<path d="M162.137 8.62305H153.749V55.377H162.165V37.1619L173.367 33.5981L175.642 55.377L184.001 55.0375L181.356 25.933L162.137 31.7313V8.62305Z" fill="white" stroke="white"/>
<defs>
<clipPath id="clip0_3_689">
<rect width="48.25" height="64" fill="white" transform="translate(48.25)"/>
</clipPath>
</defs>
</svg>
