<svg width="400" height="400" viewBox="0 0 400 400" fill="none" xmlns="http://www.w3.org/2000/svg">
<path d="M197.368 390C301.441 390 385.808 341.288 385.808 281.2C385.808 221.111 301.441 172.4 197.368 172.4C93.2954 172.4 8.92798 221.111 8.92798 281.2C8.92798 341.288 93.2954 390 197.368 390Z" fill="#F5F5F5"/>
<path d="M108.992 367.144L38.496 326.448C36.296 325.176 36.296 323.12 38.496 321.848L162.128 250.464C163.367 249.832 164.737 249.502 166.128 249.502C167.519 249.502 168.889 249.832 170.128 250.464L240.592 291.2C242.792 292.472 242.792 294.528 240.592 295.8L116.96 367.144C115.726 367.771 114.361 368.098 112.976 368.098C111.591 368.098 110.227 367.771 108.992 367.144Z" fill="#E0E0E0"/>
<path d="M107.856 318.904C107.856 318.904 107.304 300.504 99.432 285.656C91.56 270.808 79.848 260.92 68.32 259.032C56.792 257.144 46.528 267.032 58.336 275.416C70.144 283.8 91.584 293.104 99.448 321.376L107.856 318.904Z" fill="#BA68C8"/>
<g opacity="0.15">
<path d="M107.856 318.904C107.856 318.904 107.304 300.504 99.432 285.656C91.56 270.808 79.848 260.92 68.32 259.032C56.792 257.144 46.528 267.032 58.336 275.416C70.144 283.8 91.584 293.104 99.448 321.376L107.856 318.904Z" fill="black"/>
</g>
<path d="M104.848 313.896H104.976C105.056 313.872 105.131 313.831 105.195 313.777C105.259 313.724 105.312 313.657 105.35 313.583C105.388 313.508 105.411 313.426 105.416 313.343C105.422 313.259 105.411 313.175 105.384 313.096C95.648 281.896 73.384 267.368 62.984 264.04C62.904 264.006 62.8177 263.989 62.7307 263.99C62.6438 263.991 62.558 264.011 62.4789 264.047C62.3999 264.083 62.3293 264.135 62.2716 264.201C62.214 264.266 62.1706 264.342 62.1443 264.425C62.118 264.508 62.1093 264.596 62.1188 264.682C62.1282 264.768 62.1557 264.852 62.1994 264.927C62.243 265.002 62.3019 265.068 62.3723 265.119C62.4427 265.17 62.5229 265.206 62.608 265.224C72.808 268.488 94.608 282.768 104.208 313.472C104.254 313.602 104.342 313.714 104.457 313.791C104.573 313.867 104.71 313.904 104.848 313.896Z" fill="white"/>
<path d="M48 303.496C48.8 305.824 51.112 307.216 53.288 308.344C55.464 309.472 57.84 310.68 58.888 312.904C60.952 317.4 56.336 323.016 58.6 327.424C59.544 329.264 61.528 330.376 63.528 330.936C65.2045 331.333 66.9 331.646 68.608 331.872C69.425 331.937 70.2453 331.951 71.064 331.912C73.464 331.792 76.008 331.912 78.048 333.328C81.248 335.552 81.896 339.928 83.648 343.424C84.7376 345.493 86.2633 347.3 88.1196 348.721C89.976 350.142 92.1188 351.144 94.4 351.656C98.192 352.528 104 352.208 105.192 350.6C106.064 349.376 104.176 345.272 104.272 343.768C104.511 339.917 104.385 336.052 103.896 332.224C103.598 330.489 103.515 328.724 103.648 326.968C103.848 325.008 104.032 323.04 104.2 321.08C104.392 318.952 105.048 317.328 104.48 315.12C103.85 313.025 102.906 311.037 101.68 309.224C100.56 307.4 99.4213 305.584 98.264 303.776C96.9844 301.589 95.4364 299.571 93.656 297.768C92.0422 296.274 90.1411 295.123 88.0684 294.388C85.9957 293.652 83.7948 293.346 81.6 293.488C77.968 293.752 74.288 295.432 70.616 294.92C66.944 294.408 63.632 293.128 59.944 293.04C56.096 292.944 52.04 294.2 49.544 297.28C48.104 299.008 47.288 301.384 48 303.496Z" fill="#BA68C8"/>
<path d="M102.896 340.8C103.041 340.774 103.17 340.693 103.255 340.573C103.34 340.454 103.375 340.305 103.352 340.16C97.584 305.92 62.848 297.76 54.552 297.608C54.4056 297.608 54.2652 297.666 54.1617 297.77C54.0582 297.873 54 298.014 54 298.16C54 298.306 54.0582 298.447 54.1617 298.55C54.2652 298.654 54.4056 298.712 54.552 298.712C62.664 298.888 96.648 306.848 102.288 340.312C102.295 340.384 102.316 340.454 102.351 340.518C102.385 340.582 102.432 340.639 102.489 340.684C102.546 340.73 102.611 340.763 102.681 340.783C102.751 340.803 102.824 340.809 102.896 340.8Z" fill="white"/>
<path d="M65.384 320.168C65.4947 320.158 65.6001 320.116 65.688 320.048C65.784 319.96 75.592 311.96 90.272 315.552C90.4152 315.587 90.5664 315.564 90.6925 315.487C90.8185 315.411 90.909 315.287 90.944 315.144C90.979 315.001 90.9557 314.849 90.8791 314.723C90.8026 314.597 90.6792 314.507 90.536 314.472C75.288 310.752 65.08 319.112 64.976 319.2C64.9168 319.246 64.8678 319.305 64.832 319.371C64.7961 319.437 64.7741 319.51 64.7674 319.584C64.7606 319.659 64.7693 319.735 64.7927 319.806C64.8162 319.878 64.8541 319.944 64.904 320C64.9654 320.063 65.0408 320.112 65.1241 320.141C65.2074 320.17 65.2964 320.179 65.384 320.168Z" fill="white"/>
<path d="M232.192 22.568L116.472 89.376C115.335 90.1216 114.389 91.124 113.711 92.3025C113.033 93.4809 112.641 94.8023 112.568 96.16V356.536C112.568 359.032 114.32 360.048 116.472 358.792L232.192 292C233.328 291.253 234.273 290.251 234.951 289.073C235.629 287.894 236.021 286.573 236.096 285.216V24.8C236.096 22.328 234.344 21.312 232.192 22.568ZM230.464 266.568C230.464 268.704 228.968 270.064 227.112 271.128L121.16 332.328C119.312 333.392 117.808 332.528 117.808 330.384V114.688C117.872 113.524 118.209 112.391 118.791 111.38C119.373 110.37 120.185 109.511 121.16 108.872L227.112 47.704C228.968 46.632 230.464 47.504 230.464 49.64V266.568Z" fill="#BA68C8"/>
<path opacity="0.5" d="M232.192 22.568L116.472 89.376C115.335 90.1216 114.389 91.124 113.711 92.3025C113.033 93.4809 112.641 94.8023 112.568 96.16V356.536C112.568 359.032 114.32 360.048 116.472 358.792L232.192 292C233.328 291.253 234.273 290.251 234.951 289.073C235.629 287.894 236.021 286.573 236.096 285.216V24.8C236.096 22.328 234.344 21.312 232.192 22.568ZM230.464 266.568C230.464 268.704 228.968 270.064 227.112 271.128L121.16 332.328C119.312 333.392 117.808 332.528 117.808 330.384V114.688C117.872 113.524 118.209 112.391 118.791 111.38C119.373 110.37 120.185 109.511 121.16 108.872L227.112 47.704C228.968 46.632 230.464 47.504 230.464 49.64V266.568Z" fill="black"/>
<path d="M116 359.04C114.832 359.535 113.57 359.769 112.302 359.728C111.033 359.687 109.79 359.37 108.656 358.8L104.184 356.208C103.04 355.47 102.088 354.47 101.405 353.293C100.722 352.115 100.328 350.792 100.256 349.432V89.064C100.282 88.0545 100.513 87.0609 100.936 86.144C101.073 85.8208 101.228 85.5057 101.4 85.2L113.72 92.312C113.456 92.7708 113.229 93.2496 113.04 93.744C112.744 94.5103 112.584 95.3225 112.568 96.144V356.536C112.568 358.832 114.056 359.88 116 359.04Z" fill="#BA68C8"/>
<path opacity="0.6" d="M116 359.04C114.832 359.535 113.57 359.769 112.302 359.728C111.033 359.687 109.79 359.37 108.656 358.8L104.184 356.208C103.04 355.47 102.088 354.47 101.405 353.293C100.722 352.115 100.328 350.792 100.256 349.432V89.064C100.282 88.0545 100.513 87.0609 100.936 86.144C101.073 85.8208 101.228 85.5057 101.4 85.2L113.72 92.312C113.456 92.7708 113.229 93.2496 113.04 93.744C112.744 94.5103 112.584 95.3225 112.568 96.144V356.536C112.568 358.832 114.056 359.88 116 359.04Z" fill="black"/>
<path d="M176.896 307.52C178.896 307.52 179.112 309.76 179.112 310.72C178.988 312.654 178.418 314.533 177.446 316.209C176.475 317.886 175.128 319.315 173.512 320.384C172.861 320.789 172.118 321.023 171.352 321.064C169.352 321.064 169.136 318.816 169.136 317.864C169.258 315.93 169.828 314.05 170.799 312.373C171.771 310.697 173.119 309.268 174.736 308.2C175.386 307.792 176.13 307.557 176.896 307.52ZM176.896 306.32C175.919 306.356 174.968 306.646 174.136 307.16C172.345 308.338 170.857 309.921 169.791 311.78C168.725 313.64 168.112 315.724 168 317.864C168 320.656 169.392 322.272 171.416 322.272C172.394 322.236 173.346 321.943 174.176 321.424C175.977 320.255 177.475 318.677 178.548 316.818C179.622 314.959 180.24 312.872 180.352 310.728C180.352 307.936 178.96 306.32 176.936 306.32H176.896Z" fill="#37474F"/>
<path d="M174.248 60.0001C175.696 59.2001 176.872 59.8401 176.872 61.5121C176.822 62.4223 176.558 63.3079 176.102 64.0973C175.647 64.8867 175.011 65.5578 174.248 66.0561C172.8 66.8561 171.624 66.2161 171.624 64.5361C171.673 63.6269 171.937 62.7421 172.393 61.9539C172.849 61.1657 173.484 60.4963 174.248 60.0001Z" fill="#37474F"/>
<path d="M160.152 76.2159L188.512 59.8319C189.72 59.1359 190.704 59.6319 190.704 60.9359C190.649 61.6719 190.422 62.3848 190.042 63.017C189.661 63.6493 189.137 64.1833 188.512 64.5759L160.152 80.9599C158.936 81.6559 157.96 81.1599 157.96 79.8479C158.015 79.1132 158.243 78.4017 158.623 77.7708C159.004 77.1399 159.528 76.6073 160.152 76.2159Z" fill="#37474F"/>
<path d="M230.464 266.584C230.464 268.72 228.968 270.08 227.112 271.144L121.16 332.328C119.312 333.392 117.808 332.528 117.808 330.384V114.688C117.872 113.524 118.209 112.391 118.791 111.381C119.373 110.37 120.185 109.511 121.16 108.872L227.112 47.7041C228.968 46.6321 230.464 47.5041 230.464 49.6401V266.584Z" fill="#BA68C8"/>
<path opacity="0.8" d="M230.464 266.584C230.464 268.72 228.968 270.08 227.112 271.144L121.16 332.328C119.312 333.392 117.808 332.528 117.808 330.384V114.688C117.872 113.524 118.209 112.391 118.791 111.381C119.373 110.37 120.185 109.511 121.16 108.872L227.112 47.7041C228.968 46.6321 230.464 47.5041 230.464 49.6401V266.584Z" fill="white"/>
<path d="M207.368 272.368L128.968 317.632C127.488 318.488 126.288 317.336 126.288 315.056V310.4C126.288 308.12 127.488 305.6 128.968 304.728L207.368 259.464C208.848 258.608 210.048 259.76 210.048 262.04V266.688C210.048 268.976 208.848 271.512 207.368 272.368Z" fill="white"/>
<path d="M214.232 266.336V257.6C214.232 256.464 214.584 255.936 215.776 255.832L224.056 255.336C224.912 255.496 225.152 256.24 224.592 256.992L215.24 267.072C214.712 267.632 214.232 267.48 214.232 266.336Z" fill="#BA68C8"/>
<path d="M236.064 24.2C235.784 22.168 234.152 21.432 232.192 22.6L116.472 89.3761C115.314 90.0965 114.363 91.1054 113.712 92.304L101.392 85.192C102.051 84.0009 103.008 83.0005 104.168 82.288L219.872 15.464C221.086 14.8484 222.427 14.5276 223.788 14.5276C225.149 14.5276 226.49 14.8484 227.704 15.464L232.192 18.04C233.239 18.7314 234.127 19.6387 234.794 20.7011C235.462 21.7636 235.895 22.9566 236.064 24.2Z" fill="#BA68C8"/>
<path opacity="0.3" d="M236.064 24.2C235.784 22.168 234.152 21.432 232.192 22.6L116.472 89.3761C115.314 90.0965 114.363 91.1054 113.712 92.304L101.392 85.192C102.051 84.0009 103.008 83.0005 104.168 82.288L219.872 15.464C221.086 14.8484 222.427 14.5276 223.788 14.5276C225.149 14.5276 226.49 14.8484 227.704 15.464L232.192 18.04C233.239 18.7314 234.127 19.6387 234.794 20.7011C235.462 21.7636 235.895 22.9566 236.064 24.2Z" fill="black"/>
<path d="M198.952 265.344L196.128 263.744C195.828 263.545 195.578 263.279 195.399 262.966C195.22 262.654 195.116 262.304 195.096 261.944V189.264C195.116 188.904 195.221 188.553 195.401 188.24C195.582 187.928 195.834 187.662 196.136 187.464L340.296 104.264C340.618 104.099 340.974 104.012 341.336 104.012C341.698 104.012 342.054 104.099 342.376 104.264L345.192 105.864C345.495 106.061 345.747 106.327 345.927 106.64C346.108 106.953 346.212 107.304 346.232 107.664V180.312C346.213 180.673 346.109 181.024 345.928 181.337C345.747 181.65 345.495 181.916 345.192 182.112L201.04 265.312C200.719 265.48 200.362 265.571 200 265.576C199.637 265.582 199.278 265.502 198.952 265.344Z" fill="#37474F"/>
<path d="M201.032 190.296L345.184 107.096C345.76 106.768 346.224 107.032 346.224 107.696V180.344C346.205 180.705 346.101 181.056 345.92 181.369C345.739 181.682 345.487 181.948 345.184 182.144L201.032 265.344C200.456 265.672 199.992 265.4 199.992 264.744V192.096C200.011 191.735 200.115 191.384 200.296 191.071C200.477 190.758 200.729 190.493 201.032 190.296Z" fill="#455A64"/>
<path d="M200.8 265.448C200.502 265.558 200.185 265.604 199.868 265.585C199.552 265.566 199.242 265.481 198.96 265.336L196.144 263.736C195.842 263.538 195.591 263.272 195.41 262.96C195.23 262.647 195.125 262.297 195.104 261.936V189.264C195.115 188.902 195.22 188.55 195.408 188.24L200.304 191.064C200.116 191.374 200.011 191.726 200 192.088V264.736C200 265.304 200.328 265.6 200.8 265.448Z" fill="#263238"/>
<path d="M207.504 221.192L215.504 216.568C216.464 216.016 217.24 216.408 217.24 217.44C217.198 218.023 217.018 218.588 216.717 219.088C216.415 219.588 216 220.011 215.504 220.32L207.504 224.944C206.552 225.496 205.776 225.104 205.776 224.064C205.819 223.484 205.998 222.921 206.298 222.423C206.598 221.924 207.011 221.502 207.504 221.192Z" fill="#E0E0E0"/>
<path d="M221.456 213.128L241.84 201.36C242.792 200.808 243.568 201.2 243.568 202.24C243.525 202.821 243.346 203.383 243.046 203.882C242.746 204.381 242.333 204.802 241.84 205.112L221.448 216.888C220.496 217.44 219.72 217.048 219.72 216.008C219.762 215.425 219.942 214.861 220.243 214.36C220.545 213.86 220.96 213.438 221.456 213.128Z" fill="#E0E0E0"/>
<path d="M246.928 198.4L268.904 185.728C269.864 185.176 270.64 185.568 270.64 186.6C270.598 187.183 270.419 187.748 270.117 188.248C269.815 188.749 269.4 189.171 268.904 189.48L246.928 202.152C245.968 202.704 245.192 202.312 245.192 201.28C245.234 200.697 245.414 200.133 245.715 199.632C246.017 199.132 246.432 198.71 246.928 198.4Z" fill="#E0E0E0"/>
<path d="M207.496 198.68L227.888 186.912C228.84 186.36 229.616 186.752 229.616 187.784C229.574 188.366 229.396 188.93 229.096 189.43C228.795 189.931 228.382 190.353 227.888 190.664L207.496 202.4C206.544 202.952 205.768 202.56 205.768 201.52C205.816 200.945 205.997 200.389 206.297 199.896C206.597 199.403 207.007 198.987 207.496 198.68Z" fill="#E0E0E0"/>
<path d="M232.976 184L251.824 173.12C252.784 172.568 253.552 172.96 253.552 174C253.511 174.581 253.333 175.144 253.032 175.643C252.732 176.142 252.318 176.563 251.824 176.872L232.968 187.76C232.016 188.312 231.24 187.92 231.24 186.88C231.282 186.297 231.461 185.733 231.763 185.232C232.065 184.732 232.48 184.31 232.976 184Z" fill="#E0E0E0"/>
<path d="M257.024 170.072L269.456 162.872C270.408 162.32 271.184 162.712 271.184 163.752C271.141 164.333 270.962 164.895 270.662 165.394C270.362 165.893 269.949 166.314 269.456 166.624L257.024 173.824C256.064 174.376 255.288 173.984 255.288 172.944C255.332 172.363 255.511 171.8 255.813 171.301C256.115 170.802 256.529 170.381 257.024 170.072Z" fill="#E0E0E0"/>
<path d="M207.496 232.432L227.888 220.664C228.84 220.112 229.616 220.504 229.616 221.544C229.573 222.125 229.394 222.687 229.094 223.186C228.794 223.685 228.381 224.106 227.888 224.416L207.496 236.192C206.544 236.744 205.768 236.352 205.768 235.312C205.81 234.73 205.988 234.166 206.288 233.666C206.589 233.166 207.002 232.743 207.496 232.432Z" fill="#E0E0E0"/>
<path d="M232.976 217.728L251.824 206.848C252.784 206.288 253.552 206.688 253.552 207.72C253.511 208.303 253.333 208.867 253.033 209.367C252.733 209.868 252.319 210.29 251.824 210.6L232.968 221.48C232.016 222.032 231.24 221.64 231.24 220.608C231.282 220.026 231.461 219.461 231.763 218.96C232.065 218.46 232.48 218.038 232.976 217.728Z" fill="#E0E0E0"/>
<path d="M257.024 203.824L269.456 196.664C270.408 196.112 271.184 196.504 271.184 197.536C271.142 198.118 270.964 198.682 270.664 199.182C270.363 199.683 269.95 200.105 269.456 200.416L257.024 207.616C256.064 208.168 255.288 207.776 255.288 206.736C255.325 206.148 255.502 205.577 255.804 205.07C256.106 204.564 256.524 204.137 257.024 203.824Z" fill="#E0E0E0"/>
<path d="M207.496 209.936L245.936 187.752C246.896 187.2 247.672 187.592 247.672 188.632C247.629 189.214 247.449 189.777 247.147 190.276C246.846 190.775 246.431 191.195 245.936 191.504L207.496 213.696C206.544 214.248 205.768 213.856 205.768 212.816C205.81 212.234 205.988 211.67 206.288 211.17C206.589 210.67 207.002 210.247 207.496 209.936Z" fill="#E0E0E0"/>
<path d="M251.512 184.52L268.88 174.52C269.84 173.968 270.616 174.36 270.616 175.392C270.574 175.975 270.394 176.54 270.093 177.04C269.791 177.541 269.376 177.963 268.88 178.272L251.512 188.272C250.552 188.832 249.776 188.432 249.776 187.4C249.818 186.817 249.998 186.253 250.299 185.752C250.601 185.252 251.016 184.83 251.512 184.52Z" fill="#E0E0E0"/>
<path d="M342.976 183.384L344.136 192.984C344.163 193.206 344.128 193.43 344.034 193.633C343.941 193.835 343.792 194.008 343.606 194.131C343.42 194.254 343.203 194.322 342.981 194.329C342.758 194.336 342.537 194.28 342.344 194.168L333.16 188.904L342.976 183.384Z" fill="#455A64"/>
<path d="M215.512 239.392C215.365 239.328 215.207 239.293 215.046 239.29C214.886 239.288 214.727 239.317 214.578 239.377C214.429 239.436 214.293 239.525 214.179 239.637C214.065 239.75 213.974 239.884 213.912 240.032L209.384 250.808L208.304 249.76C208.071 249.567 207.774 249.468 207.472 249.485C207.17 249.501 206.885 249.631 206.675 249.849C206.464 250.066 206.344 250.355 206.337 250.658C206.331 250.96 206.439 251.254 206.64 251.48L208.976 253.752C209.191 253.961 209.477 254.081 209.776 254.088C209.856 254.096 209.936 254.096 210.016 254.088C210.206 254.05 210.385 253.966 210.535 253.843C210.686 253.721 210.804 253.563 210.88 253.384L216.088 240.984C216.222 240.697 216.237 240.368 216.129 240.069C216.021 239.771 215.799 239.527 215.512 239.392Z" fill="#BA68C8"/>
<path d="M225.656 233.496C225.509 233.431 225.351 233.395 225.19 233.392C225.029 233.389 224.87 233.418 224.721 233.477C224.571 233.537 224.436 233.626 224.321 233.739C224.207 233.853 224.117 233.987 224.056 234.136L219.528 244.912L218.448 243.864C218.337 243.742 218.202 243.644 218.051 243.577C217.901 243.51 217.738 243.474 217.573 243.472C217.408 243.47 217.245 243.503 217.093 243.567C216.941 243.631 216.804 243.726 216.69 243.846C216.577 243.966 216.489 244.107 216.433 244.262C216.377 244.417 216.353 244.582 216.363 244.747C216.373 244.911 216.417 245.072 216.493 245.219C216.568 245.366 216.672 245.496 216.8 245.6L219.136 247.872C219.278 248.007 219.45 248.106 219.638 248.16C219.826 248.215 220.024 248.223 220.216 248.184C220.407 248.145 220.586 248.059 220.736 247.935C220.887 247.811 221.005 247.652 221.08 247.472L226.288 235.08C226.351 234.935 226.385 234.778 226.388 234.62C226.39 234.461 226.361 234.304 226.302 234.156C226.244 234.009 226.156 233.875 226.045 233.762C225.934 233.648 225.802 233.558 225.656 233.496Z" fill="#BA68C8"/>
<path d="M309.68 130.6C293.568 139.912 280.504 162.528 280.504 181.136C280.504 199.744 293.6 207.288 309.68 197.984C325.76 188.68 338.872 166.048 338.856 147.448C338.84 128.848 325.776 121.296 309.68 130.6Z" fill="#BA68C8"/>
<path opacity="0.4" d="M309.68 130.6C293.568 139.912 280.504 162.528 280.504 181.136C280.504 199.744 293.6 207.288 309.68 197.984C325.76 188.68 338.872 166.048 338.856 147.448C338.84 128.848 325.776 121.296 309.68 130.6Z" fill="white"/>
<path d="M250.4 172.168C253.866 178.198 257.636 184.049 261.696 189.696C262.696 191.04 265.512 194.744 266.984 195.112C268.864 195.576 270.456 194.096 271.448 193.408C274.84 191.048 292.392 173.6 292.392 173.6C297.856 165.984 296.48 161.128 295.736 161.128C294.992 161.128 289.392 159.656 284.6 164.328C280.968 167.872 268.56 180.696 268.56 180.696C265.632 177.256 263.712 175.552 260.792 172.104C259.368 170.424 257.208 168.616 257.104 166.312C257.116 165.255 257.212 164.201 257.392 163.16C257.561 160.75 257.405 158.328 256.928 155.96C256.917 155.853 256.89 155.747 256.848 155.648C256.772 155.514 256.65 155.411 256.504 155.36C256.234 155.282 255.946 155.297 255.685 155.401C255.425 155.506 255.206 155.694 255.064 155.936C254.791 156.426 254.642 156.975 254.632 157.536C254.615 158.087 254.493 158.631 254.272 159.136C254.224 159.239 254.153 159.33 254.064 159.4C253.962 159.46 253.846 159.494 253.728 159.496C253.056 159.496 252.704 158.768 252.456 158.24C251.881 157.006 251.415 155.724 251.064 154.408C250.824 153.504 250.408 152.632 250.096 151.736C249.975 151.202 249.696 150.717 249.296 150.344C248.568 149.816 247.544 150.112 246.744 150.512C246.295 150.732 245.871 151 245.48 151.312C244.334 152.366 243.575 153.775 243.328 155.312C243.008 157.095 243.129 158.93 243.68 160.656C244.371 163.079 245.511 165.35 247.04 167.352C248.16 168.952 249.392 170.48 250.4 172.168Z" fill="#FFA8A7"/>
<path d="M297.296 161.104C297.296 161.104 291.832 158.952 286.896 162.136C281.96 165.32 268.56 180.704 268.56 180.704L265.192 176.96C265.192 176.96 263.408 183.576 257.824 184.16C257.824 184.16 262.208 191.312 264.656 193.952C267.104 196.592 269.056 196.104 271.856 193.952C274.656 191.8 288.304 179.2 288.304 179.2C291.343 177.325 293.797 174.636 295.386 171.437C296.975 168.239 297.637 164.659 297.296 161.104Z" fill="#BA68C8"/>
<path opacity="0.25" d="M297.296 161.104C297.296 161.104 291.832 158.952 286.896 162.136C281.96 165.32 268.56 180.704 268.56 180.704L265.192 176.96C265.192 176.96 263.408 183.576 257.824 184.16C257.824 184.16 262.208 191.312 264.656 193.952C267.104 196.592 269.056 196.104 271.856 193.952C274.656 191.8 288.304 179.2 288.304 179.2C291.343 177.325 293.797 174.636 295.386 171.437C296.975 168.239 297.637 164.659 297.296 161.104Z" fill="black"/>
<path d="M324.992 177.544L324.752 184.448C324.152 185.248 323.528 185.976 322.896 186.712C319.151 191.181 314.684 194.991 309.68 197.984C300.472 203.304 292.264 203.112 286.92 198.504C286.848 190.104 286.864 179.712 287.312 175.024C288.112 166.48 290.984 162.136 295.312 161.192C297.376 160.736 312.848 162.144 312.848 162.144L321.416 164.288C321.601 164.376 321.78 164.474 321.952 164.584C323.264 165.384 323.912 166.88 324.592 169.032C325.08 170.592 324.992 174.64 324.992 177.544Z" fill="#F5F5F5"/>
<path d="M311.912 136.8C311.763 138.87 311.004 140.849 309.729 142.487C308.454 144.124 306.722 145.346 304.752 145.998C302.783 146.65 300.663 146.703 298.664 146.15C296.664 145.596 294.873 144.461 293.519 142.889C292.164 141.317 291.307 139.378 291.056 137.318C290.805 135.259 291.171 133.171 292.107 131.319C293.044 129.467 294.509 127.935 296.317 126.917C298.125 125.899 300.195 125.441 302.264 125.6C305.026 125.813 307.591 127.111 309.399 129.209C311.207 131.308 312.111 134.037 311.912 136.8Z" fill="#263238"/>
<path d="M318.96 144.8C318.96 144.8 316.656 152.632 315.872 153.888C315.357 154.657 314.567 155.198 313.664 155.4L314.216 149.8L318.96 144.8Z" fill="#263238"/>
<path d="M317.648 133.24C317.738 132.994 317.878 132.769 318.06 132.581C318.242 132.392 318.461 132.243 318.704 132.144C319.031 132.046 319.376 132.026 319.712 132.088C321.832 132.368 323.064 134.272 323.184 136.312C323.207 137.809 322.915 139.295 322.328 140.672C321.977 141.757 321.417 142.762 320.68 143.632C320.327 144.023 319.896 144.337 319.416 144.553C318.935 144.769 318.415 144.883 317.888 144.888C317.173 144.826 316.454 144.848 315.744 144.952C315.984 143.491 316.229 142.032 316.48 140.576L317.08 136.992C317.168 136.464 317.28 135.936 317.344 135.392C317.356 134.679 317.452 133.97 317.632 133.28L317.648 133.24Z" fill="#263238"/>
<path d="M314.784 144.88C315.392 145.312 316.384 144.152 317.256 143.384C318.128 142.616 320.768 141.688 321.848 144.496C322.928 147.304 320.248 150.808 318.144 151.296C314.568 152.096 314.216 149.84 314.216 149.84L312.984 162.8C308.184 168.032 296.08 167.84 301.544 162.408L301.944 157.384C300.368 157.511 298.783 157.47 297.216 157.264C294.672 156.672 293.216 154.52 292.648 151.664C291.736 147.096 291.536 143.456 293.272 134.752C295.176 125.208 306.384 125.952 312.144 130.24C317.904 134.528 314.784 144.88 314.784 144.88Z" fill="#FFA8A7"/>
<path d="M318.704 136.888C318.96 135.968 318.504 135.024 318.704 134.088C318.904 133.152 319.504 132.768 319.84 132.008C320.456 130.552 319.648 129.4 318.512 128.472C314.04 124.832 307.72 124.528 302.688 121.728C301.962 121.271 301.196 120.88 300.4 120.56C299.999 120.405 299.57 120.335 299.14 120.355C298.711 120.374 298.29 120.482 297.904 120.672C297.576 120.887 297.295 121.166 297.076 121.491C296.858 121.817 296.707 122.183 296.632 122.568C296.53 123.342 296.495 124.124 296.528 124.904C295.792 124.904 295.136 124.4 294.384 124.328C293.578 124.239 292.763 124.377 292.032 124.728C291.54 124.934 291.136 125.304 290.888 125.776C290.739 126.152 290.676 126.557 290.704 126.96C290.745 128.256 291.094 129.524 291.723 130.658C292.352 131.792 293.242 132.759 294.32 133.48C295.073 133.96 295.878 134.352 296.72 134.648C298.132 135.216 299.639 135.509 301.16 135.512C302.694 135.508 304.172 134.938 305.312 133.912C305.993 135.329 307.116 136.486 308.512 137.208C309.218 137.556 309.997 137.731 310.785 137.718C311.572 137.706 312.345 137.506 313.04 137.136C313.128 139.264 313.384 141.376 313.512 143.536C313.472 144.226 313.698 144.904 314.144 145.432C315.384 146.584 316.456 144.016 317.208 143.432C317.648 143.088 317.688 142.224 317.744 141.728C317.8 141.232 317.848 140.696 317.864 140.184C317.807 139.854 317.78 139.519 317.784 139.184C318.024 138.336 318.496 137.648 318.704 136.888Z" fill="#263238"/>
<path d="M319.784 132.936L323.784 131.152C323.681 130.883 323.524 130.637 323.323 130.43C323.122 130.223 322.881 130.059 322.615 129.948C322.349 129.836 322.063 129.78 321.774 129.782C321.486 129.784 321.2 129.845 320.936 129.96C320.4 130.215 319.981 130.665 319.767 131.219C319.553 131.772 319.559 132.387 319.784 132.936Z" fill="#263238"/>
<path d="M301.944 157.384C301.944 157.384 307.768 156.664 309.856 155.784C311.08 155.26 312.117 154.379 312.832 153.256C312.44 154.406 311.82 155.464 311.008 156.368C309.408 158.136 301.824 158.944 301.824 158.944L301.944 157.384Z" fill="#F28F8F"/>
<path d="M303.36 142.56C303.353 142.786 303.412 143.008 303.53 143.2C303.649 143.393 303.821 143.546 304.025 143.641C304.23 143.736 304.458 143.769 304.681 143.736C304.904 143.703 305.113 143.605 305.281 143.454C305.449 143.304 305.569 143.107 305.626 142.889C305.683 142.671 305.675 142.44 305.602 142.227C305.53 142.013 305.396 141.825 305.218 141.687C305.04 141.549 304.825 141.465 304.6 141.448C304.446 141.439 304.291 141.461 304.145 141.513C303.999 141.564 303.864 141.643 303.749 141.747C303.634 141.85 303.54 141.975 303.474 142.115C303.407 142.254 303.368 142.406 303.36 142.56Z" fill="#263238"/>
<path d="M304.912 138.312L307.264 139.856C307.466 139.533 307.535 139.144 307.456 138.771C307.377 138.397 307.156 138.07 306.84 137.856C306.685 137.755 306.511 137.686 306.328 137.655C306.146 137.623 305.959 137.628 305.778 137.671C305.598 137.714 305.428 137.792 305.279 137.903C305.13 138.013 305.005 138.152 304.912 138.312Z" fill="#263238"/>
<path d="M303.432 150.08L300.152 151.032C300.206 151.251 300.303 151.457 300.438 151.638C300.573 151.819 300.743 151.971 300.937 152.085C301.132 152.199 301.348 152.273 301.571 152.302C301.795 152.332 302.022 152.316 302.24 152.256C302.681 152.117 303.051 151.813 303.273 151.408C303.496 151.002 303.552 150.527 303.432 150.08Z" fill="#F28F8F"/>
<path d="M293.704 138.4L296.104 136.848C296.011 136.688 295.886 136.549 295.736 136.439C295.587 136.329 295.417 136.25 295.237 136.208C295.056 136.166 294.869 136.162 294.686 136.195C294.504 136.228 294.33 136.298 294.176 136.4C293.855 136.609 293.627 136.933 293.539 137.306C293.451 137.678 293.51 138.07 293.704 138.4Z" fill="#263238"/>
<path d="M294.16 141.528C294.153 141.754 294.212 141.976 294.33 142.168C294.449 142.361 294.621 142.514 294.825 142.609C295.03 142.704 295.258 142.737 295.481 142.704C295.704 142.671 295.913 142.573 296.081 142.422C296.249 142.272 296.369 142.075 296.426 141.857C296.483 141.639 296.475 141.408 296.402 141.195C296.33 140.981 296.196 140.793 296.018 140.655C295.84 140.517 295.625 140.433 295.4 140.416C295.246 140.408 295.091 140.429 294.945 140.481C294.799 140.532 294.664 140.611 294.549 140.715C294.434 140.818 294.34 140.943 294.274 141.083C294.207 141.222 294.168 141.374 294.16 141.528Z" fill="#263238"/>
<path d="M299.592 140.88L298.68 147.768L295.168 146.256L299.592 140.88Z" fill="#F28F8F"/>
<path d="M332.8 171.448C330.579 176.057 327.87 180.416 324.72 184.448C324.12 185.248 323.496 185.976 322.864 186.712C318.808 179.512 317.824 167.512 320.016 163.944L322.28 164.288C324.473 164.569 326.57 165.364 328.398 166.608C330.226 167.852 331.734 169.51 332.8 171.448Z" fill="#BA68C8"/>
<g opacity="0.25">
<path d="M332.8 171.448C330.579 176.057 327.87 180.416 324.72 184.448C324.12 185.248 323.496 185.976 322.864 186.712C318.808 179.512 317.824 167.512 320.016 163.944L322.28 164.288C324.473 164.569 326.57 165.364 328.398 166.608C330.226 167.852 331.734 169.51 332.8 171.448Z" fill="black"/>
</g>
<path d="M130.712 199.664L127.888 198.064C127.585 197.867 127.333 197.601 127.153 197.289C126.972 196.976 126.868 196.625 126.848 196.264V123.592C126.867 123.231 126.971 122.88 127.152 122.567C127.333 122.254 127.585 121.989 127.888 121.792L272.04 38.5921C272.363 38.4302 272.719 38.3459 273.08 38.3459C273.441 38.3459 273.797 38.4302 274.12 38.5921L276.944 40.1921C277.247 40.3892 277.499 40.6549 277.679 40.9677C277.86 41.2804 277.964 41.6314 277.984 41.9921V114.64C277.965 115.001 277.861 115.352 277.68 115.665C277.499 115.978 277.247 116.244 276.944 116.44L132.8 199.664C132.477 199.831 132.119 199.918 131.756 199.918C131.393 199.918 131.035 199.831 130.712 199.664Z" fill="#BA68C8"/>
<path opacity="0.4" d="M277.944 41.6801C277.808 41.2481 277.408 41.1121 276.944 41.3921L132.8 124.616C132.492 124.818 132.239 125.092 132.064 125.416L127.16 122.592C127.333 122.267 127.586 121.991 127.896 121.792L272.056 38.5921C272.379 38.4302 272.735 38.3459 273.096 38.3459C273.457 38.3459 273.813 38.4302 274.136 38.5921L276.952 40.1921C277.209 40.3608 277.429 40.5795 277.599 40.8352C277.77 41.0908 277.887 41.3782 277.944 41.6801Z" fill="white"/>
<path d="M132.8 124.624L276.952 41.4241C277.528 41.0961 277.992 41.3601 277.992 42.0241V114.64C277.973 115.001 277.869 115.352 277.688 115.665C277.507 115.978 277.255 116.244 276.952 116.44L132.8 199.664C132.224 200 131.76 199.728 131.76 199.064V126.4C131.783 126.043 131.888 125.697 132.069 125.389C132.25 125.08 132.5 124.818 132.8 124.624Z" fill="#BA68C8"/>
<path opacity="0.15" d="M132.544 199.776C132.248 199.885 131.932 199.932 131.616 199.913C131.301 199.893 130.993 199.809 130.712 199.664L127.896 198.064C127.594 197.866 127.343 197.6 127.162 197.288C126.982 196.975 126.877 196.625 126.856 196.264V123.592C126.864 123.231 126.966 122.878 127.152 122.568L132.056 125.392C131.866 125.701 131.758 126.054 131.744 126.416V199.064C131.744 199.632 132.088 199.912 132.544 199.776Z" fill="black"/>
<path d="M135 198.4V205.808C134.999 206.065 135.08 206.316 135.232 206.523C135.385 206.73 135.599 206.883 135.844 206.959C136.09 207.035 136.353 207.031 136.596 206.946C136.838 206.861 137.047 206.701 137.192 206.488L148 190.888L135 198.4Z" fill="#BA68C8"/>
<path d="M204.984 116.712L212.984 112.088C213.936 111.536 214.712 111.928 214.712 112.968C214.669 113.549 214.49 114.111 214.19 114.61C213.89 115.109 213.477 115.53 212.984 115.84L204.984 120.464C204.024 121.016 203.248 120.624 203.248 119.592C203.29 119.009 203.47 118.445 203.771 117.944C204.073 117.444 204.488 117.022 204.984 116.712Z" fill="#FAFAFA"/>
<path d="M218.928 108.656L239.312 96.8882C240.272 96.3362 241.048 96.7282 241.048 97.7602C241.006 98.343 240.827 98.9076 240.525 99.4081C240.223 99.9085 239.808 100.331 239.312 100.64L218.928 112.408C217.968 112.96 217.192 112.568 217.192 111.528C217.235 110.947 217.415 110.384 217.717 109.885C218.019 109.386 218.433 108.965 218.928 108.656Z" fill="#FAFAFA"/>
<path d="M244.4 93.9442L267.408 80.6722C268.36 80.1202 269.136 80.5122 269.136 81.5522C269.093 82.1327 268.914 82.695 268.614 83.1938C268.314 83.6926 267.901 84.114 267.408 84.4242L244.4 97.6962C243.448 98.2482 242.672 97.8562 242.672 96.8242C242.714 96.2422 242.892 95.6783 243.192 95.1781C243.493 94.6778 243.906 94.2551 244.4 93.9442Z" fill="#FAFAFA"/>
<path d="M204.976 94.2002L225.36 82.4002C226.32 81.8482 227.088 82.2402 227.088 83.2802C227.047 83.8612 226.869 84.4242 226.568 84.9233C226.268 85.4224 225.854 85.8435 225.36 86.1522L204.976 97.9202C204.016 98.4722 203.24 98.0802 203.24 97.0482C203.287 96.471 203.469 95.9128 203.77 95.4182C204.072 94.9237 204.485 94.5066 204.976 94.2002Z" fill="#FAFAFA"/>
<path d="M230.448 79.4962L249.296 68.6082C250.256 68.0562 251.032 68.4482 251.032 69.4882C250.989 70.0696 250.809 70.6326 250.507 71.1316C250.205 71.6305 249.791 72.0514 249.296 72.3602L230.448 83.2482C229.488 83.8002 228.712 83.4082 228.712 82.3682C228.757 81.7871 228.937 81.2246 229.239 80.7258C229.54 80.227 229.954 79.8059 230.448 79.4962Z" fill="#FAFAFA"/>
<path d="M254.496 65.6001L267.952 57.8321C268.912 57.2801 269.688 57.6721 269.688 58.7121C269.647 59.2963 269.468 59.8625 269.167 60.3644C268.865 60.8663 268.449 61.2898 267.952 61.6001L254.496 69.3681C253.544 69.9201 252.768 69.5281 252.768 68.4961C252.808 67.9114 252.985 67.3443 253.285 66.841C253.585 66.3377 254 65.9126 254.496 65.6001Z" fill="#FAFAFA"/>
<path d="M204.976 128L225.36 116.232C226.32 115.68 227.088 116.072 227.088 117.104C227.047 117.686 226.87 118.251 226.569 118.751C226.269 119.252 225.855 119.674 225.36 119.984L204.976 131.752C204.016 132.304 203.24 131.912 203.24 130.872C203.284 130.291 203.463 129.728 203.765 129.229C204.067 128.73 204.481 128.309 204.976 128Z" fill="#FAFAFA"/>
<path d="M230.448 113.248L249.296 102.4C250.256 101.848 251.032 102.24 251.032 103.272C250.99 103.855 250.811 104.42 250.509 104.92C250.207 105.42 249.792 105.843 249.296 106.152L230.448 117.032C229.488 117.584 228.712 117.192 228.712 116.16C228.751 115.572 228.928 115.002 229.23 114.495C229.532 113.989 229.949 113.562 230.448 113.248Z" fill="#FAFAFA"/>
<path d="M254.496 99.352L267.952 91.584C268.912 91.032 269.688 91.424 269.688 92.456C269.646 93.0388 269.466 93.6034 269.165 94.1039C268.863 94.6043 268.448 95.0265 267.952 95.336L254.496 103.104C253.544 103.656 252.768 103.264 252.768 102.224C252.811 101.643 252.99 101.081 253.29 100.582C253.59 100.084 254.003 99.6621 254.496 99.352Z" fill="#FAFAFA"/>
<path d="M204.976 105.464L243.376 83.272C244.328 82.72 245.104 83.112 245.104 84.152C245.061 84.7326 244.882 85.2948 244.582 85.7937C244.282 86.2925 243.869 86.7139 243.376 87.024L204.976 109.216C204.016 109.768 203.24 109.376 203.24 108.336C203.284 107.755 203.463 107.192 203.765 106.693C204.067 106.194 204.481 105.773 204.976 105.464Z" fill="#FAFAFA"/>
<path d="M248.984 80.0482L267.384 69.4402C268.344 68.8882 269.12 69.2802 269.12 70.3122C269.078 70.895 268.899 71.4596 268.597 71.9601C268.295 72.4605 267.88 72.8827 267.384 73.1922L248.984 83.8002C248.024 84.3522 247.248 83.9602 247.256 82.9202C247.299 82.3397 247.478 81.7774 247.778 81.2786C248.078 80.7798 248.491 80.3583 248.984 80.0482Z" fill="#FAFAFA"/>
<path d="M261 108.056C260.853 107.992 260.695 107.957 260.535 107.954C260.374 107.952 260.215 107.981 260.066 108.04C259.917 108.1 259.781 108.189 259.667 108.301C259.553 108.414 259.462 108.548 259.4 108.696L254.872 119.48L253.824 118.4C253.594 118.19 253.291 118.078 252.979 118.088C252.668 118.097 252.373 118.227 252.155 118.451C251.938 118.674 251.816 118.973 251.816 119.285C251.815 119.596 251.936 119.896 252.152 120.12L254.496 122.392C254.708 122.605 254.995 122.729 255.296 122.736C255.376 122.744 255.456 122.744 255.536 122.736C255.728 122.698 255.907 122.613 256.058 122.489C256.208 122.364 256.326 122.205 256.4 122.024L261.64 109.6C261.753 109.31 261.749 108.987 261.63 108.699C261.511 108.412 261.285 108.181 261 108.056Z" fill="#455A64"/>
<path d="M271.152 102.16C271.005 102.095 270.847 102.059 270.686 102.056C270.525 102.053 270.366 102.082 270.217 102.141C270.067 102.201 269.932 102.29 269.817 102.403C269.703 102.517 269.613 102.651 269.552 102.8L265.048 113.6L264 112.528C263.77 112.318 263.467 112.206 263.155 112.216C262.844 112.225 262.549 112.355 262.331 112.579C262.114 112.802 261.992 113.101 261.992 113.413C261.991 113.724 262.112 114.024 262.328 114.248L264.664 116.52C264.774 116.63 264.905 116.717 265.049 116.776C265.194 116.836 265.348 116.865 265.504 116.864H265.736C265.927 116.823 266.106 116.737 266.258 116.614C266.41 116.49 266.53 116.332 266.608 116.152L271.816 103.752C271.88 103.604 271.913 103.445 271.914 103.284C271.915 103.123 271.883 102.964 271.821 102.815C271.76 102.667 271.668 102.532 271.553 102.42C271.438 102.307 271.302 102.219 271.152 102.16Z" fill="#455A64"/>
<path d="M167.408 108.52C151.296 117.832 138.232 140.448 138.24 159.056C138.248 177.664 151.304 185.208 167.416 175.904C183.528 166.6 196.6 143.968 196.584 125.368C196.568 106.768 183.504 99.2002 167.408 108.52Z" fill="#455A64"/>
<path d="M179.6 152.8C174.16 152.576 159.712 150.736 159.712 150.736C155.405 147.931 151.928 144.024 149.64 139.421C147.353 134.818 146.339 129.687 146.704 124.56L147.024 120.064C147.295 115.918 148.97 111.989 151.774 108.923C154.578 105.857 158.343 103.839 162.448 103.2C164.928 102.825 167.461 103.011 169.86 103.747C172.258 104.482 174.46 105.747 176.304 107.449C178.147 109.15 179.585 111.244 180.51 113.576C181.435 115.908 181.824 118.418 181.648 120.92C181.488 123.128 181.728 125.144 183.248 126.872C184.121 127.741 185.09 128.508 186.136 129.16C187.621 130.125 188.915 131.356 189.952 132.792C190.465 133.514 190.825 134.334 191.008 135.201C191.191 136.068 191.194 136.964 191.016 137.832C190.709 138.936 190.093 139.93 189.24 140.696C189.086 140.804 188.979 140.967 188.944 141.152C188.949 141.286 188.991 141.416 189.064 141.528C190.36 143.88 190.744 146.912 189.36 149.216C188.416 150.653 187.002 151.716 185.36 152.224C183.737 152.721 182.04 152.938 180.344 152.864C180.152 152.8 179.872 152.8 179.6 152.8Z" fill="#263238"/>
<path d="M154.12 152.944C153.716 155.956 152.144 158.688 149.744 160.552C148.955 161.172 148.075 161.669 147.136 162.024L143.032 174.752C140.008 171.192 138.232 165.856 138.232 159.04C138.253 156.299 138.521 153.565 139.032 150.872C141.136 145.656 143.832 143.48 149.704 142.872C149.992 143.048 155.112 146.528 154.12 152.944Z" fill="#FFA8A7"/>
<path d="M216.8 152.36C213.338 158.391 209.571 164.241 205.512 169.888C204.504 171.232 201.688 174.944 200.216 175.304C198.344 175.768 196.752 174.288 195.752 173.6C192.36 171.248 174.808 153.8 174.808 153.8C169.344 146.184 170.72 141.328 171.464 141.32C172.208 141.312 177.808 139.848 182.6 144.52C186.232 148.064 198.64 160.888 198.64 160.888C201.568 157.448 203.488 155.744 206.408 152.296C207.832 150.616 210 148.808 210.096 146.496C210.086 145.44 209.992 144.386 209.816 143.344C209.639 140.934 209.793 138.512 210.272 136.144C210.282 136.036 210.309 135.931 210.352 135.832C210.43 135.699 210.552 135.598 210.696 135.544C210.965 135.466 211.253 135.479 211.513 135.582C211.774 135.685 211.993 135.871 212.136 136.112C212.411 136.602 212.562 137.151 212.576 137.712C212.59 138.263 212.71 138.806 212.928 139.312C212.974 139.416 213.046 139.507 213.136 139.576C213.238 139.644 213.358 139.677 213.48 139.672C214.144 139.672 214.504 138.952 214.744 138.424C215.322 137.188 215.788 135.903 216.136 134.584C216.376 133.68 216.792 132.808 217.104 131.912C217.226 131.381 217.505 130.899 217.904 130.528C218.624 129.992 219.648 130.288 220.456 130.696C220.902 130.918 221.323 131.186 221.712 131.496C222.863 132.546 223.621 133.957 223.864 135.496C224.188 137.277 224.067 139.109 223.512 140.832C222.826 143.256 221.686 145.529 220.152 147.528C219.064 149.144 217.824 150.672 216.8 152.36Z" fill="#FFA8A7"/>
<path d="M177.752 163.672L177.552 167.952C174.542 171.041 171.133 173.716 167.416 175.904C164.116 177.904 160.445 179.214 156.624 179.752C153.937 180.115 151.201 179.804 148.664 178.848L149.264 176.96L147.12 162.04C147.441 161.735 147.725 161.394 147.968 161.024C148.088 160.856 148.208 160.672 148.344 160.456C148.499 160.216 148.641 159.968 148.768 159.712C148.864 159.536 148.952 159.352 149.048 159.152C149.144 158.952 149.232 158.752 149.328 158.536L149.488 158.176C149.584 157.936 149.68 157.672 149.776 157.376C149.807 157.301 149.834 157.223 149.856 157.144C150.309 155.778 150.63 154.371 150.816 152.944C151.616 147.016 150.144 143.464 149.672 142.856C149.92 142.776 155.376 142.472 155.376 142.472L166.312 141.192L171.552 141.392C175.543 143.858 178.63 147.548 180.352 151.912C183.144 158.784 177.752 163.672 177.752 163.672Z" fill="#FAFAFA"/>
<path opacity="0.1" d="M156.624 179.752C153.937 180.115 151.201 179.804 148.664 178.848L149.264 176.96L147.12 162.04C147.441 161.735 147.725 161.394 147.968 161.024C148.088 160.856 148.208 160.672 148.344 160.456C148.499 160.216 148.641 159.968 148.768 159.712C148.864 159.536 148.952 159.352 149.048 159.152C149.144 158.952 149.232 158.752 149.328 158.536L149.488 158.176C149.584 157.936 149.68 157.672 149.776 157.376C149.807 157.3 149.834 157.223 149.856 157.144C149.808 157.944 149.744 159.192 149.728 160.544C149.705 162.072 149.775 163.6 149.936 165.12C150.416 169.024 154.6 177.536 156.24 178.888C156.382 178.978 156.494 179.109 156.562 179.262C156.63 179.416 156.652 179.586 156.624 179.752Z" fill="black"/>
<path d="M177.2 113.08C178.232 114.312 179.512 117.44 178.456 127.4C177.56 135.84 174.648 137.704 173.224 138.192C171.8 138.68 169.176 138.088 166.632 137.448L166.288 141.568C168.729 143.48 170.821 145.8 172.472 148.424C174.424 151.784 165.096 152.424 159.592 147.232C156.648 144.456 154.792 142.496 154.792 142.496L155.872 130.288C155.872 130.288 154.272 131.64 151.872 129.176C149.904 127.144 149.472 123.952 151.24 122.4C151.702 122.036 152.245 121.787 152.823 121.673C153.4 121.56 153.997 121.585 154.562 121.748C155.128 121.911 155.647 122.205 156.077 122.608C156.506 123.011 156.833 123.51 157.032 124.064C157.032 124.064 161.136 124.56 166.864 122C172.592 119.44 176.56 116.328 177.2 113.08Z" fill="#FFA8A7"/>
<path d="M169.6 124.712C169.606 124.86 169.581 125.007 169.528 125.145C169.474 125.283 169.392 125.408 169.288 125.512C169.184 125.617 169.059 125.699 168.921 125.753C168.784 125.807 168.636 125.832 168.489 125.827C168.341 125.821 168.196 125.785 168.063 125.721C167.93 125.657 167.811 125.566 167.715 125.454C167.619 125.341 167.547 125.21 167.504 125.069C167.461 124.928 167.447 124.779 167.464 124.632C167.458 124.485 167.483 124.337 167.536 124.199C167.59 124.062 167.672 123.937 167.776 123.832C167.88 123.727 168.005 123.645 168.143 123.591C168.28 123.537 168.428 123.512 168.575 123.518C168.723 123.523 168.868 123.559 169.001 123.623C169.134 123.688 169.253 123.779 169.349 123.891C169.445 124.003 169.517 124.134 169.56 124.275C169.604 124.417 169.617 124.565 169.6 124.712Z" fill="#263238"/>
<path d="M168.4 131.408L171.144 132.536C171.078 132.721 170.976 132.89 170.843 133.034C170.711 133.178 170.55 133.294 170.372 133.375C170.193 133.456 170 133.499 169.804 133.504C169.609 133.508 169.414 133.473 169.232 133.4C168.87 133.232 168.583 132.934 168.429 132.566C168.275 132.197 168.265 131.784 168.4 131.408Z" fill="#F28F8F"/>
<path d="M178.336 122.568L176 121.392C176.069 121.235 176.168 121.094 176.293 120.978C176.419 120.861 176.566 120.771 176.727 120.713C176.888 120.656 177.059 120.631 177.23 120.642C177.401 120.653 177.568 120.699 177.72 120.776C178.033 120.939 178.271 121.216 178.386 121.549C178.5 121.883 178.482 122.247 178.336 122.568Z" fill="#263238"/>
<path d="M177.2 125.096C177.184 125.304 177.108 125.502 176.981 125.667C176.853 125.832 176.68 125.955 176.483 126.023C176.286 126.09 176.073 126.098 175.872 126.046C175.67 125.993 175.489 125.883 175.349 125.728C175.21 125.574 175.118 125.382 175.087 125.176C175.056 124.97 175.086 124.759 175.173 124.57C175.26 124.381 175.401 124.222 175.578 124.112C175.755 124.002 175.96 123.946 176.168 123.952C176.311 123.959 176.451 123.995 176.58 124.056C176.71 124.117 176.826 124.204 176.921 124.31C177.017 124.416 177.091 124.54 177.139 124.675C177.187 124.81 177.208 124.953 177.2 125.096Z" fill="#263238"/>
<path d="M172.928 123.568L172.296 130.488L175.752 129.728L172.928 123.568Z" fill="#F28F8F"/>
<path d="M166.632 137.448C163.936 136.864 158.48 134.792 157.832 132.512C158.088 133.661 158.692 134.702 159.56 135.496C161.112 137.096 166.528 139.136 166.528 139.136L166.632 137.448Z" fill="#F28F8F"/>
<path d="M156.408 127.128C156.975 127.128 157.518 126.903 157.918 126.503C158.319 126.102 158.544 125.559 158.544 124.992C158.544 124.426 158.319 123.882 157.918 123.482C157.518 123.081 156.975 122.856 156.408 122.856V127.128Z" fill="#263238"/>
<path d="M289.808 265.504L323.648 243.832L338.552 248.616L289.808 265.504Z" fill="#BA68C8"/>
<path d="M289.808 265.504L319.056 241.112L312.552 233.608L289.808 265.504Z" fill="#BA68C8"/>
<path d="M319.056 241.112V246.776L289.808 265.504L319.056 241.112Z" fill="#BA68C8"/>
<path opacity="0.3" d="M319.056 241.112V246.776L289.808 265.504L319.056 241.112Z" fill="black"/>
<path d="M360.896 92.464L335.936 76.48L324.944 80.008L360.896 92.464Z" fill="#BA68C8"/>
<path d="M360.896 92.464L339.32 74.472L344.12 68.936L360.896 92.464Z" fill="#BA68C8"/>
<path d="M339.32 74.4719V78.6479L360.896 92.4639L339.32 74.4719Z" fill="#BA68C8"/>
<path opacity="0.3" d="M339.32 74.4719V78.6479L360.896 92.4639L339.32 74.4719Z" fill="black"/>
<path d="M334.904 73.2641C334.731 73.2641 334.562 73.2079 334.424 73.1041C334.112 72.8641 333.792 72.6321 333.472 72.4001C333.386 72.3388 333.313 72.2612 333.257 72.1717C333.202 72.0821 333.164 71.9824 333.147 71.8783C333.13 71.7742 333.134 71.6678 333.158 71.5651C333.182 71.4624 333.226 71.3656 333.288 71.2801C333.35 71.1948 333.428 71.1226 333.518 71.0675C333.608 71.0125 333.707 70.9758 333.811 70.9594C333.916 70.9431 334.022 70.9474 334.124 70.9722C334.227 70.9971 334.323 71.0419 334.408 71.1041C334.736 71.3361 335.064 71.5761 335.384 71.8241C335.518 71.9248 335.618 72.0653 335.668 72.2255C335.718 72.3858 335.716 72.5577 335.663 72.717C335.61 72.8763 335.508 73.0149 335.372 73.113C335.236 73.2112 335.072 73.2641 334.904 73.2641Z" fill="#E0E0E0"/>
<path d="M330.4 70.176C330.25 70.1765 330.103 70.1349 329.976 70.056C329.267 69.608 328.547 69.176 327.816 68.76C327.631 68.6539 327.496 68.4789 327.441 68.2733C327.385 68.0678 327.414 67.8486 327.52 67.664C327.626 67.4794 327.801 67.3446 328.007 67.289C328.212 67.2335 328.431 67.2619 328.616 67.368C329.368 67.8 330.104 68.24 330.832 68.696C330.98 68.7878 331.094 68.9254 331.157 69.0879C331.22 69.2504 331.228 69.4289 331.18 69.5964C331.132 69.7638 331.03 69.911 330.891 70.0157C330.752 70.1203 330.582 70.1766 330.408 70.176H330.4ZM324.456 66.896C324.337 66.8971 324.219 66.8696 324.112 66.816C323.36 66.456 322.584 66.104 321.824 65.784C321.723 65.7459 321.631 65.6878 321.554 65.6133C321.476 65.5387 321.414 65.4493 321.372 65.3503C321.329 65.2513 321.308 65.1448 321.307 65.0371C321.307 64.9294 321.329 64.8228 321.371 64.7237C321.413 64.6246 321.475 64.535 321.552 64.4602C321.629 64.3854 321.721 64.3271 321.822 64.2887C321.922 64.2502 322.03 64.2325 322.137 64.2365C322.245 64.2405 322.351 64.2662 322.448 64.312C323.248 64.648 324.048 65 324.8 65.376C324.963 65.4548 325.094 65.5863 325.172 65.7491C325.25 65.9119 325.271 66.0964 325.232 66.2726C325.192 66.4489 325.093 66.6064 324.952 66.7196C324.812 66.8328 324.637 66.895 324.456 66.896ZM318.168 64.344C318.081 64.3424 317.995 64.329 317.912 64.304C317.112 64.04 316.312 63.792 315.512 63.568C315.403 63.5483 315.299 63.5059 315.206 63.4437C315.114 63.3815 315.036 63.3007 314.977 63.2066C314.918 63.1125 314.879 63.0071 314.863 62.8972C314.847 62.7872 314.853 62.6751 314.883 62.5679C314.913 62.4608 314.964 62.361 315.035 62.2749C315.105 62.1887 315.192 62.1182 315.291 62.0678C315.39 62.0174 315.499 61.9882 315.61 61.982C315.721 61.9759 315.832 61.9929 315.936 62.032C316.736 62.256 317.592 62.512 318.408 62.784C318.509 62.8166 318.602 62.8688 318.682 62.9377C318.763 63.0065 318.828 63.0907 318.876 63.1851C318.924 63.2796 318.952 63.3826 318.96 63.4882C318.967 63.5937 318.954 63.6997 318.92 63.8C318.868 63.9539 318.771 64.0883 318.641 64.1854C318.511 64.2826 318.354 64.3379 318.192 64.344H318.168ZM288.992 64.184C288.823 64.1839 288.659 64.1305 288.522 64.0313C288.386 63.9322 288.284 63.7924 288.232 63.632C288.166 63.4315 288.182 63.213 288.276 63.0242C288.371 62.8354 288.536 62.6916 288.736 62.624C289.536 62.344 290.384 62.096 291.208 61.824C291.309 61.7961 291.415 61.7885 291.52 61.8015C291.624 61.8145 291.725 61.848 291.816 61.9C291.907 61.952 291.988 62.0216 292.052 62.1046C292.117 62.1877 292.164 62.2826 292.192 62.384C292.22 62.4854 292.228 62.5913 292.214 62.6956C292.201 62.8 292.168 62.9007 292.116 62.9921C292.064 63.0835 291.994 63.1638 291.911 63.2283C291.828 63.2928 291.733 63.3403 291.632 63.368C290.832 63.592 290.032 63.832 289.232 64.096C289.166 64.1376 289.092 64.1674 289.016 64.184H288.992ZM311.6 62.64H311.448C310.648 62.488 309.8 62.352 308.984 62.248C308.879 62.2344 308.778 62.2002 308.686 62.1473C308.594 62.0945 308.513 62.0241 308.449 61.9402C308.384 61.8562 308.337 61.7604 308.309 61.6581C308.281 61.5558 308.274 61.4491 308.288 61.344C308.302 61.239 308.336 61.1376 308.389 61.0458C308.441 60.954 308.512 60.8734 308.596 60.8088C308.68 60.7442 308.776 60.6967 308.878 60.6691C308.98 60.6415 309.087 60.6344 309.192 60.648C310.04 60.76 310.896 60.896 311.744 61.056C311.956 61.0751 312.152 61.1777 312.289 61.3413C312.425 61.5048 312.491 61.7159 312.472 61.928C312.453 62.1402 312.35 62.3361 312.187 62.4726C312.023 62.6092 311.812 62.6751 311.6 62.656V62.64ZM295.6 62.512C295.495 62.521 295.389 62.5091 295.289 62.4772C295.188 62.4452 295.095 62.3938 295.014 62.3258C294.934 62.2578 294.867 62.1746 294.819 62.081C294.77 61.9874 294.741 61.8851 294.732 61.78C294.723 61.675 294.735 61.5692 294.767 61.4687C294.799 61.3682 294.85 61.275 294.918 61.1944C294.986 61.1138 295.069 61.0474 295.163 60.999C295.257 60.9505 295.359 60.921 295.464 60.912C296.312 60.768 297.176 60.64 298.032 60.544C298.244 60.5196 298.457 60.5805 298.625 60.7133C298.792 60.8461 298.9 61.0399 298.924 61.252C298.948 61.4642 298.887 61.6774 298.755 61.8447C298.622 62.0119 298.428 62.1196 298.216 62.144C297.416 62.24 296.56 62.36 295.736 62.504L295.6 62.512ZM304.896 61.88C304.096 61.88 303.224 61.88 302.392 61.88C302.18 61.88 301.976 61.7957 301.826 61.6457C301.676 61.4957 301.592 61.2922 301.592 61.08C301.592 60.8679 301.676 60.6644 301.826 60.5143C301.976 60.3643 302.18 60.28 302.392 60.28C303.264 60.28 304.12 60.28 304.984 60.28C305.196 60.28 305.4 60.3643 305.55 60.5143C305.7 60.6644 305.784 60.8679 305.784 61.08C305.784 61.2922 305.7 61.4957 305.55 61.6457C305.4 61.7957 305.196 61.88 304.984 61.88H304.896Z" fill="#E0E0E0"/>
<path d="M283.952 66.208C283.771 66.2069 283.596 66.1447 283.455 66.0315C283.315 65.9183 283.216 65.7608 283.176 65.5846C283.137 65.4084 283.157 65.2238 283.236 65.061C283.314 64.8982 283.445 64.7667 283.608 64.688L284.72 64.184C284.816 64.1414 284.92 64.1182 285.025 64.1157C285.13 64.1132 285.234 64.1314 285.332 64.1693C285.431 64.2072 285.52 64.264 285.596 64.3365C285.672 64.409 285.733 64.4959 285.776 64.592C285.819 64.6881 285.842 64.7917 285.844 64.8968C285.847 65.0019 285.829 65.1064 285.791 65.2045C285.753 65.3025 285.696 65.3922 285.623 65.4683C285.551 65.5444 285.464 65.6054 285.368 65.648C285.008 65.8 284.648 65.968 284.288 66.136C284.183 66.184 284.068 66.2086 283.952 66.208Z" fill="#E0E0E0"/>
<path d="M328.936 238.128C328.767 238.127 328.603 238.073 328.468 237.973C328.332 237.873 328.231 237.733 328.179 237.572C328.128 237.411 328.128 237.239 328.181 237.079C328.234 236.918 328.335 236.779 328.472 236.68L329.448 235.984C329.533 235.921 329.63 235.876 329.732 235.851C329.835 235.826 329.941 235.821 330.046 235.837C330.15 235.853 330.25 235.889 330.341 235.944C330.431 235.999 330.509 236.071 330.572 236.156C330.635 236.241 330.68 236.338 330.705 236.44C330.73 236.543 330.735 236.649 330.719 236.754C330.703 236.858 330.666 236.958 330.612 237.048C330.557 237.139 330.485 237.217 330.4 237.28L329.424 237.984C329.281 238.084 329.11 238.134 328.936 238.128Z" fill="#E0E0E0"/>
<path d="M333.128 235.072C333.004 235.072 332.881 235.043 332.77 234.988C332.659 234.932 332.563 234.851 332.488 234.752C332.361 234.582 332.306 234.369 332.336 234.159C332.366 233.949 332.478 233.759 332.648 233.632L334.544 232.192C334.713 232.078 334.918 232.032 335.119 232.064C335.32 232.096 335.502 232.204 335.626 232.365C335.751 232.526 335.809 232.729 335.789 232.932C335.769 233.134 335.673 233.322 335.52 233.456C334.888 233.944 334.256 234.432 333.608 234.912C333.47 235.016 333.301 235.072 333.128 235.072ZM338.16 231.144C337.996 231.143 337.836 231.091 337.703 230.996C337.569 230.901 337.468 230.767 337.413 230.612C337.358 230.458 337.352 230.29 337.395 230.132C337.439 229.974 337.53 229.833 337.656 229.728L339.488 228.208C339.566 228.13 339.66 228.069 339.763 228.029C339.866 227.989 339.976 227.971 340.086 227.975C340.196 227.98 340.305 228.007 340.404 228.056C340.503 228.104 340.591 228.173 340.663 228.257C340.734 228.341 340.787 228.439 340.819 228.545C340.851 228.651 340.86 228.762 340.847 228.872C340.833 228.981 340.797 229.087 340.741 229.182C340.685 229.277 340.61 229.359 340.52 229.424C339.912 229.944 339.288 230.456 338.664 230.968C338.521 231.083 338.343 231.145 338.16 231.144ZM343.008 226.992C342.846 226.993 342.688 226.945 342.553 226.854C342.419 226.763 342.316 226.634 342.257 226.483C342.198 226.332 342.186 226.167 342.223 226.009C342.26 225.852 342.344 225.709 342.464 225.6C343.056 225.064 343.64 224.528 344.208 224C344.282 223.925 344.371 223.865 344.468 223.825C344.566 223.784 344.67 223.763 344.776 223.763C344.882 223.763 344.986 223.784 345.084 223.825C345.181 223.865 345.27 223.925 345.344 224C345.493 224.15 345.577 224.353 345.577 224.564C345.577 224.775 345.493 224.978 345.344 225.128C344.76 225.68 344.176 226.224 343.576 226.768C343.424 226.915 343.22 226.995 343.008 226.992ZM347.6 222.56C347.391 222.561 347.19 222.481 347.04 222.336C346.891 222.186 346.807 221.983 346.807 221.772C346.807 221.561 346.891 221.358 347.04 221.208C347.592 220.632 348.136 220.056 348.64 219.48C348.787 219.339 348.982 219.26 349.185 219.258C349.388 219.256 349.585 219.331 349.734 219.469C349.884 219.606 349.976 219.795 349.991 219.998C350.006 220.201 349.944 220.402 349.816 220.56C349.28 221.152 348.728 221.736 348.168 222.32C348.094 222.396 348.006 222.456 347.908 222.497C347.811 222.538 347.706 222.56 347.6 222.56ZM351.848 217.808C351.661 217.808 351.48 217.743 351.336 217.624C351.254 217.557 351.187 217.475 351.137 217.383C351.087 217.29 351.056 217.188 351.046 217.083C351.035 216.978 351.046 216.873 351.076 216.772C351.107 216.671 351.157 216.577 351.224 216.496C351.728 215.88 352.216 215.264 352.688 214.64C352.82 214.482 353.008 214.38 353.213 214.357C353.417 214.334 353.623 214.391 353.787 214.515C353.951 214.64 354.061 214.823 354.093 215.027C354.125 215.231 354.077 215.439 353.96 215.608C353.48 216.248 352.976 216.88 352.464 217.512C352.39 217.604 352.296 217.678 352.189 217.729C352.083 217.78 351.966 217.807 351.848 217.808ZM355.624 212.664C355.481 212.664 355.34 212.625 355.216 212.552C355.093 212.478 354.992 212.373 354.923 212.247C354.854 212.121 354.821 211.979 354.826 211.836C354.831 211.692 354.875 211.553 354.952 211.432C355.384 210.776 355.8 210.104 356.2 209.432C356.246 209.33 356.313 209.239 356.397 209.164C356.48 209.09 356.578 209.034 356.685 209C356.792 208.965 356.904 208.954 357.016 208.966C357.127 208.978 357.234 209.014 357.331 209.07C357.428 209.126 357.512 209.202 357.577 209.293C357.643 209.383 357.689 209.487 357.712 209.596C357.735 209.706 357.735 209.819 357.711 209.929C357.688 210.038 357.642 210.141 357.576 210.232C357.168 210.928 356.736 211.624 356.296 212.296C356.224 212.409 356.124 212.501 356.007 212.566C355.89 212.63 355.758 212.664 355.624 212.664ZM358.768 207.12C358.649 207.116 358.532 207.089 358.424 207.04C358.329 206.995 358.243 206.931 358.173 206.852C358.102 206.774 358.048 206.682 358.013 206.582C357.978 206.483 357.963 206.377 357.969 206.272C357.975 206.166 358.002 206.063 358.048 205.968C358.392 205.256 358.712 204.536 359.008 203.824C359.048 203.727 359.108 203.639 359.182 203.564C359.257 203.49 359.345 203.431 359.443 203.391C359.54 203.351 359.644 203.33 359.749 203.33C359.855 203.331 359.959 203.352 360.056 203.392C360.153 203.432 360.241 203.492 360.316 203.566C360.39 203.641 360.449 203.729 360.489 203.826C360.529 203.924 360.55 204.028 360.55 204.133C360.549 204.239 360.528 204.343 360.488 204.44C360.184 205.176 359.848 205.92 359.488 206.664C359.423 206.8 359.321 206.915 359.194 206.996C359.066 207.076 358.919 207.12 358.768 207.12ZM361.088 201.184C361.011 201.195 360.933 201.195 360.856 201.184C360.655 201.121 360.487 200.982 360.389 200.796C360.29 200.611 360.268 200.394 360.328 200.192C360.552 199.44 360.76 198.68 360.936 197.928C360.985 197.721 361.114 197.542 361.295 197.43C361.475 197.319 361.693 197.283 361.9 197.332C362.107 197.381 362.286 197.51 362.398 197.691C362.509 197.871 362.545 198.089 362.496 198.296C362.312 199.096 362.096 199.896 361.856 200.696C361.793 200.846 361.685 200.973 361.548 201.06C361.411 201.147 361.25 201.19 361.088 201.184Z" fill="#E0E0E0"/>
<path d="M362.4 194.944H362.296C362.086 194.916 361.896 194.806 361.767 194.638C361.638 194.47 361.581 194.258 361.608 194.048C361.656 193.664 361.696 193.248 361.728 192.888C361.747 192.676 361.85 192.48 362.013 192.343C362.177 192.207 362.388 192.141 362.6 192.16C362.812 192.179 363.008 192.282 363.145 192.445C363.281 192.609 363.347 192.82 363.328 193.032C363.288 193.44 363.24 193.832 363.192 194.248C363.167 194.44 363.073 194.617 362.927 194.745C362.781 194.873 362.594 194.944 362.4 194.944Z" fill="#E0E0E0"/>
</svg>
