<svg width="87" height="64" viewBox="0 0 87 64" fill="none" xmlns="http://www.w3.org/2000/svg">
<path d="M41.4373 58.1078C34.5125 58.1078 27.8713 55.357 22.9747 50.4604C18.0782 45.5638 15.3273 38.9226 15.3273 31.9978C15.3273 25.073 18.0782 18.4318 22.9747 13.5353C27.8713 8.63868 34.5125 5.88781 41.4373 5.88781C47.138 5.88781 52.4035 7.73726 56.6986 10.84C53.704 7.43368 50.0176 4.70493 45.8853 2.83571C41.7529 0.966492 37.2695 -0.00023057 32.734 4.12493e-08C24.2476 4.12493e-08 16.1088 3.37119 10.1081 9.37194C4.10734 15.3727 0.736145 23.5115 0.736145 31.9978C0.735574 36.2002 1.5628 40.3615 3.17059 44.2442C4.77837 48.1269 7.13522 51.6548 10.1066 54.6265C13.0779 57.5982 16.6055 59.9556 20.4879 61.5639C24.3704 63.1722 28.5316 64 32.734 64C42.2859 64 50.8369 59.7919 56.6986 53.1556C52.2624 56.3771 46.9198 58.1108 41.4373 58.1078ZM58.4654 32.9987L69.0835 35.4443L70.0408 46.2931L75.6458 36.9544L86.2639 39.3957L79.1097 31.1797L84.7103 21.8367L74.6884 26.1013L67.5343 17.881L68.4916 28.7341L58.4654 32.9987Z" fill="white"/>
</svg>
