<svg width="48" height="49" viewBox="0 0 48 49" fill="none" xmlns="http://www.w3.org/2000/svg">
<path d="M44.0625 13.0625L44.175 12.9875C43.95 12.575 43.6125 12.2 43.275 12.0125L25.1625 1.58751C24.8625 1.40001 24.45 1.32501 24 1.32501C23.55 1.32501 23.1375 1.43751 22.8375 1.58751L4.8375 12.05C4.2 12.425 3.75 13.3625 3.75 14.075V34.9625C3.75 35.375 3.825 35.825 4.0875 36.2375L4.0125 36.275C4.2 36.575 4.4625 36.8375 4.725 36.9875L22.8 47.45C23.1 47.6375 23.5125 47.7125 23.9625 47.7125C24.4125 47.7125 24.825 47.6 25.125 47.45L43.125 36.9875C43.7625 36.6125 44.2125 35.675 44.2125 34.9625V14.0375C44.25 13.7375 44.2125 13.4 44.0625 13.0625ZM24 33.6875C27.4125 33.6875 30.4125 31.8125 31.9875 29.0375L36.825 31.8875C34.275 36.3125 29.475 39.3125 24 39.3125C15.825 39.3125 9.1875 32.675 9.1875 24.5C9.1875 16.325 15.825 9.68751 24 9.68751C29.5125 9.68751 34.3125 12.725 36.8625 17.1875L31.9875 20C30.4125 17.1875 27.4125 15.3125 24 15.3125C18.9375 15.3125 14.8125 19.4375 14.8125 24.5C14.8125 29.5625 18.9375 33.6875 24 33.6875Z" fill="#03599C"/>
</svg>
