<svg width="48" height="49" viewBox="0 0 48 49" fill="none" xmlns="http://www.w3.org/2000/svg">
<g clip-path="url(#clip0_11_454)">
<path d="M3.285 0.875L7.05563 43.2061L23.9749 47.9236L40.9414 43.1889L44.715 0.875H3.285ZM36.8816 10.5732L35.6265 24.6751L35.6303 24.7512L35.625 24.9264V24.9249L34.7333 34.7851L34.635 35.6611L24 38.6026L23.9918 38.6101L13.3751 35.6521L12.6563 27.5H17.8624L18.2318 31.6452L24.0015 33.209L24 33.212V33.2113L29.7911 31.6254L30.4031 24.875H18.297L18.1931 23.7339L17.9565 21.0605L17.8324 19.625H30.8633L31.3373 14.375H11.49L11.3861 13.2346L11.1499 10.5605L11.0254 9.125H37.0058L36.8816 10.5732Z" fill="#1572B6"/>
</g>
<defs>
<clipPath id="clip0_11_454">
<rect width="48" height="48" fill="white" transform="translate(0 0.5)"/>
</clipPath>
</defs>
</svg>
