<svg width="48" height="49" viewBox="0 0 48 49" fill="none" xmlns="http://www.w3.org/2000/svg">
<g clip-path="url(#clip0_11_419)">
<path d="M12.9014 13.4882L9.8172 10.4041V32.6448L9.86063 33.6873C9.86063 34.1652 9.94752 34.7299 10.1213 35.2946L34.5339 43.8955L40.6154 41.2023L12.9014 13.4882Z" fill="#00C4B3"/>
<path d="M40.6154 41.2023L34.5339 43.8955L10.1647 35.2946C10.6425 37.0756 11.6416 39.0737 12.771 40.2032L20.7203 48.109L38.4434 48.1525L40.6154 41.2023Z" fill="#22D3C5"/>
<path d="M9.90407 10.4041L0.434384 24.7389C-0.347516 25.5643 0.0434341 27.3018 1.30316 28.605L6.77647 34.1217L10.2081 35.338C10.0778 34.7733 9.94751 34.2086 9.94751 33.7308L9.90407 32.6882V10.4041Z" fill="#0075C9"/>
<path d="M34.7077 10.6647C34.143 10.5344 33.5783 10.4475 33.1005 10.4041L32.0145 10.3606H9.8172L40.6154 41.1588L43.3086 35.0774L34.7077 10.6647Z" fill="#0075C9"/>
<path d="M39.6163 13.271C38.4869 12.1416 36.5321 11.0991 34.7077 10.6647L43.3086 35.0774L40.6154 41.1588L47.2181 39.0303V20.9163L39.6163 13.271Z" fill="#00A8E1"/>
<path d="M33.4914 7.27646L27.9746 1.80316C26.7149 0.543434 24.9774 0.152484 24.1086 0.934384L9.77374 10.4041H31.971L33.057 10.4475C33.5348 10.4475 34.0995 10.5344 34.6642 10.7081L33.4914 7.27646Z" fill="#00C4B3"/>
</g>
<defs>
<clipPath id="clip0_11_419">
<rect width="48" height="48" fill="white" transform="translate(0 0.5)"/>
</clipPath>
</defs>
</svg>
