<svg width="48" height="49" viewBox="0 0 48 49" fill="none" xmlns="http://www.w3.org/2000/svg">
<g clip-path="url(#clip0_11_458)">
<path d="M17.0625 48.875C21.525 48.875 25.125 45.275 25.125 40.8125V32.75H17.0625C12.6 32.75 9 36.35 9 40.8125C9 45.275 12.6 48.875 17.0625 48.875Z" fill="#0ACF83"/>
<path d="M9 24.6875C9 20.225 12.6 16.625 17.0625 16.625H25.125V32.75H17.0625C12.6 32.75 9 29.15 9 24.6875Z" fill="#A259FF"/>
<path d="M9 8.5625C9 4.1 12.6 0.5 17.0625 0.5H25.125V16.625H17.0625C12.6 16.625 9 13.025 9 8.5625Z" fill="#F24E1E"/>
<path d="M25.125 0.5H33.1875C37.65 0.5 41.25 4.1 41.25 8.5625C41.25 13.025 37.65 16.625 33.1875 16.625H25.125V0.5Z" fill="#FF7262"/>
<path d="M41.25 24.6875C41.25 29.15 37.65 32.75 33.1875 32.75C28.725 32.75 25.125 29.15 25.125 24.6875C25.125 20.225 28.725 16.625 33.1875 16.625C37.65 16.625 41.25 20.225 41.25 24.6875Z" fill="#1ABCFE"/>
</g>
<defs>
<clipPath id="clip0_11_458">
<rect width="48" height="48" fill="white" transform="translate(0 0.5)"/>
</clipPath>
</defs>
</svg>
