<svg width="72" height="72" viewBox="0 0 72 72" fill="none" xmlns="http://www.w3.org/2000/svg">
<path d="M66.312 33.1943L38.8057 5.68802C38.4295 5.31045 37.9824 5.01087 37.4901 4.80646C36.9978 4.60205 36.47 4.49683 35.937 4.49683C35.404 4.49683 34.8762 4.60205 34.3839 4.80646C33.8916 5.01087 33.4445 5.31045 33.0682 5.68802L27.3555 11.4008L34.6005 18.6458C35.4548 18.355 36.3737 18.3101 37.2523 18.5162C38.1309 18.7222 38.934 19.1709 39.57 19.8112C40.206 20.4514 40.6494 21.2574 40.8496 22.1374C41.0499 23.0174 40.9989 23.9359 40.7025 24.7883L47.6775 31.7633C48.7201 31.4051 49.8539 31.415 50.8901 31.7913C51.9263 32.1677 52.8022 32.8877 53.372 33.8315C53.9417 34.7752 54.1708 35.8857 54.0212 36.9779C53.8716 38.0701 53.3522 39.0781 52.5496 39.8338C51.747 40.5896 50.7097 41.0475 49.6105 41.1312C48.5112 41.215 47.4165 40.9196 46.5087 40.2942C45.6008 39.6688 44.9347 38.7512 44.6213 37.6943C44.3079 36.6374 44.3661 35.505 44.7862 34.4858L38.2725 27.972V45.1103C39.2592 45.5992 40.0486 46.4113 40.5093 47.4116C40.97 48.4118 41.074 49.5396 40.8042 50.6072C40.5343 51.6748 39.9069 52.6178 39.0263 53.279C38.1457 53.9402 37.0651 54.2797 35.9646 54.241C34.8641 54.2023 33.8101 53.7878 32.9781 53.0664C32.1461 52.345 31.5863 51.3603 31.3921 50.2764C31.1979 49.1925 31.3809 48.0747 31.9106 47.1093C32.4404 46.1439 33.2849 45.3892 34.3035 44.9708V27.675C33.7142 27.4332 33.1786 27.0773 32.7275 26.6276C32.2763 26.1779 31.9186 25.6434 31.675 25.0549C31.4314 24.4663 31.3066 23.8354 31.3078 23.1985C31.309 22.5615 31.4363 21.9311 31.6822 21.3435L24.5497 14.2065L5.68799 33.075C5.31008 33.4513 5.01022 33.8986 4.80561 34.391C4.601 34.8835 4.49567 35.4116 4.49567 35.9449C4.49567 36.4782 4.601 37.0063 4.80561 37.4987C5.01022 37.9912 5.31008 38.4385 5.68799 38.8148L33.1942 66.312C33.5705 66.6896 34.0176 66.9892 34.5099 67.1936C35.0022 67.398 35.53 67.5032 36.063 67.5032C36.596 67.5032 37.1238 67.398 37.6161 67.1936C38.1084 66.9892 38.5555 66.6896 38.9317 66.312L66.312 38.925C66.6899 38.5487 66.9898 38.1015 67.1944 37.609C67.399 37.1165 67.5043 36.5884 67.5043 36.0551C67.5043 35.5218 67.399 34.9938 67.1944 34.5013C66.9898 34.0088 66.6899 33.5616 66.312 33.1853" fill="#DD4C35"/>
<path d="M27.3555 11.4006L34.6005 18.6456C35.4548 18.3549 36.3737 18.31 37.2523 18.516C38.1309 18.7221 38.934 19.1708 39.57 19.811C40.206 20.4513 40.6494 21.2573 40.8496 22.1373C41.0499 23.0172 40.9989 23.9357 40.7025 24.7881L47.6775 31.7631C48.7201 31.405 49.8539 31.4149 50.8901 31.7912C51.9263 32.1675 52.8022 32.8876 53.372 33.8313C53.9417 34.7751 54.1708 35.8856 54.0212 36.9778C53.8716 38.07 53.3522 39.078 52.5496 39.8337C51.747 40.5894 50.7097 41.0473 49.6105 41.1311C48.5112 41.2149 47.4165 40.9194 46.5087 40.2941C45.6008 39.6687 44.9347 38.7511 44.6213 37.6941C44.3079 36.6372 44.3661 35.5048 44.7862 34.4856L38.2725 27.9719V45.1101C39.2592 45.599 40.0487 46.4112 40.5093 47.4114C40.97 48.4116 41.0741 49.5395 40.8042 50.6071C40.5344 51.6747 39.9069 52.6176 39.0263 53.2788C38.1457 53.94 37.0651 54.2796 35.9646 54.2409C34.8641 54.2022 33.8101 53.7877 32.9781 53.0663C32.1461 52.3449 31.5863 51.3602 31.3921 50.2763C31.1979 49.1924 31.3809 48.0746 31.9106 47.1092C32.4404 46.1438 33.2849 45.389 34.3035 44.9706V27.6749C33.7142 27.4331 33.1786 27.0771 32.7275 26.6274C32.2763 26.1778 31.9187 25.6433 31.675 25.0547C31.4314 24.4662 31.3066 23.8353 31.3078 23.1983C31.309 22.5614 31.4363 21.931 31.6822 21.3434L24.5497 14.2064" fill="white"/>
</svg>
