<svg width="72" height="72" viewBox="0 0 72 72" fill="none" xmlns="http://www.w3.org/2000/svg">
<path d="M36 6C32.0603 6 28.1593 6.77597 24.5195 8.28361C20.8797 9.79126 17.5726 12.001 14.7868 14.7868C9.16071 20.4129 6 28.0435 6 36C6 49.26 14.61 60.51 26.52 64.5C28.02 64.74 28.5 63.81 28.5 63V57.93C20.19 59.73 18.42 53.91 18.42 53.91C17.04 50.43 15.09 49.5 15.09 49.5C12.36 47.64 15.3 47.7 15.3 47.7C18.3 47.91 19.89 50.79 19.89 50.79C22.5 55.35 26.91 54 28.62 53.28C28.89 51.33 29.67 50.01 30.51 49.26C23.85 48.51 16.86 45.93 16.86 34.5C16.86 31.17 18 28.5 19.95 26.37C19.65 25.62 18.6 22.5 20.25 18.45C20.25 18.45 22.77 17.64 28.5 21.51C30.87 20.85 33.45 20.52 36 20.52C38.55 20.52 41.13 20.85 43.5 21.51C49.23 17.64 51.75 18.45 51.75 18.45C53.4 22.5 52.35 25.62 52.05 26.37C54 28.5 55.14 31.17 55.14 34.5C55.14 45.96 48.12 48.48 41.43 49.23C42.51 50.16 43.5 51.99 43.5 54.78V63C43.5 63.81 43.98 64.77 45.51 64.5C57.42 60.48 66 49.26 66 36C66 32.0603 65.224 28.1593 63.7164 24.5195C62.2087 20.8797 59.999 17.5726 57.2132 14.7868C54.4274 12.001 51.1203 9.79126 47.4805 8.28361C43.8407 6.77597 39.9397 6 36 6Z" fill="black"/>
</svg>
