<svg width="72" height="72" viewBox="0 0 72 72" fill="none" xmlns="http://www.w3.org/2000/svg">
<path d="M66.375 29.6999V29.4749L57.825 7.19994C57.6 6.74994 57.375 6.29994 56.925 6.07494C56.025 5.62494 55.125 5.62494 54.225 6.29994C54 6.52494 53.55 6.74994 53.55 7.19994L47.7 24.9749H24.3L18.45 7.19994C18.45 6.74994 18 6.52494 17.775 6.07494C16.875 5.62494 15.975 5.39994 15.075 6.07494C14.625 6.29994 14.4 6.52494 14.175 6.97494L5.62501 29.2499V29.4749C3.15001 35.9999 5.17501 43.6499 10.8 47.9249L23.85 57.5999L30.375 62.5499L34.2 65.4749C35.1 66.1499 36.45 66.1499 37.35 65.4749L41.175 62.5499L47.7 57.5999L60.75 47.6999C66.825 43.8749 69.075 36.2249 66.375 29.6999Z" fill="#E24329"/>
<path d="M66.375 29.7001V29.4751C62.1 30.3751 58.275 32.1751 54.9 34.6501L36 48.8251C42.525 53.7751 47.925 57.8251 47.925 57.8251L60.975 47.9251C66.825 43.8751 69.075 36.2251 66.375 29.7001Z" fill="#FC6D26"/>
<path d="M24.075 58.05L30.6 63.0001L34.425 65.925C35.325 66.6 36.675 66.6 37.575 65.925L41.4 63.0001L47.925 58.05C47.925 58.05 42.3 53.775 36 49.05C29.475 53.775 24.075 58.05 24.075 58.05Z" fill="#FCA326"/>
<path d="M17.1 34.6501C13.725 32.1751 9.67501 30.3751 5.62501 29.4751V29.7001C3.15001 36.2251 5.17501 43.8751 10.8 48.1501L23.85 57.8251C23.85 57.8251 29.475 53.5501 35.775 48.8251L17.1 34.6501Z" fill="#FC6D26"/>
</svg>
