<svg width="48" height="49" viewBox="0 0 48 49" fill="none" xmlns="http://www.w3.org/2000/svg">
<g clip-path="url(#clip0_11_432)">
<path d="M0 0.5H48V48.5H0V0.5Z" fill="#F7DF1E"/>
<path d="M12.6209 40.6123L16.2942 38.3893C17.0029 39.6458 17.6475 40.7088 19.1938 40.7088C20.676 40.7088 21.6105 40.129 21.6105 37.8738V22.5367H26.1213V37.9376C26.1213 42.6096 23.3827 44.7361 19.3872 44.7361C15.7787 44.7361 13.6841 42.8672 12.6208 40.6119" fill="black"/>
<path d="M28.5714 40.129L32.2442 38.0024C33.2111 39.5814 34.4677 40.7412 36.6908 40.7412C38.5598 40.7412 39.7517 39.8067 39.7517 38.5179C39.7517 36.9713 38.5274 36.4235 36.4652 35.5216L35.3378 35.038C32.0833 33.6528 29.9245 31.9129 29.9245 28.2397C29.9245 24.8565 32.5021 22.2787 36.5298 22.2787C39.3975 22.2787 41.4596 23.2777 42.9415 25.8876L39.4295 28.1429C38.6561 26.7575 37.8187 26.2099 36.5299 26.2099C35.2088 26.2099 34.371 27.0476 34.371 28.1429C34.371 29.4962 35.2088 30.0441 37.1418 30.8819L38.2695 31.3651C42.1038 33.0085 44.2626 34.6838 44.2626 38.4535C44.2626 42.5135 41.0728 44.7365 36.7876 44.7365C32.5989 44.7365 29.8922 42.7389 28.5714 40.129Z" fill="black"/>
</g>
<defs>
<clipPath id="clip0_11_432">
<rect width="48" height="48" fill="white" transform="translate(0 0.5)"/>
</clipPath>
</defs>
</svg>
