<svg width="73" height="72" viewBox="0 0 73 72" fill="none" xmlns="http://www.w3.org/2000/svg">
<g clip-path="url(#clip0_108_565)">
<path d="M1.1323 44.2964C0.972095 43.6135 1.78568 43.1834 2.28169 43.6794L28.5706 69.9683C29.0666 70.4643 28.6365 71.2779 27.9536 71.1177C14.6871 68.0056 4.24441 57.5629 1.1323 44.2964ZM0.251362 33.7601C0.238658 33.9641 0.31535 34.1633 0.459853 34.3078L37.9422 71.7901C38.0867 71.9346 38.2859 72.0115 38.4899 71.9986C40.1957 71.8923 41.8694 71.6674 43.5028 71.332C44.0532 71.2189 44.2444 70.5426 43.8471 70.1453L2.10468 28.4029C1.70734 28.0055 1.03104 28.1968 0.917999 28.7472C0.58254 30.3806 0.357608 32.0543 0.251362 33.7601ZM3.28187 21.3879C3.162 21.657 3.22305 21.9715 3.43138 22.1799L50.0701 68.8186C50.2785 69.0269 50.593 69.088 50.8621 68.9681C52.1481 68.3953 53.3944 67.7494 54.5957 67.0356C54.9932 66.7995 55.0545 66.2532 54.7276 65.9263L6.32368 17.5224C5.99673 17.1955 5.45052 17.2568 5.21434 17.6543C4.50059 18.8556 3.85467 20.1019 3.28187 21.3879ZM9.36426 13.0133C9.09779 12.7468 9.0813 12.3194 9.33237 12.0383C15.9312 4.6507 25.5302 0 36.2154 0C56.1167 0 72.25 16.1332 72.25 36.0346C72.25 46.7198 67.5993 56.3187 60.2117 62.9176C59.9307 63.1687 59.5032 63.1522 59.2367 62.8857L9.36426 13.0133Z" fill="#5E6AD2"/>
</g>
<defs>
<clipPath id="clip0_108_565">
<rect width="72" height="72" fill="white" transform="translate(0.25)"/>
</clipPath>
</defs>
</svg>
