<svg width="36" height="36" viewBox="0 0 36 36" fill="none" xmlns="http://www.w3.org/2000/svg">
<g clip-path="url(#clip0_23_690)">
<path d="M30.6735 30.6742H25.3395V22.3207C25.3395 20.3287 25.3039 17.7644 22.5653 17.7644C19.7871 17.7644 19.362 19.9348 19.362 22.1757V30.6736H14.028V13.4954H19.1486V15.843H19.2203C19.7328 14.9668 20.4733 14.246 21.363 13.7573C22.2527 13.2686 23.2583 13.0305 24.2727 13.0681C29.679 13.0681 30.6758 16.6242 30.6758 21.2505L30.6735 30.6742ZM8.0093 11.1474C6.29972 11.1477 4.91358 9.762 4.9133 8.05242C4.91302 6.34284 6.29859 4.9567 8.00817 4.95642C9.71775 4.956 11.1039 6.34171 11.1042 8.05129C11.1043 8.87227 10.7783 9.65968 10.1979 10.2403C9.61755 10.8209 8.83027 11.1472 8.0093 11.1474ZM10.6764 30.6743H5.33672V13.4954H10.6763V30.6742L10.6764 30.6743ZM33.3328 0.00262011H2.65641C1.20656 -0.0136924 0.0175786 1.14773 -0.00014019 2.59757V33.4019C0.0170161 34.8524 1.20586 36.015 2.65627 35.9998H33.3328C34.7863 36.0178 35.9797 34.8553 35.9999 33.4019V2.59518C35.9792 1.14253 34.7856 -0.0187549 33.3328 0.000229485" fill="#0A66C2"/>
</g>
<defs>
<clipPath id="clip0_23_690">
<rect width="36" height="36" fill="white"/>
</clipPath>
</defs>
</svg>
