<svg width="48" height="48" viewBox="0 0 48 48" fill="none" xmlns="http://www.w3.org/2000/svg">
<path d="M45 24C45 29.55 44.1 34.05 42.9 34.05C41.7 34.05 40.8 29.55 40.8 24C40.8 18.45 41.7 13.95 42.9 13.95C44.1 13.95 45 18.45 45 24ZM39.75 24C39.75 30.15 37.05 35.25 33.9 35.25C30.75 35.25 28.05 30.15 28.05 24C28.05 17.85 30.75 12.75 33.9 12.75C37.05 12.75 39.75 17.85 39.75 24ZM26.7 24C26.7 30.6 21.45 36 14.85 36C8.25 36 3 30.6 3 24C3 17.4 8.25 12 14.85 12C21.45 12 26.7 17.4 26.7 24Z" fill="black"/>
</svg>
