<svg width="48" height="49" viewBox="0 0 48 49" fill="none" xmlns="http://www.w3.org/2000/svg">
<g clip-path="url(#clip0_11_442)">
<mask id="mask0_11_442" style="mask-type:luminance" maskUnits="userSpaceOnUse" x="0" y="0" width="48" height="49">
<path d="M48 0.5H0V48.5H48V0.5Z" fill="white"/>
</mask>
<g mask="url(#mask0_11_442)">
<path d="M22.4282 0.512919C22.325 0.522303 21.9964 0.555148 21.7008 0.578608C14.8833 1.19327 8.49736 4.87186 4.45278 10.5258C2.20058 13.6695 0.760118 17.2355 0.215836 21.0126C0.0234604 22.3312 0 22.7206 0 24.5082C0 26.296 0.0234604 26.6854 0.215836 28.0038C1.52023 37.0174 7.93432 44.5904 16.6334 47.3962C18.1912 47.8982 19.8334 48.2408 21.7008 48.4472C22.4282 48.527 25.5718 48.527 26.2992 48.4472C29.5226 48.0906 32.2534 47.293 34.9466 45.9182C35.3596 45.707 35.4392 45.6508 35.383 45.6038C35.3454 45.5756 33.586 43.2156 31.4744 40.3628L27.6364 35.178L22.827 28.0602C20.1806 24.147 18.0035 20.947 17.9848 20.947C17.966 20.9422 17.9472 24.1048 17.9378 27.9662C17.9238 34.7276 17.9191 34.9998 17.8346 35.1592C17.7126 35.3892 17.6188 35.483 17.4217 35.5862C17.2716 35.6614 17.1402 35.6754 16.4317 35.6754H15.6199L15.4041 35.5394C15.2633 35.4502 15.1601 35.3328 15.0897 35.1968L14.9912 34.9856L15.0006 25.578L15.0147 16.1657L15.1601 15.9827C15.2352 15.8842 15.3947 15.7575 15.5073 15.6965C15.6997 15.6027 15.7748 15.5933 16.5865 15.5933C17.5437 15.5933 17.7032 15.6308 17.9519 15.9029C18.0223 15.978 20.6264 19.9006 23.742 24.6256C26.8574 29.3504 31.1178 35.802 33.2106 38.9692L37.0112 44.7264L37.2036 44.5998C38.9068 43.4924 40.7086 41.9158 42.1348 40.2736C45.1706 36.7874 47.1272 32.5364 47.7842 28.0038C47.9766 26.6854 48 26.296 48 24.5082C48 22.7206 47.9766 22.3312 47.7842 21.0126C46.4798 11.9991 40.0656 4.42612 31.3666 1.62025C29.8322 1.12289 28.1994 0.780368 26.3696 0.573916C25.919 0.526995 22.8176 0.475382 22.4282 0.512919ZM32.2534 15.0302C32.4786 15.1428 32.6616 15.3587 32.7272 15.5839C32.7648 15.7059 32.7742 18.3147 32.7648 24.1938L32.7508 32.6302L31.2634 30.3498L29.7712 28.0696V21.937C29.7712 17.9722 29.79 15.7434 29.8182 15.6355C29.8932 15.3727 30.0574 15.1663 30.2826 15.0443C30.475 14.9458 30.5454 14.9364 31.2822 14.9364C31.9766 14.9364 32.0986 14.9458 32.2534 15.0302Z" fill="black"/>
</g>
</g>
<defs>
<clipPath id="clip0_11_442">
<rect width="48" height="48" fill="white" transform="translate(0 0.5)"/>
</clipPath>
</defs>
</svg>
