<svg width="48" height="49" viewBox="0 0 48 49" fill="none" xmlns="http://www.w3.org/2000/svg">
<g clip-path="url(#clip0_11_464)">
<path fill-rule="evenodd" clip-rule="evenodd" d="M18.8422 16.106C17.4615 15.7591 16.0789 15.8705 14.6198 16.0978C14.6198 18.6496 14.6145 21.1329 14.6336 23.6165C14.6344 23.7436 14.8252 23.9649 14.949 23.9818C16.5401 24.1966 18.1226 24.2139 19.6106 23.4886C21.15 22.7386 21.9341 21.1704 21.7309 19.3291C21.5464 17.6525 20.5537 16.5361 18.8422 16.106ZM47.625 24.4861V1.73188C47.625 0.945875 47.6336 0.875 46.8705 0.875H1.30463C0.5625 0.875 0.375 0.94625 0.375 1.69475V47.2606C0.375 48.0174 0.4695 48.0185 1.20338 48.0185C16.4115 48.0189 31.665 48.0151 46.8731 48.0324C47.463 48.0331 47.6213 47.876 47.6198 47.2978C47.5995 39.6939 47.625 32.0893 47.625 24.4861ZM21.132 26.6761C19.0481 27.4194 16.875 27.461 14.625 27.2866V35.75H10.5V35.2243C10.5 28.1386 10.4674 21.0538 10.4475 13.9685C10.4453 13.3801 10.5386 13.0959 11.2016 13.0284C14.3261 12.7089 17.433 12.3496 20.5399 13.0783C23.8796 13.8609 25.8053 16.0689 25.9515 19.1195C26.1326 22.8973 24.4725 25.4848 21.132 26.6761ZM37.7483 31.4589C37.5893 33.623 36.369 35.0439 34.3676 35.7309C31.6894 36.6504 29.0257 36.437 26.4082 35.3968C25.9796 35.2261 25.8967 35.0101 26.0381 34.5733C26.2957 33.776 26.4844 32.9563 26.6831 32.216C27.7897 32.5408 28.842 32.9461 29.9321 33.1378C30.702 33.2731 31.5341 33.1936 32.3167 33.071C33.0184 32.9608 33.5231 32.4845 33.6383 31.7315C33.7553 30.9661 33.5246 30.3031 32.8489 29.8959C32.3119 29.5726 31.7201 29.3413 31.1527 29.0701C30.2404 28.634 29.268 28.292 28.4265 27.7464C25.1149 25.5988 26.193 21.6028 28.4029 20.0979C29.5852 19.2931 30.8936 18.9361 32.2942 18.887C33.9416 18.8293 35.5279 19.1135 37.086 19.8706L36.2629 22.7915C35.6104 22.5605 35.0029 22.2605 34.3616 22.1413C33.6007 21.9995 32.8027 21.9204 32.0348 21.983C31.005 22.0674 30.402 22.778 30.402 23.6593C30.402 24.1813 30.6 24.623 31.0354 24.8761C31.6601 25.2395 32.3231 25.5391 32.9801 25.8433C33.6911 26.1721 34.4419 26.4249 35.1263 26.8003C36.9525 27.8015 37.9031 29.3503 37.7483 31.4589Z" fill="#80B5E2"/>
</g>
<defs>
<clipPath id="clip0_11_464">
<rect width="48" height="48" fill="white" transform="translate(0 0.5)"/>
</clipPath>
</defs>
</svg>
