<svg width="50" height="49" viewBox="0 0 50 49" fill="none" xmlns="http://www.w3.org/2000/svg">
<g clip-path="url(#clip0_109_567)">
<path d="M41.836 0.5H9.00402C4.49738 0.5 0.844025 4.15336 0.844025 8.66V40.2632C0.844025 44.7698 4.49738 48.4232 9.00402 48.4232H41.836C46.3427 48.4232 49.996 44.7698 49.996 40.2632V8.66C49.996 4.15336 46.3427 0.5 41.836 0.5Z" fill="#001E36"/>
<path d="M11.9117 34.1067V13.037C11.9117 12.8834 11.9777 12.8062 12.1096 12.8062L12.3183 12.8057L12.6751 12.8018L13.1708 12.792L14.8316 12.7569L16.6124 12.7239C17.2387 12.7131 17.8597 12.7074 18.4752 12.7074C20.1456 12.7074 21.5524 12.9163 22.6957 13.3339C23.7271 13.6827 24.6677 14.2572 25.449 15.0154C26.1114 15.6727 26.6233 16.4658 26.9493 17.3401C27.2578 18.1909 27.4141 19.0894 27.4111 19.9943C27.4111 21.7533 27.0042 23.204 26.1909 24.3468C25.3954 25.4617 24.2858 26.3143 23.0037 26.7959L22.8937 26.8363C21.5549 27.3357 20.0723 27.5161 18.4462 27.5275L18.1935 27.5282L17.8186 27.5263L17.6294 27.5236L17.4186 27.5186L17.2915 27.5136L17.2143 27.5096L17.0245 27.5027L16.7923 27.4979L16.4429 27.4954L16.3651 27.4952V34.0737C16.3709 34.114 16.3672 34.1551 16.3543 34.1938C16.3415 34.2324 16.3198 34.2676 16.291 34.2964C16.2622 34.3252 16.227 34.3469 16.1884 34.3597C16.1497 34.3726 16.1086 34.3763 16.0683 34.3705H12.1427C11.9885 34.3705 11.9117 34.283 11.9117 34.1067ZM16.3653 16.763V23.635C16.6285 23.6563 16.8923 23.6673 17.1564 23.6681H18.2446C18.9949 23.6655 19.7408 23.5539 20.4589 23.3365L20.6022 23.2918C21.2555 23.0977 21.8392 22.72 22.2839 22.2035C22.6971 21.7162 22.9112 21.0448 22.926 20.189L22.9269 20.0932C22.9442 19.4554 22.7783 18.826 22.4486 18.2798C22.1022 17.7515 21.6014 17.3428 21.0144 17.1092C20.2479 16.8113 19.4292 16.6711 18.6073 16.6971L18.1891 16.6983L17.9253 16.7006L17.6736 16.7038L17.3184 16.7108L17.0592 16.7181L16.9246 16.723L16.7447 16.7315L16.5915 16.7409L16.5041 16.7478L16.4287 16.7551L16.3955 16.759L16.3653 16.763ZM40.1599 22.3855C39.5847 22.0899 38.9746 21.8679 38.3439 21.7246L38.198 21.6932C37.5042 21.534 36.796 21.4463 36.0843 21.4315L35.9065 21.4294C35.4893 21.418 35.0727 21.4681 34.67 21.5778C34.4137 21.6348 34.1858 21.7807 34.0268 21.9898C33.9194 22.1571 33.8622 22.3516 33.8621 22.5504C33.8681 22.7432 33.9376 22.9286 34.0598 23.0779C34.2348 23.2825 34.4452 23.454 34.681 23.5842L34.7524 23.622C35.2225 23.8751 35.7069 24.1008 36.2031 24.2978C37.3097 24.6683 38.3671 25.1721 39.3519 25.7981C40.0229 26.2216 40.5782 26.8052 40.9678 27.4964C41.2954 28.1507 41.4594 28.8748 41.4459 29.6064C41.4656 30.5727 41.1895 31.522 40.6545 32.3269C40.0817 33.1438 39.2862 33.779 38.3628 34.1566C37.3957 34.5817 36.2079 34.8012 34.7998 34.8156L34.6535 34.8164C33.7806 34.8252 32.9089 34.7488 32.0508 34.5883L31.8672 34.5525C31.1447 34.4201 30.4414 34.1985 29.7734 33.893C29.7063 33.8584 29.6496 33.8065 29.609 33.7428C29.5685 33.679 29.5456 33.6056 29.5427 33.5302V29.9363C29.5387 29.9014 29.5443 29.8661 29.5588 29.8342C29.5734 29.8022 29.5963 29.7748 29.6252 29.7549C29.6535 29.7389 29.686 29.7319 29.7184 29.7348C29.7508 29.7378 29.7815 29.7505 29.8065 29.7714C30.5953 30.2365 31.4519 30.5758 32.3453 30.7771C33.1328 30.9745 33.9406 31.0796 34.7524 31.0904C35.5215 31.0904 36.0876 30.9913 36.4504 30.7936C36.6143 30.7186 36.7529 30.5977 36.8495 30.4455C36.946 30.2934 36.9964 30.1165 36.9946 29.9363C36.9946 29.651 36.8296 29.376 36.5 29.112C36.3617 29.0014 36.1634 28.8811 35.9053 28.7511L35.7819 28.6904L35.6502 28.6284L35.5811 28.5969L35.4363 28.5328C35.4112 28.5218 35.386 28.5109 35.3608 28.5001L35.2034 28.4341L35.1214 28.4005L34.9513 28.3323L34.863 28.2978L34.68 28.2273L34.4886 28.1557C33.4532 27.7953 32.4715 27.2962 31.5704 26.6719C30.9259 26.2237 30.3952 25.6308 30.0207 24.9408C29.6965 24.2911 29.5325 23.5732 29.5427 22.8471C29.5408 21.9747 29.7804 21.1188 30.235 20.3741C30.7534 19.5543 31.4976 18.9015 32.3783 18.4948C33.3454 18.0116 34.5542 17.7696 36.0052 17.7693C36.855 17.7624 37.704 17.8231 38.5442 17.9507C39.1526 18.0279 39.7474 18.1887 40.3117 18.4288C40.4026 18.4549 40.4757 18.5219 40.5095 18.6102C40.532 18.6907 40.5429 18.7738 40.5425 18.8575V22.1878C40.5473 22.2665 40.5095 22.3419 40.4437 22.3855C40.3996 22.4074 40.351 22.4188 40.3018 22.4188C40.2525 22.4188 40.204 22.4074 40.1599 22.3855Z" fill="#31A8FF"/>
</g>
<defs>
<clipPath id="clip0_109_567">
<rect width="49.16" height="48" fill="white" transform="translate(0.840027 0.5)"/>
</clipPath>
</defs>
</svg>
