<svg width="73" height="72" viewBox="0 0 73 72" fill="none" xmlns="http://www.w3.org/2000/svg">
<g clip-path="url(#clip0_23_536)">
<path d="M71.9555 40.5712C74.4753 20.8468 60.5455 2.81391 40.8572 0.294469C21.1688 -2.22525 3.06391 11.7045 0.544469 31.3928C-1.97525 51.0812 11.9545 69.1501 31.6428 71.7055C51.3672 74.2253 69.4001 60.2955 71.9555 40.5712Z" fill="#FF6C37"/>
<path d="M49.2437 23.1142L34.0543 38.3037L29.7708 34.0202C44.7083 19.0831 46.1843 20.3788 49.2437 23.1142Z" fill="white"/>
<path d="M34.0543 38.6634C33.9463 38.6634 33.8743 38.6274 33.8023 38.5554L29.4831 34.2723C29.449 34.2398 29.4219 34.2007 29.4033 34.1574C29.3848 34.1141 29.3752 34.0675 29.3752 34.0204C29.3752 33.9733 29.3848 33.9267 29.4033 33.8834C29.4219 33.8401 29.449 33.8011 29.4831 33.7686C44.6723 18.5791 46.256 20.0188 49.4595 22.8983C49.5315 22.9703 49.5675 23.0423 49.5675 23.1503C49.5675 23.2583 49.5315 23.3303 49.4595 23.4023L34.2703 38.5554C34.2343 38.6274 34.1263 38.6634 34.0543 38.6634ZM30.2751 34.0203L34.0543 37.7997L48.7037 23.1503C46.0403 20.7748 44.2403 20.0545 30.2751 34.0203Z" fill="#FF6C37"/>
<path d="M38.4094 42.6589L34.2703 38.5195L49.4595 23.3303C53.5269 27.4338 47.444 34.0924 38.4094 42.6589Z" fill="white"/>
<path d="M38.4094 43.0189C38.3014 43.0189 38.2294 42.9829 38.1577 42.9109L34.0183 38.7714C33.9463 38.6994 33.9463 38.6274 33.9463 38.5194C33.9463 38.4117 33.9823 38.3394 34.0543 38.2677L49.2438 23.0783C49.2763 23.0441 49.3153 23.0169 49.3587 22.9984C49.402 22.9798 49.4486 22.9702 49.4958 22.9702C49.5429 22.9702 49.5895 22.9798 49.6328 22.9984C49.6762 23.0169 49.7153 23.0441 49.7478 23.0783C50.2073 23.5035 50.5704 24.0224 50.8125 24.5998C51.0547 25.1772 51.1702 25.7998 51.1515 26.4257C51.0795 30.4211 46.5446 35.496 38.6977 42.9109C38.5897 42.9829 38.4817 43.0189 38.4097 43.0189H38.4094ZM34.7743 38.5194C37.0777 40.8592 38.0497 41.7949 38.4094 42.1549C44.4563 36.396 50.3232 30.4931 50.3595 26.4257C50.3955 25.49 50.0355 24.554 49.4235 23.8343L34.7743 38.5194Z" fill="#FF6C37"/>
<path d="M29.8431 34.1284L32.9026 37.1878C32.9746 37.2598 32.9746 37.3318 32.9026 37.4038C32.8666 37.4398 32.8666 37.4398 32.8306 37.4398L26.4957 38.8075C26.1717 38.8435 25.8837 38.6275 25.8117 38.3038C25.7757 38.1238 25.8477 37.9438 25.9557 37.8358L29.6271 34.1644C29.6991 34.0924 29.8071 34.0564 29.8431 34.1284Z" fill="white"/>
<path d="M26.3877 39.1675C25.8477 39.1675 25.452 38.7355 25.452 38.1958C25.452 37.9438 25.56 37.6918 25.74 37.5118L29.4111 33.8403C29.6271 33.6603 29.9151 33.6603 30.1311 33.8403L33.1906 36.8998C33.4066 37.0798 33.4066 37.4038 33.1906 37.6198C33.1186 37.6918 33.0466 37.7278 32.9386 37.7638L26.6037 39.1315C26.5317 39.1315 26.4597 39.1675 26.3877 39.1675ZM29.7351 34.5243L26.2077 38.0518C26.1357 38.1238 26.0997 38.2318 26.1717 38.3398C26.2077 38.4478 26.3157 38.4835 26.4237 38.4478L32.3626 37.1518L29.7351 34.5243Z" fill="#FF6C37"/>
<path d="M57.2701 14.692C54.9666 12.4603 51.2592 12.5323 49.0278 14.872C46.796 17.2114 46.868 20.8829 49.2078 23.1143C50.1312 24.0066 51.324 24.5682 52.6001 24.7114C53.8761 24.8547 55.1638 24.5716 56.2621 23.9063L52.1586 19.8029L57.2698 14.692H57.2701Z" fill="white"/>
<path d="M53.2389 25.0939C49.8195 25.0939 47.048 22.3225 47.048 18.903C47.048 15.4836 49.8195 12.7122 53.2389 12.7122C54.8223 12.7122 56.3703 13.3242 57.5223 14.4399C57.5941 14.5119 57.6301 14.5839 57.6301 14.6919C57.6301 14.7999 57.5941 14.8719 57.5221 14.9439L52.6629 19.8028L56.4783 23.6182C56.6223 23.7622 56.6223 23.9782 56.4783 24.1222L56.4063 24.1942C55.4703 24.7699 54.3546 25.0939 53.2389 25.0939ZM53.2389 13.4682C50.2155 13.4682 47.7678 15.9156 47.8038 18.939C47.8038 21.9625 50.2515 24.4102 53.2749 24.3742C54.1026 24.3742 54.9306 24.1942 55.6863 23.7982L51.9072 20.0548C51.8352 19.9828 51.7992 19.9108 51.7992 19.8028C51.7992 19.695 51.8352 19.6228 51.9072 19.551L56.7303 14.7276C55.7583 13.8999 54.5346 13.4682 53.2389 13.4682Z" fill="#FF6C37"/>
<path d="M57.3781 14.8L57.3061 14.728L52.1592 19.8029L56.2263 23.8703C56.6223 23.6183 57.0181 23.3303 57.3421 23.0063C57.8874 22.4722 58.3212 21.8352 58.6186 21.1321C58.9159 20.4291 59.0707 19.674 59.074 18.9107C59.0774 18.1474 58.9292 17.391 58.6381 16.6854C58.3469 15.9797 57.9187 15.3389 57.3781 14.8Z" fill="white"/>
<path d="M56.2624 24.2661C56.1544 24.2661 56.0824 24.2301 56.0104 24.1581L51.9069 20.0547C51.8352 19.9827 51.7992 19.9107 51.7992 19.8027C51.7992 19.695 51.8352 19.6227 51.9072 19.551L57.0181 14.4398C57.0506 14.4057 57.0897 14.3785 57.133 14.3599C57.1763 14.3414 57.2229 14.3318 57.2701 14.3318C57.3172 14.3318 57.3638 14.3414 57.4072 14.3599C57.4505 14.3785 57.4896 14.4057 57.5221 14.4398L57.6301 14.5118C60.0418 16.9233 60.0418 20.8107 57.6661 23.2581C57.3061 23.6181 56.9104 23.9421 56.4784 24.1941C56.3704 24.2301 56.2984 24.2661 56.2624 24.2661ZM52.6629 19.8027L56.2984 23.4381C56.5864 23.2581 56.8744 23.0061 57.0901 22.7904C59.1418 20.7387 59.2498 17.3913 57.2701 15.2315L52.6632 19.8027H52.6629Z" fill="#FF6C37"/>
<path d="M49.8555 23.7623C49.44 23.3475 48.8769 23.1145 48.2898 23.1145C47.7026 23.1145 47.1395 23.3475 46.724 23.7623L33.1546 37.3318L35.422 39.5995L49.7835 27.0018C50.7195 26.2098 50.7912 24.8061 49.9995 23.8703C49.9275 23.8343 49.8915 23.7983 49.8555 23.7623Z" fill="white"/>
<path d="M35.386 39.9594C35.278 39.9594 35.206 39.9234 35.134 39.8514L32.8666 37.5837C32.8324 37.5512 32.8052 37.5121 32.7867 37.4688C32.7681 37.4255 32.7585 37.3789 32.7585 37.3317C32.7585 37.2846 32.7681 37.2379 32.7867 37.1946C32.8052 37.1513 32.8324 37.1122 32.8666 37.0797L46.436 23.5103C46.6743 23.2707 46.9575 23.0806 47.2694 22.9509C47.5814 22.8212 47.9159 22.7544 48.2537 22.7544C48.5916 22.7544 48.9261 22.8212 49.238 22.9509C49.55 23.0806 49.8332 23.2707 50.0715 23.5103C50.311 23.7485 50.5011 24.0317 50.6308 24.3437C50.7605 24.6556 50.8273 24.9901 50.8273 25.328C50.8273 25.6658 50.7605 26.0003 50.6308 26.3123C50.5011 26.6242 50.311 26.9075 50.0715 27.1457L49.9635 27.2537L35.602 39.8514C35.566 39.9234 35.494 39.9594 35.386 39.9594ZM33.6583 37.3317L35.422 39.0954L49.5315 26.7137C50.3235 26.0657 50.3955 24.878 49.7475 24.0863C49.0997 23.2943 47.9117 23.2223 47.12 23.8703C47.084 23.9063 47.048 23.9422 46.976 23.9782L33.6583 37.3317Z" fill="#FF6C37"/>
<path d="M22.7522 52.7729C22.6085 52.8449 22.5365 52.9889 22.5722 53.1329L23.1842 55.7244C23.3282 56.0844 23.1122 56.5164 22.7162 56.6244C22.4285 56.7324 22.1045 56.6244 21.9245 56.4084L17.9651 52.4849L30.8868 39.5635L35.3503 39.6355L38.3737 42.6589C37.6537 43.2706 33.2986 47.4821 22.7522 52.7729Z" fill="white"/>
<path d="M22.4645 56.984C22.1765 56.984 21.8885 56.8763 21.7085 56.6603L17.7851 52.7368C17.7134 52.6648 17.6774 52.5928 17.6774 52.4851C17.6774 52.3771 17.7134 52.3051 17.7854 52.2331L30.7068 39.3114C30.7788 39.2394 30.8868 39.2034 30.9588 39.2034L35.4223 39.2754C35.53 39.2754 35.6023 39.3114 35.674 39.3834L38.6974 42.4068C38.7694 42.4788 38.8054 42.5868 38.8054 42.6948C38.8054 42.8028 38.7694 42.8748 38.6614 42.9468L38.4094 43.1625C34.5943 46.51 29.4111 49.8574 22.9682 53.0608L23.5802 55.6166C23.6882 56.0843 23.4722 56.5883 23.0402 56.84C22.8242 56.9483 22.6442 56.984 22.4645 56.984ZM18.5051 52.4851L22.2125 56.1563C22.3205 56.3363 22.5365 56.4083 22.7162 56.3003C22.8962 56.1923 22.9682 55.9763 22.8602 55.7963L22.2485 53.2048C22.1765 52.8808 22.3205 52.5928 22.6085 52.4491C28.9791 49.2457 34.1263 45.9342 37.9057 42.6588L35.2423 39.9954L31.1028 39.9234L18.5051 52.4851Z" fill="#FF6C37"/>
<path d="M14.9059 55.5805L18.0011 52.4851L22.6085 57.092L15.2657 56.5883C14.9417 56.5523 14.7257 56.2643 14.7619 55.9403C14.7619 55.7963 14.7979 55.6523 14.9057 55.5803L14.9059 55.5805Z" fill="white"/>
<path d="M22.6085 57.416L15.2297 56.9122C14.6897 56.8762 14.3296 56.4082 14.3659 55.8682C14.4019 55.6522 14.4739 55.4365 14.6539 55.2925L17.7494 52.1971C17.7819 52.163 17.8209 52.1358 17.8642 52.1173C17.9075 52.0987 17.9541 52.0892 18.0012 52.0892C18.0483 52.0892 18.0949 52.0987 18.1382 52.1173C18.1815 52.1358 18.2206 52.163 18.2531 52.1971L22.8602 56.804C22.9682 56.9122 23.0042 57.0562 22.9322 57.2C22.8602 57.344 22.7522 57.416 22.6085 57.416ZM18.0011 52.9891L15.1577 55.8325C15.0497 55.9042 15.0497 56.0842 15.1577 56.1562C15.1937 56.1922 15.2296 56.2282 15.3016 56.2282L21.6725 56.6602L18.0011 52.9888V52.9891ZM29.6271 41.219C29.4111 41.219 29.2671 41.039 29.2671 40.859C29.2671 40.751 29.3031 40.679 29.3751 40.607L32.8666 37.1156C32.8991 37.0815 32.9381 37.0543 32.9815 37.0357C33.0248 37.0171 33.0714 37.0076 33.1186 37.0076C33.1657 37.0076 33.2123 37.0171 33.2556 37.0357C33.299 37.0543 33.3381 37.0815 33.3706 37.1156L35.638 39.3833C35.746 39.4913 35.782 39.5993 35.746 39.7433C35.71 39.8513 35.602 39.9593 35.458 39.9953L29.6991 41.2188H29.6271V41.219ZM33.1186 37.8716L30.7428 40.247L34.6303 39.4193L33.1186 37.8716Z" fill="#FF6C37"/>
<path d="M35.35 39.6355L31.3908 40.4992C31.1028 40.5712 30.8148 40.3912 30.7428 40.1032C30.7068 39.9232 30.7428 39.7432 30.8868 39.5995L33.0826 37.4038L35.35 39.6355Z" fill="white"/>
<path d="M31.3188 40.8592C31.2003 40.8604 31.0827 40.8379 30.973 40.7931C30.8633 40.7483 30.7636 40.6821 30.6798 40.5983C30.5959 40.5145 30.5297 40.4148 30.4849 40.305C30.4401 40.1953 30.4176 40.0777 30.4188 39.9592C30.4188 39.7075 30.5268 39.4915 30.6708 39.3115L32.8666 37.1158C32.8991 37.0816 32.9381 37.0544 32.9815 37.0359C33.0248 37.0173 33.0714 37.0077 33.1186 37.0077C33.1657 37.0077 33.2123 37.0173 33.2557 37.0359C33.299 37.0544 33.3381 37.0816 33.3706 37.1158L35.638 39.3835C35.746 39.4915 35.782 39.5995 35.746 39.7435C35.71 39.8515 35.602 39.9595 35.458 39.9955L31.4988 40.8592H31.3188ZM33.1186 37.8718L31.1748 39.8152C31.1028 39.8875 31.1028 39.9595 31.1388 40.0312C31.1748 40.1032 31.2468 40.1392 31.3548 40.1392L34.6663 39.4192L33.1186 37.8718ZM57.4141 18.2551C57.3421 18.0394 57.0901 17.9314 56.8741 18.0034C56.6583 18.0754 56.5503 18.3271 56.6223 18.5434C56.6223 18.5791 56.6583 18.6151 56.6583 18.6511C56.8743 19.0831 56.8023 19.6231 56.5143 20.0189C56.3703 20.1989 56.4063 20.4509 56.5503 20.5949C56.7303 20.7389 56.9821 20.7029 57.1261 20.5229C57.6661 19.8389 57.7741 18.9751 57.4141 18.2551Z" fill="#FF6C37"/>
</g>
<defs>
<clipPath id="clip0_23_536">
<rect width="72" height="72" fill="white" transform="translate(0.25)"/>
</clipPath>
</defs>
</svg>
