<svg width="49" height="49" viewBox="0 0 49 49" fill="none" xmlns="http://www.w3.org/2000/svg">
<path fill-rule="evenodd" clip-rule="evenodd" d="M37.975 36.815L19.2685 42.392C19.1382 42.4315 18.9999 42.4366 18.867 42.4066C18.7341 42.3767 18.6113 42.3128 18.5105 42.2212C18.4097 42.1297 18.3344 42.0135 18.2919 41.8841C18.2494 41.7547 18.2412 41.6165 18.268 41.483L24.952 9.21651C24.9803 9.08471 25.0492 8.96507 25.1489 8.87441C25.2487 8.78376 25.3743 8.72664 25.5082 8.71108C25.6421 8.69552 25.7776 8.72231 25.8955 8.78767C26.0133 8.85304 26.1078 8.9537 26.1655 9.07551L38.539 35.567C38.5945 35.6848 38.6238 35.8132 38.6248 35.9434C38.6258 36.0736 38.5986 36.2025 38.545 36.3211C38.4913 36.4398 38.4126 36.5454 38.3142 36.6306C38.2158 36.7159 38.1001 36.7788 37.975 36.815ZM41.1835 35.498L26.86 4.82451C26.684 4.44618 26.4081 4.12297 26.0622 3.88961C25.7163 3.65625 25.3133 3.52156 24.8965 3.50001C24.4798 3.47134 24.0632 3.55827 23.6926 3.75121C23.3221 3.94415 23.012 4.23562 22.7965 4.59351L7.26404 29.972C7.02709 30.3562 6.90387 30.7996 6.90865 31.2509C6.91343 31.7022 7.04601 32.143 7.29104 32.522L14.887 44.3855C15.1733 44.8289 15.5954 45.1676 16.0903 45.3509C16.5851 45.5343 17.126 45.5524 17.632 45.4025L39.682 38.828C40.0151 38.731 40.3231 38.563 40.5849 38.3355C40.8468 38.108 41.0562 37.8264 41.1988 37.5102C41.3413 37.194 41.4137 36.8506 41.4108 36.5038C41.4079 36.1569 41.3298 35.8148 41.182 35.501L41.1835 35.498Z" fill="#0C344B"/>
</svg>
