<svg width="48" height="43" viewBox="0 0 48 43" fill="none" xmlns="http://www.w3.org/2000/svg">
<g clip-path="url(#clip0_36_113)">
<path d="M29.6213 26.6389L28.7006 28.233C28.4232 28.7132 27.9097 29.0092 27.354 29.0092H20.3007C19.745 29.0092 19.2315 28.7132 18.9541 28.233L18.0333 26.6389H29.6213ZM32.1989 22.1762L30.5754 24.9869H17.0792L15.4558 22.1762H32.1989ZM30.6351 17.8122L32.2014 20.5243H15.4532L17.0196 17.8122H30.6351ZM27.354 13.6868C27.9097 13.6868 28.4232 13.9828 28.7006 14.463L29.6809 16.1603H17.9738L18.9541 14.463C19.2315 13.9828 19.745 13.6868 20.3007 13.6868H27.354Z" fill="#00435B"/>
<path d="M10.0355 12.9471C9.2542 9.16947 9.08653 6.27206 9.59157 4.16814C9.89194 2.91684 10.4411 1.89606 11.2761 1.15958C12.1577 0.382043 13.2723 0.000507402 14.5246 0.000507402C16.5906 0.000507402 18.7625 0.939903 21.0836 2.72451C22.0303 3.45241 23.0128 4.32979 24.0333 5.35713C24.1145 5.25287 24.2063 5.15453 24.3086 5.06364C27.1935 2.50022 29.6224 0.907526 31.6998 0.293433C32.935 -0.0717069 34.0948 -0.106494 35.1509 0.247887C36.2657 0.621959 37.1539 1.39522 37.7806 2.47831C38.8149 4.26581 39.0876 6.61459 38.702 9.51473C38.5449 10.6969 38.2762 11.9845 37.8965 13.3797C38.0398 13.397 38.1833 13.4287 38.3255 13.4756C41.9858 14.6851 44.5777 15.9857 46.147 17.4721C47.0806 18.3565 47.6903 19.3411 47.9107 20.4309C48.1433 21.5813 47.9165 22.7351 47.2905 23.8174C46.2582 25.6023 44.36 27.01 41.6558 28.1251C40.57 28.5728 39.3415 28.9783 37.9688 29.343C38.0315 29.484 38.08 29.6337 38.1125 29.7908C38.8939 33.5684 39.0615 36.4659 38.5565 38.5698C38.2561 39.8211 37.707 40.8419 36.872 41.5783C35.9904 42.3559 34.8758 42.7374 33.6235 42.7374C31.5574 42.7374 29.3856 41.798 27.0645 40.0134C26.1077 39.2778 25.1143 38.3894 24.0822 37.3479C23.976 37.5136 23.8456 37.6675 23.6914 37.8045C20.8065 40.368 18.3776 41.9607 16.3002 42.5748C15.065 42.9399 13.9052 42.9747 12.8491 42.6203C11.7343 42.2462 10.8461 41.473 10.2194 40.3899C9.18511 38.6024 8.91236 36.2536 9.29795 33.3535C9.46081 32.1286 9.7434 30.7904 10.1451 29.3367C9.98807 29.3209 9.83042 29.2878 9.67452 29.2362C6.01416 28.0268 3.42225 26.7261 1.85305 25.2397C0.91941 24.3554 0.309733 23.3708 0.0893394 22.2809C-0.143287 21.1306 0.0835419 19.9768 0.709504 18.8945C1.74184 17.1096 3.64001 15.7018 6.34419 14.5868C7.46236 14.1257 8.73189 13.7095 10.1543 13.3364C10.1036 13.2127 10.0636 13.0826 10.0355 12.9471Z" fill="#002B3B"/>
<path d="M35.5588 30.1622C35.9228 30.0979 36.2715 30.3305 36.3528 30.6875L36.3573 30.7086L36.396 30.9095C37.6541 37.5047 36.7679 40.8022 33.7374 40.8022C30.7723 40.8022 26.9977 37.9884 22.4138 32.3607C22.3125 32.2364 22.2578 32.0807 22.2592 31.9205C22.2625 31.5474 22.5628 31.2462 22.9344 31.2381L22.9559 31.2379L23.1973 31.2397C25.1263 31.2501 27.0015 31.183 28.823 31.0385C30.9732 30.8678 33.2185 30.5757 35.5588 30.1622ZM14.7461 25.1769L14.7577 25.1964L14.8789 25.4072C15.8495 27.0898 16.8608 28.6868 17.9127 30.1983C19.1516 31.9782 20.5447 33.7801 22.0921 35.604C22.3315 35.8862 22.3042 36.305 22.0341 36.554L22.0166 36.5697L21.8609 36.7033C16.741 41.0775 13.4133 41.9507 11.8777 39.323C10.3746 36.7509 10.9196 32.074 13.5126 25.2925C13.5696 25.1434 13.6766 25.0188 13.8156 24.9397C14.1402 24.7549 14.5518 24.8616 14.7461 25.1769ZM38.1569 15.4451L38.1779 15.4519L38.3706 15.5182C44.6902 17.7102 47.0912 20.1191 45.5736 22.7449C44.0893 25.3131 39.7742 27.1829 32.6284 28.3544C32.469 28.3805 32.3055 28.3501 32.1663 28.2685C31.8375 28.0758 31.7276 27.6537 31.9209 27.3259C32.9444 25.5899 33.8662 23.8627 34.6863 22.1441C35.6164 20.195 36.4893 18.1029 37.3049 15.8678C37.4285 15.529 37.7918 15.3449 38.1359 15.439L38.1569 15.4451ZM15.8337 14.3414C16.1625 14.5342 16.2724 14.9562 16.0791 15.2841C15.0556 17.02 14.1338 18.7473 13.3137 20.4659C12.3836 22.415 11.5108 24.5071 10.6952 26.7421C10.569 27.0879 10.1933 27.2725 9.84313 27.1649L9.82215 27.1581L9.62944 27.0917C3.3098 24.8997 0.908804 22.4908 2.42645 19.865C3.91076 17.2969 8.22583 15.4271 15.3717 14.2556C15.531 14.2294 15.6945 14.2598 15.8337 14.3414ZM36.1223 3.54516C37.6254 6.11729 37.0804 10.7942 34.4874 17.5757C34.4305 17.7248 34.3234 17.8494 34.1845 17.9285C33.8598 18.1133 33.4482 18.0066 33.2539 17.6913L33.2423 17.6718L33.1212 17.461C32.1505 15.7784 31.1392 14.1813 30.0873 12.6699C28.8484 10.89 27.4553 9.08808 25.9079 7.26419C25.6685 6.98203 25.6958 6.56322 25.9659 6.31415L25.9835 6.29848L26.1392 6.16486C31.259 1.79067 34.5867 0.917441 36.1223 3.54516ZM14.5217 1.97986C17.4868 1.97986 21.2613 4.7937 25.8453 10.4214C25.9466 10.5457 26.0012 10.7014 25.9998 10.8616C25.9965 11.2347 25.6962 11.5359 25.3246 11.544L25.3031 11.5442L25.0617 11.5425C23.1328 11.532 21.2575 11.5991 19.436 11.7436C17.2858 11.9143 15.0405 12.2064 12.7002 12.6199C12.3362 12.6842 11.9875 12.4516 11.9062 12.0947L11.9018 12.0735L11.863 11.8727C10.6049 5.27746 11.4911 1.97986 14.5217 1.97986Z" fill="#FF4154"/>
<path d="M20.8677 13.7729H26.7882C27.6541 13.7729 28.4538 14.2347 28.8847 14.9835L31.8575 20.1483C32.2851 20.8913 32.2851 21.8048 31.8575 22.5477L28.8847 27.7126C28.4538 28.4614 27.6541 28.9231 26.7882 28.9231H20.8677C20.0019 28.9231 19.2022 28.4614 18.7712 27.7126L15.7984 22.5477C15.3708 21.8048 15.3708 20.8913 15.7984 20.1483L18.7712 14.9835C19.2022 14.2347 20.0019 13.7729 20.8677 13.7729ZM25.8859 15.3318C26.7522 15.3318 27.5522 15.794 27.983 16.5434L30.056 20.1494C30.4828 20.8918 30.4828 21.8042 30.056 22.5466L27.983 26.1526C27.5522 26.902 26.7522 27.3643 25.8859 27.3643H21.7701C20.9038 27.3643 20.1037 26.902 19.6729 26.1526L17.5999 22.5466C17.1731 21.8042 17.1731 20.8918 17.5999 20.1494L19.6729 16.5434C20.1037 15.794 20.9038 15.3318 21.7701 15.3318H25.8859ZM24.9133 17.0368H22.7426C21.8772 17.0368 21.0778 17.4981 20.6467 18.2463L19.5513 20.1473C19.1228 20.8908 19.1228 21.8053 19.5513 22.5488L20.6467 24.4498C21.0778 25.198 21.8772 25.6593 22.7426 25.6593H24.9133C25.7787 25.6593 26.5781 25.198 27.0092 24.4498L28.1046 22.5488C28.5331 21.8053 28.5331 20.8908 28.1046 20.1473L27.0092 18.2463C26.5781 17.4981 25.7787 17.0368 24.9133 17.0368ZM23.9768 18.6687C24.8416 18.6687 25.6405 19.1293 26.0718 19.8766L26.2271 20.1457C26.6568 20.89 26.6568 21.806 26.2271 22.5504L26.0718 22.8194C25.6405 23.5667 24.8416 24.0273 23.9768 24.0273H23.6791C22.8144 24.0273 22.0155 23.5667 21.5841 22.8194L21.4288 22.5504C20.9991 21.806 20.9991 20.89 21.4288 20.1457L21.5841 19.8766C22.0155 19.1293 22.8144 18.6687 23.6791 18.6687H23.9768ZM23.8284 20.2763C23.4435 20.2763 23.0885 20.4806 22.8964 20.8122C22.7042 21.1437 22.7042 21.5523 22.8964 21.8839C23.0885 22.2155 23.4435 22.4197 23.8276 22.4197C24.2125 22.4197 24.5674 22.2155 24.7596 21.8839C24.9517 21.5523 24.9517 21.1437 24.7596 20.8122C24.5674 20.4806 24.2125 20.2763 23.8284 20.2763ZM15.1079 21.348H17.0431H15.1079Z" fill="#FFD94C"/>
</g>
<defs>
<clipPath id="clip0_36_113">
<rect width="48" height="43" fill="white"/>
</clipPath>
</defs>
</svg>
