<svg width="48" height="49" viewBox="0 0 48 49" fill="none" xmlns="http://www.w3.org/2000/svg">
<path d="M39.4656 16.9669C38.9677 16.7955 38.4517 16.6334 37.9205 16.48C38.0078 16.1236 38.0879 15.7719 38.1592 15.4261C39.3288 9.74842 38.5641 5.17442 35.9526 3.66847C33.4486 2.22446 29.3534 3.73007 25.2174 7.32946C24.8197 7.67557 24.4209 8.04202 24.0222 8.42607C23.7566 8.17198 23.4914 7.92642 23.2269 7.69155C18.8923 3.84285 14.5475 2.22095 11.9386 3.73127C9.43695 5.17946 8.6961 9.47945 9.74897 14.8603C9.85065 15.38 9.96949 15.9107 10.1039 16.4504C9.48898 16.6249 8.89535 16.811 8.32735 17.009C3.2455 18.7807 0 21.5575 0 24.4377C0 27.4125 3.48405 30.3962 8.77719 32.2054C9.1949 32.3482 9.62833 32.4831 10.075 32.6113C9.93002 33.1949 9.80391 33.7669 9.69805 34.3247C8.69414 39.6121 9.47813 43.8105 11.9731 45.2496C14.5502 46.7357 18.8753 45.2081 23.0869 41.5267C23.4198 41.2357 23.7538 40.9271 24.0885 40.6036C24.5223 41.0214 24.9554 41.4167 25.3862 41.7875C29.4656 45.2979 33.4946 46.7155 35.9873 45.2724C38.5619 43.782 39.3986 39.2719 38.3123 33.7846C38.2293 33.3656 38.1328 32.9374 38.0244 32.5017C38.3281 32.4119 38.6263 32.3192 38.917 32.2228C44.4198 30.3996 48 27.4522 48 24.4377C48 21.5471 44.6498 18.7516 39.4656 16.9669ZM38.2721 30.2764C38.0097 30.3633 37.7404 30.4473 37.4659 30.5287C36.8585 28.6056 36.0386 26.5606 35.0353 24.4477C35.9927 22.3852 36.7809 20.3664 37.3713 18.4557C37.8624 18.5978 38.3389 18.7477 38.7982 18.9058C43.24 20.4349 45.9495 22.6957 45.9495 24.4377C45.9495 26.2933 43.0233 28.7021 38.2721 30.2764ZM36.3007 34.1829C36.781 36.6093 36.8497 38.803 36.5315 40.5179C36.2456 42.0589 35.6707 43.0863 34.9598 43.4978C33.4471 44.3734 30.2122 43.2353 26.7235 40.2331C26.3235 39.8889 25.9207 39.5215 25.5165 39.1325C26.8691 37.6533 28.2208 35.9337 29.5401 34.0239C31.8605 33.818 34.0528 33.4813 36.0409 33.0218C36.1388 33.4167 36.2258 33.8041 36.3007 34.1829ZM16.3643 43.3465C14.8864 43.8685 13.7093 43.8834 12.9977 43.4731C11.4836 42.5998 10.8542 39.2289 11.7128 34.7071C11.8111 34.1893 11.9282 33.6573 12.0631 33.1136C14.0294 33.5484 16.2056 33.8613 18.5316 34.0498C19.8598 35.9187 21.2506 37.6364 22.6521 39.1405C22.3459 39.4361 22.0409 39.7176 21.7376 39.9828C19.8752 41.6106 18.009 42.7656 16.3643 43.3465ZM9.44036 30.2651C7.09984 29.4651 5.16694 28.4254 3.84204 27.2908C2.65153 26.2713 2.05046 25.2591 2.05046 24.4377C2.05046 22.6899 4.65627 20.4605 9.00232 18.9453C9.52965 18.7614 10.0817 18.5881 10.6545 18.4254C11.2552 20.3792 12.0431 22.422 12.994 24.4876C12.0308 26.584 11.2317 28.6593 10.6252 30.636C10.2168 30.5186 9.82108 30.3951 9.44036 30.2651ZM11.7613 14.4665C10.8593 9.85633 11.4584 6.3786 12.9659 5.50593C14.5718 4.57626 18.1227 5.90177 21.8653 9.22493C22.1045 9.43733 22.3447 9.65965 22.5856 9.88965C21.1909 11.3871 19.8129 13.092 18.4965 14.9498C16.239 15.159 14.0781 15.4952 12.0913 15.9452C11.9664 15.4428 11.8557 14.9491 11.7613 14.4665ZM32.4664 19.5791C31.9914 18.7587 31.5038 17.9577 31.0067 17.1786C32.5382 17.3722 34.0055 17.6292 35.3835 17.9437C34.9698 19.2695 34.4542 20.6558 33.8472 22.0769C33.4118 21.2503 32.9513 20.4168 32.4664 19.5791ZM24.0229 11.3551C24.9687 12.3798 25.9159 13.5238 26.8475 14.7651C25.9087 14.7207 24.9583 14.6977 24 14.6977C23.0508 14.6977 22.1073 14.7202 21.1743 14.7638C22.1069 13.5341 23.0623 12.3916 24.0229 11.3551ZM15.5254 19.5933C15.0509 20.4159 14.5989 21.2449 14.1704 22.0754C13.5732 20.6592 13.0624 19.2666 12.6451 17.922C14.0146 17.6155 15.475 17.3649 16.9968 17.175C16.4927 17.9613 16.0011 18.7683 15.5254 19.5933ZM17.0406 31.8468C15.4684 31.6714 13.986 31.4337 12.6168 31.1357C13.0408 29.767 13.5629 28.3447 14.1727 26.8981C14.6024 27.7279 15.0561 28.5572 15.5335 29.3817C16.0197 30.2217 16.5235 31.0444 17.0406 31.8468ZM24.0796 37.665C23.1078 36.6164 22.1384 35.4564 21.1916 34.2088C22.1107 34.2448 23.0477 34.2633 24 34.2633C24.9784 34.2633 25.9455 34.2412 26.8975 34.1989C25.9628 35.469 25.019 36.6307 24.0796 37.665ZM33.8668 26.8243C34.5084 28.2866 35.0492 29.7015 35.4786 31.0468C34.0869 31.3643 32.5843 31.62 31.0011 31.8101C31.4994 31.0204 31.9912 30.2057 32.4746 29.3676C32.9635 28.5197 33.4278 27.6705 33.8668 26.8243ZM30.6984 28.3432C29.948 29.6442 29.1777 30.8861 28.3957 32.0584C26.9713 32.1603 25.4998 32.2127 24 32.2127C22.5063 32.2127 21.0533 32.1663 19.6541 32.0755C18.8406 30.8878 18.0535 29.6422 17.308 28.3544C16.5644 27.0701 15.8802 25.7749 15.2601 24.487C15.88 23.1961 16.5626 21.8994 17.3019 20.6174L17.3017 20.6177C18.043 19.3322 18.8231 18.0927 19.6292 16.9124C21.0567 16.8045 22.5205 16.7482 23.9999 16.7482C25.486 16.7482 26.9518 16.8049 28.3789 16.9138C29.1726 18.0854 29.9474 19.321 30.6916 20.6066C31.4442 21.9066 32.1356 23.1946 32.7609 24.4578C32.1375 25.7428 31.4477 27.0437 30.6984 28.3432ZM34.9284 5.44492C36.5357 6.37185 37.1608 10.1102 36.1509 15.0123C36.0865 15.325 36.014 15.6436 35.9352 15.9665C33.9438 15.507 31.7813 15.1651 29.5172 14.9527C28.1983 13.0745 26.8315 11.367 25.4596 9.88871C25.8285 9.53388 26.1968 9.19554 26.5636 8.87625C30.1073 5.79232 33.4193 4.57472 34.9284 5.44492ZM24 20.1515C26.3672 20.1515 28.2862 22.0705 28.2862 24.4377C28.2862 26.8049 26.3672 28.724 24 28.724C21.6328 28.724 19.7138 26.8049 19.7138 24.4377C19.7138 22.0705 21.6328 20.1515 24 20.1515Z" fill="#00D8FF"/>
</svg>
