<svg width="48" height="49" viewBox="0 0 48 49" fill="none" xmlns="http://www.w3.org/2000/svg">
<path d="M32.6802 32.834C34.3409 32.6649 35.6007 31.2575 35.5434 29.5683C35.4863 27.8795 34.0545 26.5283 32.3365 26.5283H32.2221C30.4467 26.5845 29.0726 28.0484 29.1299 29.7936C29.1872 30.6381 29.5307 31.37 30.0461 31.8767C28.0991 35.6489 25.1212 38.4075 20.6547 40.7159C17.6196 42.2922 14.4702 42.8553 11.3207 42.4613C8.74377 42.1235 6.73951 40.9976 5.47951 39.1394C3.64716 36.3807 3.47542 33.3968 5.02159 30.413C6.10968 28.2735 7.82742 26.697 8.9155 25.9088C8.68647 25.1769 8.3428 23.9384 8.17107 23.0376C-0.132308 28.9491 0.726735 36.9438 3.24639 40.7159C5.13603 43.5309 8.9728 45.2763 13.2104 45.2763C14.3556 45.2763 15.5008 45.1635 16.6462 44.8823C23.9761 43.4747 29.5308 39.1958 32.6802 32.834ZM42.7589 25.8527C38.4067 20.8419 31.993 18.0833 24.6631 18.0833H23.7471C23.2317 17.0699 22.1436 16.3941 20.941 16.3941H20.8264C19.0513 16.4505 17.6772 17.9142 17.7343 19.6596C17.7916 21.3486 19.2231 22.6998 20.941 22.6998H21.0555C22.3153 22.6436 23.4034 21.8553 23.8615 20.7855H24.8922C29.2444 20.7855 33.3673 22.0241 37.0897 24.4451C39.9528 26.303 42.0144 28.724 43.1596 31.6515C44.1331 34.0161 44.0758 36.3245 43.045 38.295C41.4417 41.2788 38.7504 42.9116 35.1999 42.9116C32.9093 42.9116 30.7333 42.236 29.5879 41.7293C28.9581 42.2922 27.8127 43.193 27.0109 43.7562C29.4735 44.8821 31.993 45.5015 34.3982 45.5015C39.8955 45.5015 43.9614 42.5174 45.5076 39.5336C47.1681 36.2681 47.0535 30.6381 42.7589 25.8527ZM13.6684 33.7908C13.7258 35.4798 15.1573 36.8309 16.8753 36.8309H16.9899C18.765 36.7748 20.1393 35.3109 20.082 33.5657C20.0248 31.8765 18.5931 30.5255 16.8753 30.5255H16.7608C16.6462 30.5255 16.4743 30.5255 16.36 30.5816C14.0121 26.7533 13.0386 22.5872 13.3823 18.0831C13.6111 14.7051 14.7565 11.7774 16.7608 9.35645C18.4213 7.27332 21.6282 6.25994 23.8044 6.20378C29.8743 6.0911 32.451 13.5227 32.6229 16.5066C33.3673 16.6755 34.6272 17.0697 35.4862 17.3513C34.799 8.23072 29.0725 3.50146 23.5753 3.50146C18.4213 3.50146 13.6684 7.161 11.7786 12.5658C9.14455 19.7721 10.8625 26.697 14.0692 32.1582C13.7831 32.5523 13.6111 33.1715 13.6684 33.7908Z" fill="#764ABC"/>
</svg>
