<svg width="73" height="72" viewBox="0 0 73 72" fill="none" xmlns="http://www.w3.org/2000/svg">
<g clip-path="url(#clip0_108_553)">
<path d="M15.3928 45.3712C15.3928 49.5427 12.0214 52.9143 7.84994 52.9143C3.67844 52.9143 0.307098 49.5427 0.307098 45.3712C0.307098 41.2 3.67844 37.8286 7.85022 37.8286H15.3925V45.3715L15.3928 45.3712ZM19.1643 45.3712C19.1643 41.2 22.5357 37.8286 26.7072 37.8286C30.8787 37.8286 34.25 41.2 34.25 45.3715V64.2284C34.25 68.3999 30.8787 71.7716 26.7069 71.7716C22.536 71.7716 19.1643 68.3999 19.1643 64.2284V45.3712Z" fill="#E01E5A"/>
<path d="M26.7072 15.0857C22.5357 15.0857 19.1641 11.7143 19.1641 7.54284C19.1641 3.37134 22.536 0 26.7072 0C30.8784 0 34.25 3.37134 34.25 7.54284V15.086H26.7069L26.7072 15.0857ZM26.7072 18.9143C30.8787 18.9143 34.25 22.2857 34.25 26.4572C34.25 30.6287 30.8787 34 26.7069 34H7.79312C3.62134 34 0.25 30.6287 0.25 26.4569C0.25 22.286 3.62134 18.9143 7.79284 18.9143H26.7072Z" fill="#36C5F0"/>
<path d="M56.9359 26.4572C56.9359 22.2857 60.3073 18.9141 64.4785 18.9141C68.65 18.9141 72.0216 22.2857 72.0216 26.4572C72.0216 30.6287 68.65 34 64.4785 34H56.9359V26.4572ZM53.1644 26.4572C53.1644 30.6287 49.7927 34 45.6212 34C41.45 34 38.0787 30.6287 38.0787 26.4569V7.54312C38.0787 3.37134 41.45 0 45.6212 0C49.7925 0 53.1641 3.37134 53.1641 7.54284V26.4569L53.1644 26.4572Z" fill="#2EB67D"/>
<path d="M45.6212 56.6859C49.7927 56.6859 53.1644 60.0572 53.1644 64.2284C53.1644 68.3999 49.7927 71.7716 45.6212 71.7716C41.45 71.7716 38.0787 68.3999 38.0787 64.2284V56.6859H45.6212ZM45.6212 52.9143C41.45 52.9143 38.0787 49.5427 38.0787 45.3712C38.0787 41.2 41.45 37.8286 45.6215 37.8286H64.5356C68.7071 37.8286 72.0787 41.2 72.0787 45.3715C72.0787 49.5427 68.7071 52.9143 64.5356 52.9143H45.6212Z" fill="#ECB22E"/>
</g>
<defs>
<clipPath id="clip0_108_553">
<rect width="72" height="72" fill="white" transform="translate(0.25)"/>
</clipPath>
</defs>
</svg>
