<svg width="36" height="54" viewBox="0 0 36 54" fill="none" xmlns="http://www.w3.org/2000/svg">
<path d="M17.2499 44.9999C17.2499 42.5376 17.7349 40.0994 18.6771 37.8246C19.6194 35.5497 21.0005 33.4828 22.7416 31.7417C24.4827 30.0006 26.5497 28.6194 28.8246 27.6772C30.8682 26.8306 33.0437 26.3532 35.2501 26.2649C35.6639 26.2483 35.9999 26.5857 35.9999 26.9999C35.9999 27.4141 35.6639 27.7482 35.2501 27.7662C33.2408 27.8536 31.2602 28.2919 29.3986 29.063C27.3057 29.9299 25.4041 31.2005 23.8023 32.8023C22.2005 34.4041 20.9298 36.3058 20.063 38.3986C19.1961 40.4915 18.7499 42.7346 18.7499 44.9999H17.2499Z" fill="#636363"/>
<path d="M17.2496 44.9999H18.7496V51.7499C18.7496 52.1641 18.4138 52.4999 17.9996 52.4999C17.5854 52.4999 17.2496 52.1641 17.2496 51.7499V44.9999Z" fill="#636363"/>
<circle cx="18.0001" cy="52.5001" r="1.5" fill="#636363"/>
<path d="M18.75 9C18.75 11.4623 18.265 13.9005 17.3227 16.1753C16.3805 18.4502 14.9993 20.5172 13.2582 22.2582C11.5172 23.9993 9.45017 25.3805 7.17531 26.3227C5.13165 27.1693 2.95617 27.6467 0.749815 27.735C0.335933 27.7516 0 27.4142 0 27C0 26.5858 0.335959 26.2517 0.749781 26.2337C2.75908 26.1463 4.73963 25.708 6.60129 24.9369C8.69415 24.07 10.5958 22.7994 12.1976 21.1976C13.7994 19.5958 15.07 17.6942 15.9369 15.6013C16.8038 13.5084 17.25 11.2653 17.25 9H18.75Z" fill="#636363"/>
<path d="M17.2498 2.25014C17.2498 1.83592 17.5855 1.50014 17.9998 1.50014C18.414 1.50014 18.7498 1.83592 18.7498 2.25014V9.00014H17.2498V2.25014Z" fill="#636363"/>
<circle cx="18.0002" cy="1.5" r="1.5" fill="#636363"/>
<rect y="26.2501" width="36" height="1.5" rx="0.749999" fill="#636363"/>
<circle cx="18.7498" cy="26.9998" r="1.5" fill="#636363"/>
<rect x="20.25" y="24.4817" width="11.25" height="1.5" rx="0.749999" transform="rotate(-45 20.25 24.4817)" fill="#636363"/>
<circle cx="28.8746" cy="16.8748" r="1.5" fill="#636363"/>
<rect x="8.24988" y="36.4548" width="11.25" height="1.5" rx="0.749999" transform="rotate(-45 8.24988 36.4548)" fill="#636363"/>
<circle cx="8.62488" cy="37.1248" r="1.5" fill="#636363"/>
</svg>
