<svg width="58" height="72" viewBox="0 0 58 72" fill="none" xmlns="http://www.w3.org/2000/svg">
<g clip-path="url(#clip0_23_533)">
<path d="M57.1258 28.5138C57.1258 12.7664 44.3597 2.90674e-05 28.612 2.90674e-05C14.576 -0.0198716 2.61487 10.1809 0.418651 24.0436C-1.7778 37.9062 6.44451 51.3045 19.7987 55.6243V69.9114C19.7987 70.4432 20.01 70.9532 20.3861 71.3293C20.7621 71.7054 21.2722 71.9166 21.804 71.9166H35.3391C35.8709 71.9166 36.381 71.7054 36.757 71.3293C37.1331 70.9532 37.3444 70.4432 37.3444 69.9114V55.6343C49.1224 51.8418 57.1122 40.8878 57.1256 28.514L57.1258 28.5138ZM28.612 38.1489C23.2878 38.1489 18.9718 33.8331 18.9718 28.5089C18.9718 23.1849 23.2878 18.8689 28.6118 18.8689C33.9358 18.8689 38.2517 23.1849 38.2517 28.5089C38.2517 33.8329 33.9358 38.1491 28.6118 38.1491L28.612 38.1489Z" fill="#2684FF"/>
<path d="M28.6118 2.6505e-05V18.8788C33.9358 18.8788 38.2518 23.1948 38.2518 28.5187C38.2518 33.8427 33.9358 38.1587 28.6118 38.1587C29.7692 38.1587 30.9152 38.3866 31.9844 38.8295C33.0536 39.2724 34.0252 39.9216 34.8435 40.74C35.6619 41.5584 36.311 42.5299 36.7539 43.5992C37.1968 44.6684 37.4247 45.8144 37.4247 46.9718V55.6442C50.784 51.3237 59.0097 37.921 56.8132 24.0534C54.6172 10.1858 42.6525 -0.0189797 28.6118 2.6505e-05Z" fill="url(#paint0_linear_23_533)"/>
</g>
<defs>
<linearGradient id="paint0_linear_23_533" x1="1454.31" y1="5048.1" x2="1454.31" y2="2019.22" gradientUnits="userSpaceOnUse">
<stop offset="0.18" stop-color="#0052CC"/>
<stop offset="1" stop-color="#2684FF"/>
</linearGradient>
<clipPath id="clip0_23_533">
<rect width="57.25" height="72" fill="white"/>
</clipPath>
</defs>
</svg>
