<svg width="49" height="49" viewBox="0 0 49 49" fill="none" xmlns="http://www.w3.org/2000/svg">
<g clip-path="url(#clip0_301_665)">
<path d="M28.1043 47.702C26.8792 49.2459 24.3903 48.4003 24.3629 46.4281L23.9294 17.5884H43.3225C46.8344 17.5884 48.7927 21.6448 46.6087 24.3943L28.1043 47.702Z" fill="url(#paint0_linear_301_665)"/>
<path d="M28.1043 47.702C26.8792 49.2459 24.3903 48.4003 24.3629 46.4281L23.9294 17.5884H43.3225C46.8344 17.5884 48.7927 21.6448 46.6087 24.3943L28.1043 47.702Z" fill="url(#paint1_linear_301_665)" fill-opacity="0.2"/>
<path d="M20.2165 1.298C21.4417 -0.245879 23.9309 0.599746 23.9579 2.5715L24.1484 31.4116H4.99828C1.48641 31.4116 -0.471841 27.3552 1.71178 24.6057L20.2165 1.298Z" fill="#3ECF8E"/>
</g>
<defs>
<linearGradient id="paint0_linear_301_665" x1="23.9312" y1="23.9849" x2="41.1662" y2="31.2131" gradientUnits="userSpaceOnUse">
<stop stop-color="#249361"/>
<stop offset="1" stop-color="#3ECF8E"/>
</linearGradient>
<linearGradient id="paint1_linear_301_665" x1="16.2899" y1="13.5226" x2="24.1499" y2="28.3192" gradientUnits="userSpaceOnUse">
<stop/>
<stop offset="1" stop-opacity="0"/>
</linearGradient>
<clipPath id="clip0_301_665">
<rect width="48" height="48" fill="white" transform="translate(0.160034 0.5)"/>
</clipPath>
</defs>
</svg>
