<svg width="48" height="49" viewBox="0 0 48 49" fill="none" xmlns="http://www.w3.org/2000/svg">
<path d="M13.5 21.05C14.9 15.45 18.4 12.65 24 12.65C32.4 12.65 33.45 18.95 37.65 20C40.45 20.7 42.9 19.65 45 16.85C43.6 22.45 40.1 25.25 34.5 25.25C26.1 25.25 25.05 18.95 20.85 17.9C18.05 17.2 15.6 18.25 13.5 21.05ZM3 33.65C4.4 28.05 7.9 25.25 13.5 25.25C21.9 25.25 22.95 31.55 27.15 32.6C29.95 33.3 32.4 32.25 34.5 29.45C33.1 35.05 29.6 37.85 24 37.85C15.6 37.85 14.55 31.55 10.35 30.5C7.55 29.8 5.1 30.85 3 33.65Z" fill="#44A8B3"/>
</svg>
