<svg width="48" height="49" viewBox="0 0 48 49" fill="none" xmlns="http://www.w3.org/2000/svg">
<g clip-path="url(#clip0_26_130)">
<path d="M45.4658 1H1.96411C0.721941 1 -0.285034 2.00698 -0.285034 3.24914V46.7509C-0.285034 47.993 0.721941 49 1.96411 49H45.4658C46.708 49 47.715 47.993 47.715 46.7509V3.24914C47.715 2.00698 46.708 1 45.4658 1Z" fill="#3178C6"/>
<path fill-rule="evenodd" clip-rule="evenodd" d="M29.3675 38.1385V42.7405C30.2036 43.1532 31.0947 43.4437 32.0135 43.603C33.0752 43.799 34.1529 43.8954 35.2325 43.891C36.2847 43.896 37.3345 43.7899 38.3645 43.5745C39.2892 43.3876 40.1715 43.0317 40.967 42.5245C41.7055 42.0478 42.3142 41.3953 42.7385 40.6255C43.4984 39.0315 43.5987 37.202 43.0175 35.5345C42.7722 34.9109 42.4068 34.3416 41.942 33.859C41.4431 33.3458 40.8763 32.9032 40.2575 32.5435C39.545 32.1262 38.8048 31.7584 38.042 31.4425C37.442 31.1935 36.902 30.9515 36.422 30.7165C35.9957 30.5124 35.5877 30.272 35.2025 29.998C34.9008 29.7865 34.6388 29.5235 34.4285 29.221C34.2468 28.9463 34.1522 28.6233 34.157 28.294C34.153 27.9909 34.2374 27.6933 34.4 27.4375C34.5765 27.1698 34.8121 26.9461 35.0885 26.7835C35.4264 26.5845 35.7941 26.4412 36.1775 26.359C36.6482 26.2544 37.1293 26.2041 37.6115 26.209C38.017 26.2104 38.4219 26.2395 38.8235 26.296C39.2571 26.3546 39.6862 26.4433 40.1075 26.5615C40.536 26.6803 40.9552 26.8307 41.3615 27.0115C41.7557 27.1872 42.1328 27.3991 42.488 27.6445V23.35C41.7486 23.0703 40.9819 22.8692 40.2005 22.75C39.2568 22.6127 38.304 22.548 37.3505 22.5565C36.3082 22.5509 35.2689 22.6692 34.2545 22.909C33.3376 23.1185 32.4658 23.4909 31.6805 24.0085C30.951 24.4944 30.3487 25.1482 29.924 25.915C29.4739 26.7665 29.2513 27.7197 29.2775 28.6825C29.2442 29.9557 29.6636 31.1994 30.461 32.1925C31.4393 33.2936 32.6728 34.1378 34.0535 34.651C34.6835 34.911 35.271 35.1655 35.816 35.4145C36.3077 35.6333 36.7803 35.8927 37.229 36.19C37.5908 36.4254 37.9087 36.7224 38.168 37.0675C38.396 37.3805 38.517 37.7587 38.513 38.146C38.515 38.4362 38.4405 38.7218 38.297 38.974C38.1375 39.245 37.9133 39.4723 37.6445 39.6355C37.3081 39.8406 36.9402 39.9886 36.5555 40.0735C36.0544 40.1855 35.5419 40.2384 35.0285 40.231C34.0209 40.2292 33.0214 40.0515 32.075 39.706C31.0862 39.3492 30.1693 38.8183 29.3675 38.1385ZM21.6365 26.6815H27.6365V22.891H10.907V26.6815H16.88V43.5625H21.6365V26.6815Z" fill="white"/>
</g>
<defs>
<clipPath id="clip0_26_130">
<rect width="48" height="48" fill="white" transform="translate(0 0.5)"/>
</clipPath>
</defs>
</svg>
