<svg width="50" height="49" viewBox="0 0 50 49" fill="none" xmlns="http://www.w3.org/2000/svg">
<g clip-path="url(#clip0_109_570)">
<path d="M40.996 0.5H8.164C3.65735 0.5 0.0039978 4.15336 0.0039978 8.66V40.2632C0.0039978 44.7698 3.65735 48.4232 8.164 48.4232H40.996C45.5026 48.4232 49.156 44.7698 49.156 40.2632V8.66C49.156 4.15336 45.5026 0.5 40.996 0.5Z" fill="#470137"/>
<path d="M25.843 13.1029L19.7099 23.2257L26.2715 33.9748C26.3138 34.0501 26.3255 34.1384 26.3045 34.2221C26.2944 34.2578 26.2725 34.2667 26.2389 34.268L26.2016 34.2674L26.1563 34.2663C26.1317 34.2663 26.1043 34.2674 26.0738 34.2724H21.3429L21.2499 34.2709C20.995 34.2642 20.8112 34.2277 20.6993 34.0407C20.2616 33.1879 19.8219 32.3361 19.3803 31.4853C18.9852 30.7265 18.5794 29.9734 18.163 29.2261L17.979 28.897C17.4809 28.0117 16.9918 27.1214 16.5118 26.2263H16.4787C16.0354 27.1121 15.5792 27.9914 15.1104 28.864C14.6375 29.7433 14.1703 30.6173 13.709 31.4853C13.2473 32.3541 12.7747 33.2169 12.2912 34.0737C12.2135 34.2484 12.0843 34.2849 11.9043 34.2908L11.8295 34.292H7.31229L7.2927 34.2926L7.22819 34.2983C7.19229 34.3004 7.17078 34.2928 7.16387 34.2386C7.15148 34.1582 7.16911 34.0761 7.21341 34.0078L13.5771 23.5554L7.37814 13.0702C7.31229 12.9827 7.30134 12.9113 7.34512 12.856C7.36945 12.8278 7.4 12.8057 7.43436 12.7913C7.46871 12.777 7.50593 12.7709 7.54307 12.7734H12.1922C12.2935 12.7679 12.3949 12.7848 12.489 12.8229C12.5677 12.8677 12.6355 12.9297 12.6867 13.0044C13.0825 13.8837 13.5221 14.7631 14.0058 15.6421C14.4857 16.5155 14.9748 17.3838 15.4731 18.2469C15.9637 19.0967 16.4202 19.9656 16.8414 20.8518H16.8745C17.3062 19.9659 17.7514 19.0865 18.2098 18.2141C18.6601 17.3568 19.1218 16.4938 19.5945 15.6256C20.0612 14.7685 20.5174 13.9057 20.9629 13.0374C20.9883 12.956 21.0336 12.8823 21.0948 12.8229C21.1763 12.7817 21.2678 12.7645 21.3586 12.7734H25.678C25.7178 12.7635 25.7596 12.7668 25.7973 12.7827C25.835 12.7986 25.8665 12.8264 25.8871 12.8618C25.9076 12.8971 25.9162 12.9383 25.9114 12.9789C25.9066 13.0195 25.8887 13.0575 25.8604 13.0871L25.8432 13.1033L25.843 13.1029ZM35.5332 34.6977L35.3059 34.7002C33.7882 34.7233 32.2844 34.408 30.9039 33.7771C29.6179 33.1818 28.5428 32.2102 27.821 30.9908C27.0931 29.7819 26.7195 28.2755 26.7006 26.472L26.6999 26.3252C26.6875 24.8118 27.0743 23.322 27.8211 22.0057C28.5686 20.703 29.6583 19.6296 30.9723 18.9019L31.0853 18.8404C32.5138 18.049 34.2395 17.6533 36.262 17.6533L36.3504 17.6542L36.4514 17.6575L36.5646 17.6625L36.6906 17.6698L36.9022 17.6848L37.1418 17.704L37.3171 17.7193V11.2236C37.3171 11.07 37.3831 10.9928 37.5148 10.9928H41.6695C41.6964 10.9889 41.7238 10.9914 41.7495 11C41.7753 11.0086 41.7987 11.023 41.8179 11.0422C41.8371 11.0614 41.8515 11.0848 41.8601 11.1105C41.8687 11.1363 41.8711 11.1637 41.8673 11.1906V30.6776C41.8673 31.0048 41.88 31.3573 41.9053 31.7344L41.9667 32.5897L41.9994 33.0845C42.0034 33.153 41.9867 33.2212 41.9514 33.28C41.9161 33.3389 41.8638 33.3857 41.8014 33.4144C40.7296 33.8613 39.6132 34.1929 38.4712 34.4034C37.5017 34.5823 36.519 34.6808 35.5332 34.6977ZM37.3171 30.6115V21.61C37.1389 21.5618 36.9569 21.5287 36.7731 21.5111C36.5485 21.4885 36.3229 21.4775 36.0971 21.4781C35.297 21.4702 34.5063 21.651 33.7891 22.0057C33.0905 22.353 32.494 22.8756 32.058 23.5225C31.6227 24.1592 31.3975 24.9906 31.3827 26.0166L31.382 26.1274C31.3659 26.8461 31.4833 27.5616 31.7282 28.2375C31.9275 28.7822 32.2426 29.2772 32.6517 29.6884C33.0432 30.0667 33.5172 30.3488 34.0364 30.5127C34.5848 30.6903 35.158 30.7794 35.7344 30.7767C36.042 30.7767 36.3277 30.7655 36.5917 30.7435C36.8023 30.7276 37.011 30.6929 37.2153 30.6398L37.3171 30.6115Z" fill="#FF61F6"/>
</g>
<defs>
<clipPath id="clip0_109_570">
<rect width="49.16" height="48" fill="white" transform="translate(0 0.5)"/>
</clipPath>
</defs>
</svg>
