<svg width="48" height="49" viewBox="0 0 48 49" fill="none" xmlns="http://www.w3.org/2000/svg">
<g clip-path="url(#clip0_11_466)">
<path d="M47.625 1.7375C47.625 0.95 47.625 0.875 46.875 0.875H1.3125C0.5625 0.875 0.375 0.95 0.375 1.7V47.2625C0.375 48.0125 0.4875 48.0125 1.2 48.0125H46.875C47.475 48.0125 47.625 47.8625 47.625 47.2625C47.5875 39.6875 47.625 32.075 47.625 24.5V1.7375ZM22.0125 35.75L18.375 27.575L14.55 35.75H10.35L15.7875 24.7625L10.725 13.1375L15.0375 13.175L18.225 20.7875L22.125 13.1375H26.175L20.7 24.1625L26.1375 35.75H22.0125ZM38.3625 13.55V34.775C38.3625 35.3375 38.2875 35.675 37.725 35.7125C35.1 36.05 32.475 36.425 29.8875 35.675C27.075 34.8875 25.4625 32.675 25.35 29.6375C25.2 25.8875 26.625 23.3 29.4 22.1C31.125 21.35 32.8875 21.3125 34.875 21.5V13.175H38.3625V13.55ZM31.05 32.825C32.2875 33.1625 33.525 33.05 34.8 32.825V25.325C34.8 25.2125 34.65 24.9875 34.5375 24.95C33.15 24.725 31.725 24.725 30.4125 25.4375C29.0625 26.1875 28.35 27.7625 28.5 29.6C28.6125 31.2875 29.5125 32.375 31.05 32.825Z" fill="#DD80BC"/>
</g>
<defs>
<clipPath id="clip0_11_466">
<rect width="48" height="48" fill="white" transform="translate(0 0.5)"/>
</clipPath>
</defs>
</svg>
